
<svg width="73px" height="51px" viewBox="0 0 73 51" version="1.1" xmlns="http://www.w3.org/2000/svg" xmlns:xlink="http://www.w3.org/1999/xlink">
    <g id="Page-1" stroke="none" stroke-width="1" fill="none" fill-rule="evenodd">
        <g id="Partner-Portal-Desktop-3-long-list" transform="translate(-561.000000, -339.000000)">
            <g id="Group-6" transform="translate(562.000000, 340.000000)">
                <g id="Group-3" transform="translate(0.000000, 0.252784)" fill="#152A40" stroke="#FFFFFF">
                    <path d="M67.9175326,44.3758957 C67.9175326,45.3580247 67.2068399,46.0707934 66.2275715,46.0707934 L4.64763405,46.0707934 C3.66836564,46.0707934 2.95767295,45.3580247 2.95767295,44.3758957 L2.95767295,40.0833981 C2.95767295,39.1009238 3.66836564,38.3881551 4.64763405,38.3881551 L27.620844,38.3881551 L27.620844,39.023569 C27.620844,40.9760856 29.2653539,42.6257446 31.2121835,42.6257446 L39.663022,42.6257446 C41.6098517,42.6257446 43.2543615,40.9760856 43.2543615,39.023569 L43.2543615,38.3881551 L66.2275715,38.3881551 C67.2068399,38.3881551 67.9175326,39.1009238 67.9175326,40.0833981 L67.9175326,44.3758957 Z M46.5020618,35.4217388 L41.7758177,35.4217388 C40.9604494,35.4220841 40.2965853,36.0875421 40.2965853,36.9049469 L40.2965853,39.6593283 L30.5786203,39.6593283 L30.5786203,36.9049469 C30.5786203,36.0875421 29.9147562,35.4220841 29.0993878,35.4217388 L24.6541153,35.4217388 L20.8647872,35.4217388 L8.23931788,35.4217388 L8.23931788,11.3533627 L62.636232,11.3533627 L62.636232,35.4217388 L50.2707302,35.4217388 L46.5020618,35.4217388 Z M8.23931788,5.81351981 C8.23931788,4.24294224 9.42001809,3.05879306 10.9856768,3.05879306 L59.8898731,3.05879306 C61.4555318,3.05879306 62.636232,4.24294224 62.636232,5.81351981 L62.636232,8.38729172 L8.23931788,8.38729172 L8.23931788,5.81351981 Z M66.2275715,35.4217388 L65.5936639,35.4217388 L65.5936639,5.81351981 C65.5936639,2.65889666 63.0346193,0.092376759 59.8898731,0.092376759 L10.9856768,0.092376759 C7.8402419,0.092376759 5.28154163,2.65889666 5.28154163,5.81351981 L5.28154163,35.4217388 L4.64763405,35.4217388 C2.12818716,35.4217388 -0.000103298356,37.5565916 -0.000103298356,40.0833981 L-0.000103298356,44.3758957 C-0.000103298356,46.9027022 2.12818716,49.037555 4.64763405,49.037555 L66.2275715,49.037555 C68.7470184,49.037555 70.8756532,46.9027022 70.8756532,44.3758957 L70.8756532,40.0833981 C70.8756532,37.5565916 68.7470184,35.4217388 66.2275715,35.4217388 L66.2275715,35.4217388 Z" id="Fill-1"></path>
                </g>
                <path d="M32.1400438,17.9535181 C32.3232262,17.9535181 32.4888479,17.9915048 32.6348429,18.0809462 L32.6348429,18.0640249 L40.6680117,23.0568592 C40.9806614,23.2391954 41.1820932,23.5696797 41.1820932,23.9716481 C41.1820932,24.3729258 40.9613791,24.6847622 40.6487294,24.867789 C40.631513,24.8867824 40.611542,24.904049 40.611542,24.904049 C40.5764205,24.9223517 40.5571382,24.9409997 40.5202951,24.9776051 L32.6348429,29.8616593 C32.3218489,30.0250022 31.9547954,30.0439955 31.624585,29.8423206 C31.2943746,29.6589485 31.1105035,29.2942761 31.1105035,28.9461797 L31.1105035,28.9285677 L31.1105035,27.9947855 L31.1105035,18.9967711 L31.1105035,18.9788138 C31.1105035,18.6314081 31.2943746,18.2843478 31.624585,18.0819822 C31.6438674,18.0819822 31.6617724,18.0819822 31.6800218,18.0647155 C31.8270498,17.9904688 31.9740778,17.9535181 32.1400438,17.9535181" id="Fill-4" fill="#FF5300"></path>
            </g>
        </g>
    </g>
</svg>