<svg width="22" height="22" viewBox="0 0 22 22" fill="none" xmlns="http://www.w3.org/2000/svg">
<path d="M10.1695 6.34829C10.4017 6.1161 10.6785 6 11 6C11.3215 6 11.5983 6.1161 11.8305 6.34829C12.0627 6.57602 12.1788 6.8484 12.1788 7.16544C12.1788 7.48694 12.0627 7.76379 11.8305 7.99598C11.5983 8.22818 11.3215 8.34427 11 8.34427C10.6785 8.34427 10.4017 8.22818 10.1695 7.99598C9.93726 7.76379 9.82117 7.48694 9.82117 7.16544C9.82117 6.8484 9.93726 6.57602 10.1695 6.34829ZM10.0355 9.26189H11.9712V16H10.0355V9.26189Z" fill="#FF5300"/>
<rect x="0.75" y="0.75" width="20.5" height="20.5" rx="10.25" stroke="#FF5300" stroke-width="1.5"/>
</svg>
