<?xml version="1.0" encoding="UTF-8"?>
<svg width="175px" height="41px" viewBox="0 0 175 41" version="1.1" xmlns="http://www.w3.org/2000/svg" xmlns:xlink="http://www.w3.org/1999/xlink">
    <title>PP LOGO@2x</title>
    <defs>
        <polygon id="path-1" points="0.0001 0.08 6.5301 0.08 6.5301 9.1539 0.0001 9.1539"></polygon>
        <polygon id="path-3" points="0 26.9199 46.624 26.9199 46.624 0.9999 0 0.9999"></polygon>
    </defs>
    <g id="Page-1" stroke="none" stroke-width="1" fill="none" fill-rule="evenodd">
        <g id="Partner-Portal-1" transform="translate(-59.000000, -19.000000)">
            <g id="PP-LOGO" transform="translate(59.000000, 19.000000)">
                <g id="NEW-LOGO---MARKETING-ORANGE">
                    <path d="M107.47638,8.170008 L100.5921,26.613648 L93.71706,8.170008 L90.03654,8.170008 L97.5375,28.256208 C97.54062,28.264728 97.8525,29.122608 98.08722,30.170688 C98.40138,31.567848 98.37474,32.463888 98.25258,32.819808 L98.15466,33.141768 C97.40094,35.308848 95.4933,36.764928 93.40782,36.764928 L91.69002,36.764928 L91.69002,40.200048 L93.40782,40.200048 C95.19882,40.200048 96.91134,39.616608 98.35986,38.512968 C99.75126,37.454088 100.7985,35.998368 101.3853,34.311768 L111.1605,8.170008 L107.47638,8.170008 Z" id="Fill-7" fill="#FFFFFF"></path>
                    <path d="M38.364648,10.975236 C36.725568,12.748356 35.822808,15.095316 35.822808,17.583516 L35.822808,32.377356 L39.339768,32.377356 L39.339768,17.583516 C39.339768,14.332236 41.729328,11.687076 44.666688,11.687076 L45.446808,11.687076 L45.446808,8.169996 L44.666688,8.169996 C42.277368,8.169996 40.039368,9.166236 38.364648,10.975236" id="Fill-1" fill="#FFFFFF"></path>
                    <polygon id="Fill-3" fill="#FFFFFF" points="59.390436 26.217936 52.660236 8.170056 48.913116 8.170056 57.933156 32.375016 60.849876 32.375016 69.865236 8.170056 66.110796 8.170056"></polygon>
                    <path d="M84.668124,14.443056 C84.668124,15.173376 84.296844,15.851736 83.594364,16.404936 C82.627404,17.164536 81.170964,17.565816 79.382964,17.565816 L74.060724,17.565696 C74.035764,17.565096 73.990644,17.563896 73.920444,17.566296 C74.840364,14.083776 77.411244,11.692896 80.312244,11.688336 C83.305044,11.691936 84.668124,13.118856 84.668124,14.443056 L84.668124,14.443056 Z M85.013124,26.906736 C84.058284,28.184736 82.436124,28.860216 80.322084,28.860216 C77.065284,28.860216 74.274204,25.901376 73.685844,21.825096 L73.677084,21.778416 C73.676244,21.774216 73.603404,21.367176 73.828284,21.126696 C73.881684,21.107856 73.995564,21.086496 74.033004,21.082896 L79.382964,21.082896 C81.966924,21.082896 84.174924,20.421336 85.767924,19.169616 C87.305124,17.961456 88.186524,16.238736 88.186524,14.443056 C88.186524,12.719016 87.409524,11.130696 85.998564,9.970776 C84.546924,8.775936 82.626084,8.170056 80.289924,8.170056 C78.876804,8.170056 77.503044,8.509416 76.207764,9.178296 C74.983044,9.806736 73.886964,10.703016 72.950124,11.841696 C71.084724,14.109576 70.057524,17.104296 70.057524,20.274216 C70.057524,21.697536 70.243164,22.691856 70.325364,23.063736 C70.750764,25.194696 71.650764,27.144936 72.928284,28.703616 L72.928284,28.703496 C74.868444,31.072656 77.494164,32.377296 80.322084,32.377296 C84.453924,32.377296 86.686644,30.546456 87.832404,29.010456 L88.882644,27.600816 L86.064684,25.498056 L85.013124,26.906736 Z" id="Fill-5" fill="#FFFFFF"></path>
                    <g id="Q" transform="translate(-0.000024, 0.000084)" fill="#FF5300">
                        <path d="M30.641496,34.449336 C30.567096,34.568736 28.773816,37.372776 25.162056,37.249416 C23.427336,37.189896 21.814656,36.539376 20.107296,35.850816 C18.028896,35.012496 15.879576,34.145736 13.168536,34.132656 L13.161696,34.132656 C12.990216,34.132656 10.645776,34.158216 8.704176,35.498736 L8.353056,35.741376 L9.241416,36.799896 L9.518376,36.654936 C9.533016,36.647136 11.029656,35.876976 12.481296,35.911656 C13.587456,35.940936 14.723376,36.261216 15.858096,36.863376 C16.335096,37.116816 16.814016,37.388376 17.277336,37.651176 C18.366336,38.268456 19.492296,38.906976 20.704896,39.373416 C21.218496,39.571296 21.700056,39.726696 22.176096,39.848016 C22.794696,40.007136 23.348976,40.091496 23.870496,40.105536 C23.936496,40.107096 24.003096,40.108056 24.070056,40.108056 C26.833296,40.108056 30.283656,38.656536 31.938936,35.355936 L32.075496,35.083536 L30.879816,34.065816 L30.641496,34.449336 Z" id="Fill-13"></path>
                        <path d="M3.5478,16.17336 C3.5478,9.21096 9.21216,3.54672 16.17492,3.54672 C23.13576,3.54672 28.79916,9.21096 28.79916,16.17336 C28.79916,23.13492 23.13576,28.79844 16.17492,28.79844 C9.21216,28.79844 3.5478,23.13492 3.5478,16.17336 M32.34624,16.17336 C32.34624,7.25532 25.09188,-5.68434189e-15 16.17492,-5.68434189e-15 C7.25616,-5.68434189e-15 5.68434189e-15,7.25532 5.68434189e-15,16.17336 C5.68434189e-15,25.09128 7.25616,32.3466 16.17492,32.3466 C25.09188,32.3466 32.34624,25.09128 32.34624,16.17336" id="Fill-10"></path>
                    </g>
                </g>
                <g id="Group-28" transform="translate(128.000000, 6.000000)">
                    <g id="Group-3" transform="translate(0.000000, 0.919900)">
                        <mask id="mask-2" fill="white">
                            <use xlink:href="#path-1"></use>
                        </mask>
                        <g id="Clip-2"></g>
                        <path d="M3.4551,4.0859 C3.7841,4.0859 4.0571,3.9809 4.2741,3.7719 C4.4921,3.5629 4.6011,3.3009 4.6011,2.9839 C4.6011,2.6799 4.4921,2.4279 4.2741,2.2249 C4.0571,2.0219 3.7841,1.9199 3.4551,1.9199 L1.9171,1.9199 L1.9171,4.0859 L3.4551,4.0859 Z M3.4551,0.0799 C4.3451,0.0799 5.0801,0.3539 5.6601,0.9019 C6.2401,1.4509 6.5301,2.1449 6.5301,2.9839 C6.5301,3.8319 6.2401,4.5349 5.6601,5.0919 C5.0801,5.6479 4.3451,5.9259 3.4551,5.9259 L1.9171,5.9259 L1.9171,9.1539 L0.0001,9.1539 L0.0001,0.0799 L3.4551,0.0799 Z" id="Fill-1" fill="#CECECE" mask="url(#mask-2)"></path>
                    </g>
                    <path d="M10.6187,8.4668 C10.9267,8.4668 11.2147,8.3928 11.4827,8.2438 C11.7507,8.0978 11.9537,7.9078 12.0937,7.6758 L12.0937,6.1188 C11.9537,5.8788 11.7507,5.6818 11.4827,5.5288 C11.2147,5.3788 10.9267,5.3028 10.6187,5.3028 C10.1717,5.3028 9.7967,5.4528 9.4927,5.7538 C9.1887,6.0568 9.0367,6.4338 9.0367,6.8848 C9.0367,7.3358 9.1887,7.7128 9.4927,8.0138 C9.7967,8.3168 10.1717,8.4668 10.6187,8.4668 L10.6187,8.4668 Z M12.0937,3.7068 L13.9217,3.7068 L13.9217,10.0738 L12.0937,10.0738 L12.0937,9.3208 C11.9367,9.5818 11.6847,9.7948 11.3367,9.9568 C10.9887,10.1188 10.6147,10.2008 10.2137,10.2008 C9.6697,10.2008 9.1697,10.0528 8.7137,9.7578 C8.2587,9.4628 7.8997,9.0608 7.6387,8.5528 C7.3767,8.0428 7.2457,7.4878 7.2457,6.8848 C7.2457,5.9648 7.5337,5.1838 8.1097,4.5428 C8.6857,3.9028 9.3867,3.5818 10.2137,3.5818 C10.6107,3.5818 10.9837,3.6638 11.3337,3.8278 C11.6837,3.9918 11.9367,4.2028 12.0937,4.4608 L12.0937,3.7068 Z" id="Fill-4" fill="#CECECE"></path>
                    <path d="M19.0532,3.582 C19.3782,3.582 19.6372,3.619 19.8312,3.695 L19.7232,5.41 C19.4532,5.312 19.1812,5.264 18.9072,5.264 C18.6792,5.264 18.4282,5.352 18.1512,5.527 C17.8752,5.701 17.6652,5.936 17.5212,6.227 L17.5212,10.074 L15.6932,10.074 L15.6932,3.707 L17.5212,3.707 L17.5212,4.461 C17.6692,4.199 17.8922,3.986 18.1892,3.824 C18.4872,3.662 18.7742,3.582 19.0532,3.582" id="Fill-6" fill="#CECECE"></path>
                    <path d="M25.332,8.3769 L25.427,9.9979 C25.183,10.1149 24.87,10.1759 24.491,10.1759 C23.731,10.1759 23.118,9.9449 22.652,9.4879 C22.186,9.0309 21.953,8.3969 21.953,7.5859 L21.953,5.4469 L20.77,5.4469 L20.77,3.7069 L21.953,3.7069 L21.953,2.0369 L23.782,2.0369 L23.782,3.7069 L25.345,3.7069 L25.345,5.4469 L23.782,5.4469 L23.782,7.4919 C23.782,7.7829 23.877,8.0179 24.066,8.1969 C24.256,8.3769 24.488,8.4669 24.763,8.4669 C24.974,8.4669 25.164,8.4379 25.332,8.3769" id="Fill-8" fill="#CECECE"></path>
                    <path d="M30.5073,3.582 C31.3093,3.582 31.9413,3.84 32.4033,4.355 C32.8643,4.873 33.0953,5.578 33.0953,6.473 L33.0953,10.074 L31.2673,10.074 L31.2673,6.783 C31.2673,6.35 31.1573,6.01 30.9383,5.764 C30.7183,5.519 30.4193,5.396 30.0393,5.396 C29.7863,5.396 29.5433,5.463 29.3113,5.594 C29.0793,5.725 28.8983,5.898 28.7673,6.119 L28.7673,10.074 L26.9383,10.074 L26.9383,3.707 L28.7673,3.707 L28.7673,4.461 C28.9403,4.191 29.1833,3.977 29.4983,3.818 C29.8123,3.66 30.1493,3.582 30.5073,3.582" id="Fill-10" fill="#CECECE"></path>
                    <path d="M36.3726,6.1621 L39.1446,6.1621 C39.1066,5.8461 38.9586,5.5821 38.7016,5.3711 C38.4446,5.1601 38.1466,5.0551 37.8096,5.0551 C37.4296,5.0551 37.1176,5.1521 36.8726,5.3461 C36.6276,5.5411 36.4616,5.8121 36.3726,6.1621 M40.9736,6.6111 C40.9736,6.8691 40.9566,7.1071 40.9226,7.3281 L36.3476,7.3281 C36.4316,7.7581 36.6156,8.0861 36.8976,8.3101 C37.1806,8.5371 37.5416,8.6501 37.9796,8.6501 C38.2676,8.6501 38.5416,8.5881 38.8066,8.4671 C39.0696,8.3441 39.2566,8.1871 39.3656,7.9981 L40.7896,8.8711 C40.5576,9.2931 40.1906,9.6211 39.6886,9.8511 C39.1866,10.0841 38.6046,10.2011 37.9416,10.2011 C37.0056,10.2011 36.2136,9.8791 35.5656,9.2341 C34.9186,8.5921 34.5946,7.8011 34.5946,6.8591 C34.5946,5.9351 34.9146,5.1581 35.5536,4.5271 C36.1926,3.8961 36.9766,3.5821 37.9046,3.5821 C38.7646,3.5821 39.4916,3.8751 40.0836,4.4611 C40.6766,5.0471 40.9736,5.7641 40.9736,6.6111" id="Fill-12" fill="#CECECE"></path>
                    <path d="M45.8452,3.582 C46.1702,3.582 46.4292,3.619 46.6232,3.695 L46.5152,5.41 C46.2452,5.312 45.9732,5.264 45.6992,5.264 C45.4712,5.264 45.2202,5.352 44.9432,5.527 C44.6672,5.701 44.4572,5.936 44.3132,6.227 L44.3132,10.074 L42.4852,10.074 L42.4852,3.707 L44.3132,3.707 L44.3132,4.461 C44.4612,4.199 44.6842,3.986 44.9812,3.824 C45.2792,3.662 45.5662,3.582 45.8452,3.582" id="Fill-14" fill="#CECECE"></path>
                    <path d="M3.7144,21.9326 C4.1494,21.9326 4.5154,21.7866 4.8124,21.4936 C5.1104,21.2006 5.2584,20.8406 5.2584,20.4136 C5.2584,19.9886 5.1104,19.6316 4.8124,19.3446 C4.5154,19.0576 4.1494,18.9136 3.7144,18.9136 L1.4864,18.9136 L1.4864,21.9326 L3.7144,21.9326 Z M3.7144,17.7186 C4.5114,17.7186 5.1764,17.9746 5.7084,18.4876 C6.2394,18.9996 6.5054,19.6426 6.5054,20.4136 C6.5054,21.1866 6.2394,21.8306 5.7084,22.3476 C5.1764,22.8646 4.5114,23.1226 3.7144,23.1226 L1.4864,23.1226 L1.4864,26.7926 L0.2274,26.7926 L0.2274,17.7186 L3.7144,17.7186 Z" id="Fill-16" fill="#CECECE"></path>
                    <path d="M10.7007,21.4775 C10.1057,21.4775 9.6067,21.6845 9.2037,22.0975 C8.8017,22.5105 8.5997,23.0255 8.5997,23.6415 C8.5997,24.2455 8.8017,24.7515 9.2037,25.1635 C9.6067,25.5755 10.1057,25.7805 10.7007,25.7805 C11.2917,25.7805 11.7887,25.5745 12.1947,25.1605 C12.5987,24.7475 12.8017,24.2405 12.8017,23.6415 C12.8017,23.0255 12.5987,22.5105 12.1947,22.0975 C11.7887,21.6845 11.2917,21.4775 10.7007,21.4775 M10.7007,20.3375 C11.3047,20.3375 11.8547,20.4825 12.3527,20.7715 C12.8497,21.0605 13.2437,21.4575 13.5327,21.9645 C13.8217,22.4705 13.9667,23.0305 13.9667,23.6415 C13.9667,24.5655 13.6507,25.3425 13.0197,25.9735 C12.3887,26.6045 11.6167,26.9195 10.7007,26.9195 C10.0977,26.9195 9.5457,26.7765 9.0457,26.4895 C8.5457,26.2025 8.1527,25.8075 7.8657,25.3055 C7.5787,24.8035 7.4357,24.2485 7.4357,23.6415 C7.4357,22.7085 7.7497,21.9255 8.3787,21.2905 C9.0067,20.6565 9.7817,20.3375 10.7007,20.3375" id="Fill-18" fill="#CECECE"></path>
                    <path d="M18.6416,20.3379 C18.8606,20.3379 19.0926,20.3719 19.3376,20.4399 L19.2746,21.5719 C19.0546,21.4919 18.8166,21.4519 18.5586,21.4519 C18.2846,21.4519 17.9986,21.5549 17.7016,21.7589 C17.4046,21.9639 17.1646,22.2359 16.9836,22.5779 L16.9836,26.7929 L15.7746,26.7929 L15.7746,20.4709 L16.9836,20.4709 L16.9836,21.3889 C17.1566,21.0759 17.3986,20.8229 17.7116,20.6289 C18.0236,20.4359 18.3336,20.3379 18.6416,20.3379" id="Fill-20" fill="#CECECE"></path>
                    <path d="M24.4697,25.6914 L24.5327,26.7424 C24.3307,26.8274 24.1027,26.8694 23.8497,26.8694 C23.1657,26.8694 22.6147,26.6614 22.1947,26.2454 C21.7747,25.8304 21.5647,25.2534 21.5647,24.5144 L21.5647,21.6104 L20.3377,21.6104 L20.3377,20.4704 L21.5647,20.4704 L21.5647,18.7554 L22.7617,18.7554 L22.7617,20.4704 L24.4697,20.4704 L24.4697,21.6104 L22.7617,21.6104 L22.7617,24.4584 C22.7617,24.8584 22.8767,25.1744 23.1087,25.4074 C23.3407,25.6394 23.6387,25.7544 24.0017,25.7544 C24.1747,25.7544 24.3307,25.7344 24.4697,25.6914" id="Fill-22" fill="#CECECE"></path>
                    <path d="M28.8452,25.7929 C29.2332,25.7929 29.6012,25.6949 29.9492,25.4989 C30.2972,25.3029 30.5552,25.0509 30.7242,24.7419 L30.7242,22.5269 C30.5552,22.2159 30.2972,21.9609 29.9492,21.7619 C29.6012,21.5639 29.2332,21.4649 28.8452,21.4649 C28.2332,21.4649 27.7222,21.6699 27.3102,22.0819 C26.8992,22.4929 26.6942,23.0089 26.6942,23.6289 C26.6942,24.2449 26.8992,24.7599 27.3102,25.1729 C27.7222,25.5869 28.2332,25.7929 28.8452,25.7929 L28.8452,25.7929 Z M30.7242,20.4709 L31.9332,20.4709 L31.9332,26.7929 L30.7242,26.7929 L30.7242,25.8749 C30.5472,26.1749 30.2612,26.4239 29.8642,26.6219 C29.4672,26.8199 29.0502,26.9199 28.6112,26.9199 C28.0372,26.9199 27.5142,26.7749 27.0412,26.4859 C26.5692,26.1969 26.1992,25.8009 25.9312,25.2959 C25.6632,24.7919 25.5292,24.2359 25.5292,23.6289 C25.5292,23.0219 25.6632,22.4659 25.9312,21.9619 C26.1992,21.4569 26.5692,21.0609 27.0412,20.7719 C27.5142,20.4819 28.0372,20.3379 28.6112,20.3379 C29.0542,20.3379 29.4742,20.4389 29.8732,20.6389 C30.2722,20.8389 30.5552,21.0889 30.7242,21.3889 L30.7242,20.4709 Z" id="Fill-24" fill="#CECECE"></path>
                    <mask id="mask-4" fill="white">
                        <use xlink:href="#path-3"></use>
                    </mask>
                    <g id="Clip-27"></g>
                    <polygon id="Fill-26" fill="#CECECE" mask="url(#mask-4)" points="34.078 26.7929 35.286 26.7929 35.286 17.7189 34.078 17.7189"></polygon>
                </g>
            </g>
        </g>
    </g>
</svg>