<?xml version="1.0" encoding="UTF-8"?>
<svg width="248px" height="29px" viewBox="0 0 248 29" version="1.1" xmlns="http://www.w3.org/2000/svg" xmlns:xlink="http://www.w3.org/1999/xlink">
    <title>logo</title>
    <g id="Page-1" stroke="none" stroke-width="1" fill="none" fill-rule="evenodd">
        <g id="logo">
            <g id="Group-Copy" transform="translate(93.000000, 5.000000)">
                <path d="M16.444,15 L16.444,12.127 L18.888,12.127 C20.0493333,12.127 20.9593333,11.8518333 21.618,11.3015 C22.2766667,10.7511667 22.606,9.99066667 22.606,9.02 C22.606,8.04933333 22.2766667,7.28666667 21.618,6.732 C20.9593333,6.17733333 20.0493333,5.9 18.888,5.9 L18.888,5.9 L15.482,5.9 L15.482,15 L16.444,15 Z M18.862,11.282 L16.444,11.282 L16.444,6.732 L18.862,6.732 C19.7633333,6.732 20.4523333,6.92916667 20.929,7.3235 C21.4056667,7.71783333 21.644,8.28333333 21.644,9.02 C21.644,9.73933333 21.4056667,10.2961667 20.929,10.6905 C20.4523333,11.0848333 19.7633333,11.282 18.862,11.282 L18.862,11.282 Z M26.35,15.065 C26.9046667,15.065 27.3835,14.9653333 27.7865,14.766 C28.1895,14.5666667 28.495,14.2893333 28.703,13.934 L28.703,13.934 L28.703,15 L29.587,15 L29.587,10.762 C29.587,9.88666667 29.3486667,9.22583333 28.872,8.7795 C28.3953333,8.33316667 27.7106667,8.11 26.818,8.11 C26.2806667,8.11 25.7693333,8.19016667 25.284,8.3505 C24.7986667,8.51083333 24.3826667,8.73833333 24.036,9.033 L24.036,9.033 L24.452,9.722 C24.738,9.47066667 25.0803333,9.2735 25.479,9.1305 C25.8776667,8.9875 26.2936667,8.916 26.727,8.916 C27.3596667,8.916 27.8406667,9.06983333 28.17,9.3775 C28.4993333,9.68516667 28.664,10.1336667 28.664,10.723 L28.664,10.723 L28.664,11.139 L26.493,11.139 C25.5743333,11.139 24.9048333,11.3166667 24.4845,11.672 C24.0641667,12.0273333 23.854,12.4953333 23.854,13.076 C23.854,13.674 24.0793333,14.155 24.53,14.519 C24.9806667,14.883 25.5873333,15.065 26.35,15.065 Z M26.493,14.337 C25.947,14.337 25.5223333,14.2221667 25.219,13.9925 C24.9156667,13.7628333 24.764,13.4486667 24.764,13.05 C24.764,12.2353333 25.349,11.828 26.519,11.828 L26.519,11.828 L28.664,11.828 L28.664,12.946 C28.482,13.3966667 28.2046667,13.7411667 27.832,13.9795 C27.4593333,14.2178333 27.013,14.337 26.493,14.337 Z M33.019,15 L33.019,11.516 C33.019,10.7186667 33.2226667,10.099 33.63,9.657 C34.0373333,9.215 34.6006667,8.994 35.32,8.994 L35.32,8.994 L35.541,9.007 L35.541,8.11 C34.9083333,8.11 34.3775,8.227 33.9485,8.461 C33.5195,8.695 33.1966667,9.04166667 32.98,9.501 L32.98,9.501 L32.98,8.162 L32.096,8.162 L32.096,15 L33.019,15 Z M39.662,15.065 C39.9393333,15.065 40.2058333,15.0238333 40.4615,14.9415 C40.7171667,14.8591667 40.9316667,14.74 41.105,14.584 L41.105,14.584 L40.78,13.921 C40.65,14.0336667 40.4961667,14.1203333 40.3185,14.181 C40.1408333,14.2416667 39.9566667,14.272 39.766,14.272 C39.3846667,14.272 39.0921667,14.1658333 38.8885,13.9535 C38.6848333,13.7411667 38.583,13.4313333 38.583,13.024 L38.583,13.024 L38.583,8.942 L40.663,8.942 L40.663,8.162 L38.583,8.162 L38.583,6.667 L37.66,6.667 L37.66,8.162 L36.438,8.162 L36.438,8.942 L37.66,8.942 L37.66,13.076 C37.66,13.7086667 37.8333333,14.1983333 38.18,14.545 C38.5266667,14.8916667 39.0206667,15.065 39.662,15.065 Z M43.705,15 L43.705,11.412 C43.705,10.6406667 43.9195,10.0361667 44.3485,9.5985 C44.7775,9.16083333 45.3603333,8.942 46.097,8.942 C46.7556667,8.942 47.2626667,9.12833333 47.618,9.501 C47.9733333,9.87366667 48.151,10.4153333 48.151,11.126 L48.151,11.126 L48.151,15 L49.074,15 L49.074,11.035 C49.074,10.0816667 48.8205,9.35583333 48.3135,8.8575 C47.8065,8.35916667 47.124,8.11 46.266,8.11 C45.6766667,8.11 45.1588333,8.22483333 44.7125,8.4545 C44.2661667,8.68416667 43.9173333,9.007 43.666,9.423 L43.666,9.423 L43.666,8.162 L42.782,8.162 L42.782,15 L43.705,15 Z M54.508,15.065 C55.054,15.065 55.5545,14.9696667 56.0095,14.779 C56.4645,14.5883333 56.8436667,14.311 57.147,13.947 L57.147,13.947 L56.627,13.349 C56.367,13.6436667 56.0593333,13.8668333 55.704,14.0185 C55.3486667,14.1701667 54.9586667,14.246 54.534,14.246 C53.78,14.246 53.156,14.0271667 52.662,13.5895 C52.168,13.1518333 51.895,12.5776667 51.843,11.867 L51.843,11.867 L57.563,11.867 L57.576,11.581 C57.576,10.905 57.433,10.3048333 57.147,9.7805 C56.861,9.25616667 56.4666667,8.84666667 55.964,8.552 C55.4613333,8.25733333 54.8936667,8.11 54.261,8.11 C53.6283333,8.11 53.0585,8.25733333 52.5515,8.552 C52.0445,8.84666667 51.6458333,9.25833333 51.3555,9.787 C51.0651667,10.3156667 50.92,10.9136667 50.92,11.581 C50.92,12.2483333 51.0716667,12.8463333 51.375,13.375 C51.6783333,13.9036667 52.1008333,14.3175 52.6425,14.6165 C53.1841667,14.9155 53.806,15.065 54.508,15.065 Z M56.692,11.178 L51.843,11.178 C51.9036667,10.502 52.1571667,9.95383333 52.6035,9.5335 C53.0498333,9.11316667 53.6023333,8.903 54.261,8.903 C54.9283333,8.903 55.4851667,9.11316667 55.9315,9.5335 C56.3778333,9.95383333 56.6313333,10.502 56.692,11.178 L56.692,11.178 Z M60.384,15 L60.384,11.516 C60.384,10.7186667 60.5876667,10.099 60.995,9.657 C61.4023333,9.215 61.9656667,8.994 62.685,8.994 L62.685,8.994 L62.906,9.007 L62.906,8.11 C62.2733333,8.11 61.7425,8.227 61.3135,8.461 C60.8845,8.695 60.5616667,9.04166667 60.345,9.501 L60.345,9.501 L60.345,8.162 L59.461,8.162 L59.461,15 L60.384,15 Z M69.237,15 L69.237,12.127 L71.681,12.127 C72.8423333,12.127 73.7523333,11.8518333 74.411,11.3015 C75.0696667,10.7511667 75.399,9.99066667 75.399,9.02 C75.399,8.04933333 75.0696667,7.28666667 74.411,6.732 C73.7523333,6.17733333 72.8423333,5.9 71.681,5.9 L71.681,5.9 L68.275,5.9 L68.275,15 L69.237,15 Z M71.655,11.282 L69.237,11.282 L69.237,6.732 L71.655,6.732 C72.5563333,6.732 73.2453333,6.92916667 73.722,7.3235 C74.1986667,7.71783333 74.437,8.28333333 74.437,9.02 C74.437,9.73933333 74.1986667,10.2961667 73.722,10.6905 C73.2453333,11.0848333 72.5563333,11.282 71.655,11.282 L71.655,11.282 Z M80.04,15.065 C80.6986667,15.065 81.2923333,14.9155 81.821,14.6165 C82.3496667,14.3175 82.7635,13.9036667 83.0625,13.375 C83.3615,12.8463333 83.511,12.2483333 83.511,11.581 C83.511,10.9136667 83.3615,10.3156667 83.0625,9.787 C82.7635,9.25833333 82.3496667,8.84666667 81.821,8.552 C81.2923333,8.25733333 80.6986667,8.11 80.04,8.11 C79.3813333,8.11 78.7876667,8.25733333 78.259,8.552 C77.7303333,8.84666667 77.3143333,9.25833333 77.011,9.787 C76.7076667,10.3156667 76.556,10.9136667 76.556,11.581 C76.556,12.2483333 76.7076667,12.8463333 77.011,13.375 C77.3143333,13.9036667 77.7303333,14.3175 78.259,14.6165 C78.7876667,14.9155 79.3813333,15.065 80.04,15.065 Z M80.04,14.246 C79.5546667,14.246 79.1191667,14.1355 78.7335,13.9145 C78.3478333,13.6935 78.0445,13.3793333 77.8235,12.972 C77.6025,12.5646667 77.492,12.101 77.492,11.581 C77.492,11.061 77.6025,10.5973333 77.8235,10.19 C78.0445,9.78266667 78.3478333,9.4685 78.7335,9.2475 C79.1191667,9.0265 79.5546667,8.916 80.04,8.916 C80.5253333,8.916 80.9608333,9.0265 81.3465,9.2475 C81.7321667,9.4685 82.0333333,9.78266667 82.25,10.19 C82.4666667,10.5973333 82.575,11.061 82.575,11.581 C82.575,12.101 82.4666667,12.5646667 82.25,12.972 C82.0333333,13.3793333 81.7321667,13.6935 81.3465,13.9145 C80.9608333,14.1355 80.5253333,14.246 80.04,14.246 Z M86.319,15 L86.319,11.516 C86.319,10.7186667 86.5226667,10.099 86.93,9.657 C87.3373333,9.215 87.9006667,8.994 88.62,8.994 L88.62,8.994 L88.841,9.007 L88.841,8.11 C88.2083333,8.11 87.6775,8.227 87.2485,8.461 C86.8195,8.695 86.4966667,9.04166667 86.28,9.501 L86.28,9.501 L86.28,8.162 L85.396,8.162 L85.396,15 L86.319,15 Z M92.962,15.065 C93.2393333,15.065 93.5058333,15.0238333 93.7615,14.9415 C94.0171667,14.8591667 94.2316667,14.74 94.405,14.584 L94.405,14.584 L94.08,13.921 C93.95,14.0336667 93.7961667,14.1203333 93.6185,14.181 C93.4408333,14.2416667 93.2566667,14.272 93.066,14.272 C92.6846667,14.272 92.3921667,14.1658333 92.1885,13.9535 C91.9848333,13.7411667 91.883,13.4313333 91.883,13.024 L91.883,13.024 L91.883,8.942 L93.963,8.942 L93.963,8.162 L91.883,8.162 L91.883,6.667 L90.96,6.667 L90.96,8.162 L89.738,8.162 L89.738,8.942 L90.96,8.942 L90.96,13.076 C90.96,13.7086667 91.1333333,14.1983333 91.48,14.545 C91.8266667,14.8916667 92.3206667,15.065 92.962,15.065 Z M98.006,15.065 C98.5606667,15.065 99.0395,14.9653333 99.4425,14.766 C99.8455,14.5666667 100.151,14.2893333 100.359,13.934 L100.359,13.934 L100.359,15 L101.243,15 L101.243,10.762 C101.243,9.88666667 101.004667,9.22583333 100.528,8.7795 C100.051333,8.33316667 99.3666667,8.11 98.474,8.11 C97.9366667,8.11 97.4253333,8.19016667 96.94,8.3505 C96.4546667,8.51083333 96.0386667,8.73833333 95.692,9.033 L95.692,9.033 L96.108,9.722 C96.394,9.47066667 96.7363333,9.2735 97.135,9.1305 C97.5336667,8.9875 97.9496667,8.916 98.383,8.916 C99.0156667,8.916 99.4966667,9.06983333 99.826,9.3775 C100.155333,9.68516667 100.32,10.1336667 100.32,10.723 L100.32,10.723 L100.32,11.139 L98.149,11.139 C97.2303333,11.139 96.5608333,11.3166667 96.1405,11.672 C95.7201667,12.0273333 95.51,12.4953333 95.51,13.076 C95.51,13.674 95.7353333,14.155 96.186,14.519 C96.6366667,14.883 97.2433333,15.065 98.006,15.065 Z M98.149,14.337 C97.603,14.337 97.1783333,14.2221667 96.875,13.9925 C96.5716667,13.7628333 96.42,13.4486667 96.42,13.05 C96.42,12.2353333 97.005,11.828 98.175,11.828 L98.175,11.828 L100.32,11.828 L100.32,12.946 C100.138,13.3966667 99.8606667,13.7411667 99.488,13.9795 C99.1153333,14.2178333 98.669,14.337 98.149,14.337 Z M104.675,15 L104.675,5.354 L103.752,5.354 L103.752,15 L104.675,15 Z" id="PartnerPortal" fill="#7D7D7D" fill-rule="nonzero"></path>
                <line x1="0.5" y1="0.5" x2="0.5" y2="21.5" id="Line" stroke="#979797" stroke-linecap="square"></line>
            </g>
            <g id="NEW-LOGO---MARKETING-ORANGE">
                <path d="M77.383928,7 L72.4954412,19.6681103 L67.6135156,7 L65,7 L70.3263877,20.7963112 C70.3286032,20.8021632 70.5500673,21.3914026 70.7167406,22.1112818 C70.9398238,23.0709284 70.9209069,23.6863782 70.8341618,23.9308437 L70.7646294,24.1519836 C70.2294172,25.6404538 68.8748132,26.6405699 67.3939261,26.6405699 L66.1741264,26.6405699 L66.1741264,29 L67.3939261,29 C68.6657047,29 69.8817551,28.5992612 70.9103407,27.8412203 C71.8983656,27.1139231 72.6420046,26.1140542 73.0586879,24.9556042 L80,7 L77.383928,7 Z" id="Fill-7" fill="#808082"></path>
                <path d="M27.848803,7.97002399 C26.6566209,9.21522545 26,10.8634151 26,12.6107928 L26,23 L28.5580549,23 L28.5580549,12.6107928 C28.5580549,10.3275301 30.2960973,8.46992485 32.432581,8.46992485 L33,8.46992485 L33,6 L32.432581,6 C30.6947132,6 29.0669077,6.69962524 27.848803,7.97002399" id="Fill-1" fill="#808082"></path>
                <polygon id="Fill-3" fill="#808082" points="43.5009021 18.6756648 38.6826307 6 36 6 42.4576091 23 44.5457414 23 51 6 48.3121288 6"></polygon>
                <path d="M61.8657156,10.4053349 C61.8657156,10.9182162 61.5895994,11.3946076 61.0671741,11.7831029 C60.3480583,12.3165466 59.2649226,12.5983532 57.93521,12.5983532 L53.9771284,12.5982689 C53.958566,12.5978476 53.9250108,12.5970049 53.872804,12.5986903 C54.5569367,10.1530236 56.4688671,8.47398216 58.6263036,8.47077982 C60.8520105,8.47330799 61.8657156,9.47539001 61.8657156,10.4053349 L61.8657156,10.4053349 Z M62.1222877,19.158194 C61.4121854,20.0556941 60.2058059,20.5300629 58.6336215,20.5300629 C56.2115811,20.5300629 54.1358908,18.4521606 53.698335,15.5895145 L53.6918203,15.5567326 C53.6911956,15.5537831 53.6370254,15.2679314 53.8042658,15.0990497 C53.8439787,15.085819 53.9286698,15.0708185 53.9565134,15.0682903 L57.93521,15.0682903 C59.8568678,15.0682903 61.4989291,14.6036971 62.6836227,13.7246526 C63.8268186,12.876199 64.4823045,11.6663858 64.4823045,10.4053349 C64.4823045,9.19459467 63.9044596,8.0791664 62.8551467,7.26459026 C61.7755807,6.42549089 60.3470767,6 58.6097045,6 C57.5587853,6 56.5371376,6.23832209 55.5738545,6.70805594 C54.663046,7.14939002 53.8479054,7.77881989 53.1511895,8.57847983 C51.7639154,10.1711422 51,12.2742419 51,14.5003792 C51,15.4999331 51.1380581,16.1982134 51.1991892,16.4593733 C51.5155537,17.955881 52.1848721,19.3254745 53.1349473,20.4200875 L53.1349473,20.4200033 C54.5778194,22.0837915 56.5305337,23 58.6336215,23 C61.7064178,23 63.366863,21.7142574 64.21895,20.6355718 L65,19.645625 L62.9043193,18.1689214 L62.1222877,19.158194 Z" id="Fill-5" fill="#808082"></path>
                <g id="Q" fill="#FF5300">
                    <path d="M21.7878309,24.9084808 C21.7349283,24.9948126 20.4598052,27.0222647 17.8916402,26.9330696 C16.6581565,26.8900339 15.5114501,26.4196775 14.2974209,25.9218164 C12.8195613,25.3156718 11.2912737,24.6889638 9.36357141,24.6795064 L9.35870778,24.6795064 C9.23677584,24.6795064 7.56974684,24.6979875 6.18915979,25.6672461 L5.93949368,25.8426862 L6.57116772,26.6080456 L6.76810189,26.5032328 C6.77851175,26.497593 7.84270716,25.9407313 8.87490503,25.9658066 C9.66144714,25.9869774 10.4691503,26.2185548 11.2760002,26.6539446 C11.6151741,26.8371936 11.9557132,27.0335442 12.2851598,27.2235609 C13.0595002,27.6698832 13.8601212,28.131563 14.7223482,28.4688209 C15.0875467,28.6118974 15.429963,28.7242589 15.7684543,28.8119789 C16.2083138,28.9270301 16.6024381,28.9880263 16.9732682,28.9981779 C17.020198,28.9993059 17.0675543,29 17.1151666,29 C19.0799861,29 21.5333865,27.9504832 22.7103839,25.563995 L22.8074858,25.3670371 L21.9572899,24.6311779 L21.7878309,24.9084808 Z" id="Fill-13"></path>
                    <path d="M2.52268579,11.6940956 C2.52268579,6.6599548 6.55036505,2.56444441 11.5012799,2.56444441 C16.4508295,2.56444441 20.4778262,6.6599548 20.4778262,11.6940956 C20.4778262,16.727629 16.4508295,20.8226188 11.5012799,20.8226188 C6.55036505,20.8226188 2.52268579,16.727629 2.52268579,11.6940956 M23,11.6940956 C23,5.24593563 17.8417411,0 11.5012799,0 C5.15953879,0 0,5.24593563 0,11.6940956 C0,18.1421687 5.15953879,23.3881044 11.5012799,23.3881044 C17.8417411,23.3881044 23,18.1421687 23,11.6940956" id="Fill-10"></path>
                </g>
            </g>
        </g>
    </g>
</svg>