<?xml version="1.0" encoding="UTF-8"?>
<svg width="173px" height="40px" viewBox="0 0 173 40" version="1.1" xmlns="http://www.w3.org/2000/svg" xmlns:xlink="http://www.w3.org/1999/xlink">
    <title>partner logo 1</title>
    <defs>
        <path d="M2.6071875,10 L2.6071875,6.77265625 L4.14492188,6.77265625 C5.03507813,6.77265625 5.77019531,6.49421875 6.35027344,5.93734375 C6.93035156,5.38046875 7.22039063,4.67804687 7.22039063,3.83007812 C7.22039063,2.99054687 6.93035156,2.2965625 6.35027344,1.748125 C5.77019531,1.1996875 5.03507813,0.92546875 4.14492188,0.92546875 L4.14492188,0.92546875 L0.689765625,0.92546875 L0.689765625,10 L2.6071875,10 Z M4.14492188,4.93117187 L2.6071875,4.93117187 L2.6071875,2.76695313 L4.14492188,2.76695313 C4.47398438,2.76695313 4.74714844,2.86820312 4.96441406,3.07070312 C5.18167969,3.27320312 5.2903125,3.52632812 5.2903125,3.83007812 C5.2903125,4.14648438 5.18167969,4.40910156 4.96441406,4.61792969 C4.74714844,4.82675781 4.47398438,4.93117187 4.14492188,4.93117187 L4.14492188,4.93117187 Z M10.4097656,10.1265625 C10.8105469,10.1265625 11.1849609,10.0453516 11.5330078,9.88292969 C11.8810547,9.72050781 12.133125,9.50851562 12.2892188,9.24695313 L12.2892188,9.24695313 L12.2892188,10 L14.1180469,10 L14.1180469,3.63390625 L12.2892188,3.63390625 L12.2892188,4.38695312 C12.133125,4.12960937 11.88,3.91867187 11.5298438,3.75414062 C11.1796875,3.58960938 10.8063281,3.50734375 10.4097656,3.50734375 C9.58289063,3.50734375 8.88152344,3.82796875 8.30566406,4.46921875 C7.72980469,5.11046875 7.441875,5.8909375 7.441875,6.810625 C7.441875,7.41390625 7.57265625,7.96972656 7.83421875,8.47808594 C8.09578125,8.98644531 8.454375,9.38828125 8.91,9.68359375 C9.365625,9.97890625 9.86554688,10.1265625 10.4097656,10.1265625 Z M10.8147656,8.39265625 C10.3675781,8.39265625 9.99210938,8.24183594 9.68835938,7.94019531 C9.38460938,7.63855469 9.23273438,7.26203125 9.23273438,6.810625 C9.23273438,6.35921875 9.38460938,5.98269531 9.68835938,5.68105469 C9.99210938,5.37941406 10.3675781,5.22859375 10.8147656,5.22859375 C11.1227344,5.22859375 11.4106641,5.30453125 11.6785547,5.45640625 C11.9464453,5.60828125 12.15,5.80445312 12.2892188,6.04492188 L12.2892188,6.04492188 L12.2892188,7.60164062 C12.15,7.83367187 11.9464453,8.02351562 11.6785547,8.17117187 C11.4106641,8.31882812 11.1227344,8.39265625 10.8147656,8.39265625 Z M17.2251563,10 L17.2251563,6.1525 C17.3685938,5.86140625 17.5784766,5.62832031 17.8548047,5.45324219 C18.1311328,5.27816406 18.3832031,5.190625 18.6110156,5.190625 C18.8852344,5.190625 19.1573438,5.23914063 19.4273438,5.33617187 L19.4273438,5.33617187 L19.5349219,3.62125 C19.3408594,3.5453125 19.0814063,3.50734375 18.7565625,3.50734375 C18.478125,3.50734375 18.1901953,3.58855469 17.8927734,3.75097656 C17.5953516,3.91339844 17.3728125,4.12539062 17.2251563,4.38695312 L17.2251563,4.38695312 L17.2251563,3.63390625 L15.3963281,3.63390625 L15.3963281,10 L17.2251563,10 Z M23.6988281,10.10125 C24.0785156,10.10125 24.3907031,10.0421875 24.6353906,9.9240625 L24.6353906,9.9240625 L24.5404688,8.3040625 C24.3717188,8.363125 24.181875,8.39265625 23.9709375,8.39265625 C23.6967188,8.39265625 23.4646875,8.30300781 23.2748438,8.12371094 C23.085,7.94441406 22.9900781,7.70921875 22.9900781,7.418125 L22.9900781,7.418125 L22.9900781,5.37414062 L24.553125,5.37414062 L24.553125,3.63390625 L22.9900781,3.63390625 L22.9900781,1.96328125 L21.16125,1.96328125 L21.16125,3.63390625 L19.9778906,3.63390625 L19.9778906,5.37414062 L21.16125,5.37414062 L21.16125,7.51304688 C21.16125,8.32304687 21.3943359,8.95691406 21.8605078,9.41464844 C22.3266797,9.87238281 22.9394531,10.10125 23.6988281,10.10125 Z M27.4703906,10 L27.4703906,6.04492188 C27.6011719,5.82554687 27.7825781,5.65046875 28.0146094,5.5196875 C28.2466406,5.38890625 28.4892188,5.32351562 28.7423438,5.32351562 C29.1220313,5.32351562 29.4215625,5.44585937 29.6409375,5.69054687 C29.8603125,5.93523437 29.97,6.27484375 29.97,6.709375 L29.97,6.709375 L29.97,10 L31.7988281,10 L31.7988281,6.39929687 C31.7988281,5.50492187 31.5678516,4.79933594 31.1058984,4.28253906 C30.6439453,3.76574219 30.0121875,3.50734375 29.210625,3.50734375 C28.8520313,3.50734375 28.5155859,3.58644531 28.2012891,3.74464844 C27.8869922,3.90285156 27.6433594,4.11695313 27.4703906,4.38695312 L27.4703906,4.38695312 L27.4703906,3.63390625 L25.6415625,3.63390625 L25.6415625,10 L27.4703906,10 Z M36.1525781,10.1265625 C36.8149219,10.1265625 37.3971094,10.0105469 37.8991406,9.77851563 C38.4011719,9.54648438 38.7682031,9.21953125 39.0002344,8.79765625 L39.0002344,8.79765625 L37.5764063,7.924375 C37.4667188,8.11421875 37.2800391,8.2703125 37.0163672,8.39265625 C36.7526953,8.515 36.4774219,8.57617188 36.1905469,8.57617188 C35.7517969,8.57617188 35.3910938,8.46332031 35.1084375,8.23761719 C34.8257813,8.01191406 34.6422656,7.68390625 34.5578906,7.25359375 L34.5578906,7.25359375 L39.133125,7.25359375 C39.166875,7.03421875 39.18375,6.79585937 39.18375,6.53851562 C39.18375,5.69054687 38.8873828,4.97335938 38.2946484,4.38695312 C37.7019141,3.80054688 36.9752344,3.50734375 36.1146094,3.50734375 C35.1864844,3.50734375 34.4028516,3.82269531 33.7637109,4.45339844 C33.1245703,5.08410156 32.805,5.86140625 32.805,6.7853125 C32.805,7.72609375 33.1287891,8.51816406 33.7763672,9.16152344 C34.4239453,9.80488281 35.2160156,10.1265625 36.1525781,10.1265625 Z M37.3549219,6.08921875 L34.5832031,6.08921875 C34.6717969,5.7390625 34.8384375,5.46695312 35.083125,5.27289062 C35.3278125,5.07882812 35.64,4.98179687 36.0196875,4.98179687 C36.3571875,4.98179687 36.6546094,5.08726562 36.9119531,5.29820312 C37.1692969,5.50914062 37.3169531,5.7728125 37.3549219,6.08921875 L37.3549219,6.08921875 Z M42.0314063,10 L42.0314063,6.1525 C42.1748438,5.86140625 42.3847266,5.62832031 42.6610547,5.45324219 C42.9373828,5.27816406 43.1894531,5.190625 43.4172656,5.190625 C43.6914844,5.190625 43.9635938,5.23914063 44.2335938,5.33617187 L44.2335938,5.33617187 L44.3411719,3.62125 C44.1471094,3.5453125 43.8876563,3.50734375 43.5628125,3.50734375 C43.284375,3.50734375 42.9964453,3.58855469 42.6990234,3.75097656 C42.4016016,3.91339844 42.1790625,4.12539062 42.0314063,4.38695312 L42.0314063,4.38695312 L42.0314063,3.63390625 L40.2025781,3.63390625 L40.2025781,10 L42.0314063,10 Z" id="path-1"></path>
        <path d="M1.99335938,26.72 L1.99335938,22.8725 L4.51195313,22.8725 C5.27554688,22.8725 5.91363281,22.6225391 6.42621094,22.1226172 C6.93878906,21.6226953 7.19507813,20.999375 7.19507813,20.2526562 C7.19507813,19.514375 6.93878906,18.8952734 6.42621094,18.3953516 C5.91363281,17.8954297 5.27554688,17.6454687 4.51195313,17.6454687 L4.51195313,17.6454687 L1.02515625,17.6454687 L1.02515625,26.72 L1.99335938,26.72 Z M4.51195313,21.9359375 L1.99335938,21.9359375 L1.99335938,18.5820312 L4.51195313,18.5820312 C4.99289063,18.5820312 5.39578125,18.7423437 5.720625,19.0629687 C6.04546875,19.3835937 6.20789063,19.7801562 6.20789063,20.2526562 C6.20789063,20.729375 6.04546875,21.1291016 5.720625,21.4518359 C5.39578125,21.7745703 4.99289063,21.9359375 4.51195313,21.9359375 L4.51195313,21.9359375 Z M10.9223438,26.8465625 C11.8378125,26.8465625 12.6108984,26.5312109 13.2416016,25.9005078 C13.8723047,25.2698047 14.1876563,24.4925 14.1876563,23.5685937 C14.1876563,22.6446875 13.8723047,21.8673828 13.2416016,21.2366797 C12.6108984,20.6059766 11.8378125,20.290625 10.9223438,20.290625 C10.006875,20.290625 9.23484375,20.6070312 8.60625,21.2398437 C7.981875,21.8684375 7.6696875,22.6446875 7.6696875,23.5685937 C7.6696875,24.4925 7.98292969,25.2698047 8.60941406,25.9005078 C9.23589844,26.5312109 10.006875,26.8465625 10.9223438,26.8465625 Z M10.9223438,25.9542969 C10.2684375,25.9542969 9.71789063,25.724375 9.27070313,25.2645312 C8.82351563,24.8046875 8.59992188,24.239375 8.59992188,23.5685937 C8.59992188,22.8935937 8.82351563,22.3282812 9.27070313,21.8726562 C9.71789063,21.4170312 10.2684375,21.1892187 10.9223438,21.1892187 C11.5804688,21.1892187 12.1341797,21.4180859 12.5834766,21.8758203 C13.0327734,22.3335547 13.2574219,22.8978125 13.2574219,23.5685937 C13.2574219,24.2351562 13.0317188,24.7994141 12.5803125,25.2613672 C12.1289063,25.7233203 11.57625,25.9542969 10.9223438,25.9542969 Z M16.5733594,26.72 L16.5733594,22.3789062 C16.7674219,22.0076563 17.0205469,21.7112891 17.3327344,21.4898047 C17.6449219,21.2683203 17.9444531,21.1575781 18.2313281,21.1575781 C18.4760156,21.1575781 18.7017188,21.1976563 18.9084375,21.2778125 L18.9084375,21.2778125 L18.9590625,20.3855469 C18.7439063,20.3222656 18.5224219,20.290625 18.2946094,20.290625 C17.9655469,20.290625 17.6385938,20.3939844 17.31375,20.6007031 C16.9889063,20.8074219 16.7421094,21.0795312 16.5733594,21.4170312 L16.5733594,21.4170312 L16.5733594,20.4235156 L15.6241406,20.4235156 L15.6241406,26.72 L16.5733594,26.72 Z M22.9141406,26.7832812 C23.1335156,26.7832812 23.3339063,26.7495312 23.5153125,26.6820312 L23.5153125,26.6820312 L23.4457031,25.8530469 C23.3191406,25.8952344 23.1820313,25.9163281 23.034375,25.9163281 C22.6378125,25.9163281 22.3119141,25.7887109 22.0566797,25.5334766 C21.8014453,25.2782422 21.6738281,24.9270312 21.6738281,24.4798438 L21.6738281,24.4798438 L21.6738281,21.303125 L23.4457031,21.303125 L23.4457031,20.4235156 L21.6738281,20.4235156 L21.6738281,18.6832813 L20.7372656,18.6832813 L20.7372656,20.4235156 L19.4842969,20.4235156 L19.4842969,21.303125 L20.7372656,21.303125 L20.7372656,24.5178125 C20.7372656,25.2265625 20.9376563,25.7813281 21.3384375,26.1821094 C21.7392188,26.5828906 22.2644531,26.7832812 22.9141406,26.7832812 Z M27.1792969,26.8465625 C27.6307031,26.8465625 28.0652344,26.7400391 28.4828906,26.5269922 C28.9005469,26.3139453 29.2000781,26.0492187 29.3814844,25.7328125 L29.3814844,25.7328125 L29.3814844,26.72 L30.324375,26.72 L30.324375,20.4235156 L29.3814844,20.4235156 L29.3814844,21.404375 C29.2085156,21.0879687 28.9121484,20.8232422 28.4923828,20.6101953 C28.0726172,20.3971484 27.6349219,20.290625 27.1792969,20.290625 C26.2849219,20.290625 25.5360938,20.6028125 24.9328125,21.2271875 C24.3295313,21.8515625 24.0278906,22.6278125 24.0278906,23.5559375 C24.0278906,24.4882812 24.3295313,25.2698047 24.9328125,25.9005078 C25.5360938,26.5312109 26.2849219,26.8465625 27.1792969,26.8465625 Z M27.3311719,25.9542969 C26.6561719,25.9542969 26.0919141,25.7254297 25.6383984,25.2676953 C25.1848828,24.8099609 24.958125,24.239375 24.958125,23.5559375 C24.958125,22.8725 25.1848828,22.3040234 25.6383984,21.8505078 C26.0919141,21.3969922 26.6561719,21.1702344 27.3311719,21.1702344 C27.7530469,21.1702344 28.1548828,21.2788672 28.5366797,21.4961328 C28.9184766,21.7133984 29.2000781,21.995 29.3814844,22.3409375 L29.3814844,22.3409375 L29.3814844,24.8152344 C29.1958594,25.1442969 28.9110938,25.4164062 28.5271875,25.6315625 C28.1432813,25.8467187 27.7446094,25.9542969 27.3311719,25.9542969 Z M33.0834375,26.72 L33.0834375,17.6454687 L32.1342188,17.6454687 L32.1342188,26.72 L33.0834375,26.72 Z" id="path-2"></path>
    </defs>
    <g id="Page-1" stroke="none" stroke-width="1" fill="none" fill-rule="evenodd">
        <g id="partner-logo-1" fill-rule="nonzero">
            <g id="Partner-Portal" transform="translate(128.000000, 4.000000)">
                <g id="Partner">
                    <use fill="#000000" xlink:href="#path-1"></use>
                    <use fill="#D0D0D0" xlink:href="#path-1"></use>
                </g>
                <g id="Portal">
                    <use fill="#000000" xlink:href="#path-2"></use>
                    <use fill="#D0D0D0" xlink:href="#path-2"></use>
                </g>
            </g>
            <g id="logo-positive--2">
                <path d="M38.1648429,10.5545956 C36.5446156,12.3063935 35.6525356,14.6233345 35.6525356,17.0790082 L35.6525356,31.8044293 L39.5358556,31.8044293 L39.5358556,17.0790082 C39.5358556,14.0896251 41.7237461,11.6575598 44.412984,11.6575598 L45.4127608,11.6575598 L45.4127608,7.77689242 L44.412984,7.77689242 C42.0433882,7.77689242 39.8245945,8.76327347 38.1648429,10.5545956" id="Fill-1" fill="#FFFFFF"></path>
                <polygon id="Fill-3" fill="#FFFFFF" points="65.8946842 7.78247621 59.6021116 24.9025604 53.3003874 7.78247621 49.1636084 7.78247621 58.0252547 31.8077583 61.1814884 31.8077583 70.0384926 7.78247621"></polygon>
                <path d="M107.912727,7.78247621 L101.460598,25.4630615 L95.017356,7.78247621 L90.9429139,7.78247621 L98.2868571,27.8419415 C98.2896423,27.8498994 98.5847476,28.6624004 98.8065076,29.6534236 C99.1177939,31.0363731 99.0603644,31.8131962 98.9705728,32.0750109 L98.8795876,32.3754215 C98.1887097,34.3606509 96.4472571,35.6946594 94.5463813,35.6946594 L92.6441792,35.6946594 L92.6441792,39.4981352 L94.5463813,39.4981352 C96.3251034,39.4981352 98.0253076,38.9191983 99.4630339,37.8239267 C100.841341,36.7754741 101.87852,35.3346973 102.457324,33.6707015 L111.990352,7.78247621 L107.912727,7.78247621 Z" id="Fill-5" fill="#FFFFFF"></path>
                <path d="M85.7516078,17.4795423 L75.0527488,17.4742371 C75.1684036,15.5803907 75.6937573,14.1128223 76.6073236,13.1191465 L76.6248309,13.1008434 C77.6411867,12.0655213 78.9027783,11.5608581 80.3674288,11.6027697 C81.9383173,11.6468034 83.2568078,12.1671171 84.1801888,13.1064139 L84.1992878,13.1251149 C84.2133467,13.1383781 85.5485488,14.4413507 85.7516078,17.4795423 M80.2642415,7.76573811 C79.2043825,7.76600337 78.1100394,7.97065389 77.0135741,8.37305811 C75.9079573,8.77320758 74.8951825,9.43556968 74.0033678,10.341576 C73.1253467,11.2335234 72.3925573,12.4777402 71.8271488,14.0356307 C71.2466204,15.6037339 70.9566878,17.5757002 70.965972,19.8964876 C70.9832141,24.2258476 72.1485152,27.4677613 74.4288499,29.5323044 C76.7570646,31.6400855 79.5494899,31.8755065 80.680572,31.8755065 C80.9205025,31.8755065 81.0857615,31.8650286 81.1557909,31.8593255 C83.9435741,31.8530918 86.3371762,30.8570286 88.4730752,28.8149002 L88.9815846,28.3288055 L86.0365004,25.9145128 L85.6395341,26.2592223 C84.2228962,27.4896455 82.6217678,28.1135444 80.8811109,28.1135444 C79.2363467,28.1135444 77.9303236,27.5680307 76.7545446,26.3805802 C75.6031699,25.2993676 75.0191931,23.7170728 75.0191931,21.6771992 L75.0191931,21.3027802 L87.6262225,21.2940265 C88.7071699,21.2937613 89.5863846,20.4142813 89.5863846,19.3333339 L89.5863846,17.647056 C89.5566752,14.5343255 88.6541173,12.1624749 86.8264541,10.3951592 C85.0261131,8.65662442 82.8819909,7.796376 80.2642415,7.76573811" id="Fill-7" fill="#FFFFFF"></path>
                <path d="M11.9250246,35.9826291 C12.1989088,35.951328 12.3424162,35.9700291 12.3471909,35.9706922 C14.1808225,35.9547764 15.5050162,36.9076017 16.9288162,37.6086922 C20.9275257,39.5778733 23.7532415,39.4789301 23.7532415,39.4789301 C28.8084941,39.4789301 31.0177383,36.0488122 31.5973383,34.9462459 L31.6277109,34.8735638 L30.0581488,33.7727217 L29.8480604,34.0381175 C27.9388288,36.8424796 24.5665383,36.7597175 24.5665383,36.7597175 C22.9411383,36.7042775 21.4087131,36.0862143 19.7867615,35.4319427 C17.8588288,34.6543238 15.6738562,33.7728543 13.0171131,33.7602543 C13.0171131,33.7602543 10.5991067,33.6415491 8.01451516,35.5080733 L9.04134884,37.153368 C10.1026667,36.2290585 11.3669109,36.0259996 11.9250246,35.9826291" id="Fill-12" fill="#FF5300"></path>
                <path d="M27.7155701,15.9467059 C27.7155701,22.5086533 22.3772817,27.8474722 15.8154669,27.8474722 C9.25232589,27.8474722 3.91257853,22.5086533 3.91257853,15.9467059 C3.91257853,9.38369747 9.25232589,4.04448063 15.8154669,4.04448063 C22.3772817,4.04448063 27.7155701,9.38369747 27.7155701,15.9467059 M31.6276712,15.9467059 C31.6276712,7.22671011 24.5344017,0.132644842 15.8154669,0.132644842 C7.094808,0.132644842 -5.30526316e-05,7.22671011 -5.30526316e-05,15.9467059 C-5.30526316e-05,24.6667017 7.094808,31.7607669 15.8154669,31.7607669 C24.5344017,31.7607669 31.6276712,24.6667017 31.6276712,15.9467059" id="Fill-9" fill="#FF5300"></path>
            </g>
        </g>
    </g>
</svg>