<?xml version="1.0" encoding="UTF-8"?>
<svg width="132px" height="50px" viewBox="0 0 132 50" version="1.1" xmlns="http://www.w3.org/2000/svg" xmlns:xlink="http://www.w3.org/1999/xlink">
    <!-- Generator: Sketch 51.3 (57544) - http://www.bohemiancoding.com/sketch -->
    <title>qrvey white copy</title>
    <desc>Created with Sketch.</desc>
    <defs>
        <polygon id="path-1" points="24.2639308 38.5420389 24.2639308 0.513393668 0.210835253 0.513393668 0.210835253 38.5420389 24.2639308 38.5420389"></polygon>
        <polygon id="path-3" points="41.0322552 0.501520155 0 0.501520155 0 42.7026542 41.0322552 42.7026542 41.0322552 0.501520155"></polygon>
    </defs>
    <g id="Page-1" stroke="none" stroke-width="1" fill="none" fill-rule="evenodd">
        <g id="Company-Mobile" transform="translate(-94.000000, -5066.000000)">
            <g id="Group-13" transform="translate(0.000000, 4635.000000)">
                <g id="qrvey-white-copy" transform="translate(94.000000, 431.000000)">
                    <path d="M43.6271186,40.2711864 L43.6271186,22.2190386 C43.6271186,19.2277363 44.6933263,16.4015347 46.6351661,14.2672652 C48.6023783,12.1089186 51.2411154,10.9067797 54.0523852,10.9067797 L54.5338983,10.9067797 L54.5338983,14.3417898 L54.0523852,14.3417898 C50.204227,14.3417898 47.0050403,17.8375662 47.0050403,22.2190386 L47.0050403,40.2711864 L43.6271186,40.2711864 Z" id="Fill-1" fill="#FFFFFF"></path>
                    <polygon id="Fill-3" fill="#FFFFFF" points="68.5972743 40.2711864 57.8898305 10.9067797 61.4687047 10.9067797 70.0550847 34.4364883 78.6308034 10.9067797 82.220339 10.9067797 71.5128952 40.2711864"></polygon>
                    <path d="M88.2214335,22.7418659 C88.7356371,22.6661874 88.9388521,22.6805205 88.9796024,22.6816671 L95.2117078,22.6816671 C97.4492175,22.6816671 99.2465175,22.1175183 100.430955,21.1205113 C101.379471,20.3235937 101.863112,19.3168402 101.863112,18.280274 C101.863112,16.5046958 100.287793,14.3461384 96.302849,14.3409785 C92.4728629,14.3461384 89.179064,17.877802 88.2214335,22.7418659 M87.9983795,35.8445672 C86.5211834,33.9147653 85.5190493,31.5389189 85.0429149,28.9887826 C85.0354083,28.9509433 84.7372881,27.6454891 84.7372881,25.5889831 C84.7372881,21.7374058 85.8970613,18.0956644 88.0219718,15.3293857 C89.0750437,13.9620127 90.3120279,12.8778607 91.6986083,12.1159158 C93.1388075,11.3218648 94.6840994,10.9067797 96.2755035,10.9067797 C98.9719896,10.9067797 101.074916,11.6434984 102.676508,13.0504307 C104.211076,14.3994574 105.075946,16.2633272 105.075946,18.280274 C105.075946,20.3964056 104.093115,22.4110591 102.415385,23.8220046 C100.609506,25.3424546 98.1103365,26.1152927 95.2117078,26.1152927 L88.9399245,26.1152927 C88.9007828,26.1152927 88.5281326,26.1611584 88.4166056,26.2735295 C87.9259942,26.7700264 88.0766629,27.5680906 88.0766629,27.5680906 L88.0809524,27.5835703 L88.0836333,27.6030633 C88.8021243,32.9217716 92.2825163,36.8375609 96.3119642,36.8375609 C98.9955818,36.8375609 100.985909,35.8978861 102.175173,34.1939731 L103.135484,32.8180003 L105.711864,34.8710664 L104.750481,36.2476126 C103.46095,38.0954294 100.922639,40.2711864 96.3119642,40.2711864 C93.1296923,40.2711864 90.1731554,38.6836578 87.9983795,35.8445672" id="Fill-5" fill="#FFFFFF"></path>
                    <g id="Group-9" transform="translate(107.389831, 10.906780)">
                        <mask id="mask-2" fill="white">
                            <use xlink:href="#path-1"></use>
                        </mask>
                        <g id="Clip-8"></g>
                        <path d="M24.2640958,0.513393668 L12.7481896,31.6865859 C12.0683243,33.6496599 10.8615084,35.3544787 9.26305482,36.5856439 C7.60354541,37.862449 5.63930672,38.5420389 3.59201005,38.5420389 L1.9935565,38.5420389 L1.9935565,35.3054992 L3.59201005,35.3054992 C6.27956822,35.3054992 8.75260579,33.4537421 9.74215084,30.5806523 L9.86426257,30.1721191 C10.066132,29.5787999 10.035329,28.3337201 9.67339424,26.70571 C9.37966602,25.3849347 8.99517909,24.3196317 8.99517909,24.3196317 L0.210835253,0.513393668 L3.63711439,0.513393668 L11.991867,23.1953307 C11.991867,23.1953307 12.1194792,23.5571107 12.2195888,23.864902 L20.8328662,0.513393668 L24.2640958,0.513393668 Z" id="Fill-7" fill="#FFFFFF" mask="url(#mask-2)"></path>
                    </g>
                    <path d="M19.1856542,6.3780392 C19.1856542,5.63654071 19.7844714,5.03390168 20.5259948,5.03390168 C21.2697137,5.03225513 21.8701776,5.63269875 21.8712753,6.37529494 C21.8740196,7.11624457 21.2735558,7.72053015 20.5314835,7.72053015 L20.5287392,7.72053015 C19.786118,7.72053015 19.1867519,7.12063538 19.1856542,6.3780392 M23.5755168,8.05368306 C22.8526549,7.88957644 22.3976417,7.17112972 22.5612049,6.44774335 C22.7236705,5.72545467 23.4421413,5.26990786 24.1661009,5.43511219 L24.1644543,5.43511219 C24.8884139,5.59647455 25.3450738,6.31601897 25.1809616,7.03830764 C25.0404509,7.66290074 24.4855433,8.08551645 23.8719066,8.08551645 C23.7753055,8.08551645 23.6732156,8.07508827 23.5755168,8.05368306 M15.8787122,7.05422434 C15.7146,6.33248451 16.1657712,5.61239125 16.8897308,5.44773577 C17.610946,5.27978719 18.333259,5.73204089 18.4984689,6.45487842 C18.6636788,7.1793625 18.2125076,7.89890691 17.488548,8.06411124 C17.3881048,8.08551645 17.286015,8.09923774 17.1877672,8.09923774 C16.5741305,8.09923774 16.0208695,7.67771973 15.8787122,7.05422434 M26.4647687,9.05917915 C25.796245,8.73974753 25.5152235,7.93567997 25.8363125,7.2666299 C26.1574014,6.59812868 26.9587517,6.31601897 27.6278243,6.63599944 C28.296348,6.95817531 28.5784672,7.76114517 28.258476,8.42909754 C28.0279505,8.91153807 27.5454938,9.19200123 27.0449243,9.19200123 C26.851722,9.19200123 26.6513845,9.14919081 26.4647687,9.05917915 M12.8077843,8.45599127 C12.483951,7.7891366 12.7649724,6.98452019 13.4307518,6.66289316 C14.0992755,6.33797303 14.903919,6.61733848 15.2261057,7.28529085 C15.5482924,7.95434092 15.2705642,8.75731078 14.6031382,9.07948666 C14.413778,9.17059602 14.2150871,9.21340644 14.0174939,9.21340644 C13.5180221,9.21340644 13.0388586,8.93294329 12.8077843,8.45599127 M29.0587285,10.6854264 L29.0587285,10.6854264 C28.4791217,10.2232933 28.3819717,9.37751306 28.8457669,8.79737695 C29.3073666,8.21778968 30.1520776,8.12228951 30.7322332,8.58497139 C31.3123889,9.04436016 31.40899,9.88904273 30.9457437,10.4702766 C30.6822861,10.8034295 30.2903928,10.9779643 29.8957553,10.9779643 C29.6026587,10.9779643 29.3073666,10.8824641 29.0587285,10.6854264 M10.1292985,10.5043053 C9.66275898,9.92526694 9.75716462,9.08223091 10.3356736,8.61735363 L10.3356736,8.61625593 C10.9158293,8.15247634 11.7588937,8.24687881 12.2248843,8.82591723 C12.6881306,9.40440679 12.5926273,10.2501871 12.0141182,10.7145155 C11.7671267,10.9110044 11.4718346,11.0076022 11.1759937,11.0076022 C10.7813561,11.0076022 10.3922073,10.838556 10.1292985,10.5043053 M31.2300584,12.8468039 C30.766812,12.2677655 30.8595711,11.4236317 31.4380801,10.9609499 C32.0154914,10.494426 32.861849,10.5888285 33.3250953,11.1662204 C33.7894394,11.7458076 33.6955826,12.5915879 33.1181713,13.0564652 C32.8695332,13.2535029 32.5731433,13.3506496 32.2800467,13.3506496 C31.8854092,13.3506496 31.4946137,13.1788591 31.2300584,12.8468039 M7.96455507,13.0965313 C7.38439944,12.6343983 7.28779831,11.788618 7.74939802,11.211775 C8.21154659,10.6288947 9.05735532,10.5322968 9.63751096,10.993881 C10.2176666,11.456014 10.3142677,12.3034408 9.85211914,12.8841258 C9.58646604,13.216181 9.19567057,13.3890692 8.80103301,13.3890692 C8.50683867,13.3890692 8.20989998,13.2930202 7.96455507,13.0965313 M32.8656911,15.4329925 L32.8656911,15.4329925 C32.5435044,14.7666867 32.8212326,13.9615214 33.4875608,13.641541 C34.1544379,13.3171697 34.9590814,13.593242 35.2829147,14.2622921 C35.6072969,14.9307933 35.3284709,15.7337632 34.661045,16.0575856 C34.4716848,16.148695 34.2729939,16.1915054 34.0743029,16.1915054 C33.5775755,16.1915054 33.0978631,15.9137865 32.8656911,15.4329925 M6.43101218,16.1047868 C5.7619396,15.7820621 5.48036927,14.9790923 5.80255598,14.3133353 C6.12364495,13.641541 6.92664182,13.3616267 7.59626327,13.6849002 C8.26368924,14.0048807 8.5447107,14.8073017 8.22471947,15.4758029 C7.99254744,15.9565969 7.5133839,16.2376089 7.01391216,16.2376089 C6.81631895,16.2376089 6.62037234,16.1947985 6.43101218,16.1047868 M33.8832961,18.3199518 C33.7158908,17.5960166 34.1681597,16.8753745 34.8921193,16.7112678 C35.6144322,16.544417 36.3340009,16.9961218 36.5003085,17.7184105 C36.667165,18.4406992 36.2143472,19.1629878 35.4920342,19.3270944 C35.3910421,19.3528905 35.2895012,19.3616721 35.1901557,19.3616721 C34.5776167,19.3616721 34.0260023,18.9428983 33.8832961,18.3199518 M5.61209808,19.3803331 C4.88704075,19.2167753 4.43147862,18.4972309 4.5966885,17.7721979 C4.76080064,17.0493604 5.47762492,16.5954601 6.20268224,16.7595668 C6.92499521,16.9220268 7.38165509,17.6410224 7.21644521,18.3644088 C7.07538561,18.988453 6.5221246,19.409971 5.90739016,19.409971 C5.80914242,19.409971 5.7086992,19.4017383 5.61209808,19.3803331 M34.230182,21.3946183 L34.230182,21.3770551 L34.230182,21.3627849 C34.225791,20.6196399 34.8273526,20.0186474 35.568876,20.0159032 C36.3109483,20.0142566 36.9141565,20.6136025 36.9152542,21.3572964 L36.9152542,21.3611384 L36.9152542,21.3946183 C36.9152542,22.1344703 36.3136927,22.7360116 35.5716204,22.7360116 C34.830097,22.7360116 34.230182,22.1344703 34.230182,21.3946183 M4.19491563,21.4138281 C4.19436676,20.6695854 4.79263511,20.0680441 5.53690288,20.0680441 C6.27787744,20.0680441 6.879439,20.6668411 6.88218335,21.4110839 C6.88218335,22.150387 6.28062179,22.7535748 5.53800062,22.7535748 C4.79812381,22.7563191 4.19491563,22.1531312 4.19491563,21.4138281 M34.9014501,26.0444889 C34.1774905,25.8803823 33.723575,25.1597402 33.8887848,24.4369026 C34.0539947,23.7135162 34.7735633,23.2612626 35.4958763,23.4220761 C36.2214825,23.5883781 36.6721048,24.3084714 36.5085415,25.0318577 C36.3674819,25.6548043 35.8131232,26.0785177 35.1994865,26.0785177 C35.100141,26.0785177 35.0018933,26.0675407 34.9014501,26.0444889 M4.60382381,25.0505187 C4.43971167,24.3271323 4.89198058,23.6075879 5.61594017,23.4423836 C6.33825314,23.2755327 7.05782176,23.7283352 7.22467826,24.4522705 C7.38824153,25.1756569 6.93707035,25.8957501 6.21365964,26.0604056 C6.11266755,26.0834574 6.01222434,26.0944344 5.91287886,26.0944344 C5.30033989,26.0944344 4.74598115,25.6723675 4.60382381,25.0505187 M33.5045758,29.1180577 C32.8376987,28.7958819 32.5583239,27.992912 32.878864,27.3238619 C33.1999529,26.6564584 34.0029498,26.3765441 34.6731201,26.6981711 C35.3405461,27.020347 35.6210187,27.8233169 35.2999297,28.4923669 C35.0688554,28.9726121 34.5880453,29.2492333 34.0891224,29.2492333 C33.8926269,29.2492333 33.6944848,29.2091671 33.5045758,29.1180577 M5.81847321,28.5082836 L5.81847321,28.5082836 C5.49518876,27.8397824 5.77566135,27.0368125 6.44308732,26.7146367 C7.11051329,26.3908142 7.91351016,26.6718262 8.23569687,27.3375832 L8.23569687,27.3386809 C8.56062794,28.0071821 8.28125308,28.8090543 7.61272937,29.1328767 C7.42446695,29.2239861 7.22467826,29.2667965 7.02873165,29.2667965 C6.52871104,29.2667965 6.05119411,28.9874311 5.81847321,28.5082836 M31.4600349,31.8046862 C30.880977,31.3414555 30.7860225,30.4951263 31.2476222,29.9155391 C31.7108685,29.335403 32.5555795,29.2415493 33.1357351,29.7031335 C33.7158908,30.1680108 33.8108453,31.0110468 33.3492456,31.5911829 C33.0819459,31.9243358 32.6911504,32.0983218 32.2965128,32.0983218 C32.0039651,32.0983218 31.7081242,32.0022728 31.4600349,31.8046862 M7.77135282,31.6043554 L7.7735483,31.6043554 C7.30920424,31.0269635 7.40196328,30.178439 7.98157004,29.7179525 C8.56227455,29.2547218 9.40643667,29.3491242 9.86968298,29.9287115 C10.3329293,30.5061034 10.2374259,31.3507859 9.6605635,31.8140167 C9.41192537,32.0127009 9.11498668,32.1082011 8.82243894,32.1082011 C8.42615478,32.1082011 8.03700592,31.9375083 7.77135282,31.6043554 M28.8710149,33.9699057 C28.4077686,33.3903184 28.5043697,32.5472824 29.0834276,32.0824051 C29.6619366,31.6191744 30.5077454,31.7146745 30.9709917,32.2948107 C31.4325914,32.8733002 31.3392835,33.7201782 30.758579,34.1812135 C30.5121363,34.3798978 30.2162954,34.4748491 29.9210033,34.4748491 C29.5263657,34.4748491 29.1383146,34.3008632 28.8710149,33.9699057 M10.3625683,34.190544 C9.78131491,33.7289598 9.68690926,32.8842772 10.1518022,32.3041411 C10.6123041,31.7245539 11.4570151,31.6290537 12.0371708,32.0906379 C12.6184241,32.5538686 12.7122809,33.3980023 12.2490346,33.9786873 C11.9861259,34.3118402 11.5936838,34.4830819 11.1990462,34.4830819 C10.9048519,34.4830819 10.6095598,34.3892283 10.3625683,34.190544 M25.8686958,35.5077878 C25.5448625,34.8403843 25.8258839,34.0379633 26.492761,33.7152385 C27.1618336,33.3903184 27.9631839,33.6718793 28.2870172,34.3392828 C28.6092039,35.0066863 28.3298291,35.8096562 27.6613054,36.1323809 C27.4730429,36.2234902 27.274352,36.2663007 27.0784054,36.2663007 C26.5789336,36.2663007 26.0997701,35.9869352 25.8686958,35.5077878 M13.4631351,36.1417114 C12.7968069,35.8184378 12.5163343,35.0165656 12.8357767,34.3491621 C13.1585123,33.680112 13.9609603,33.4007466 14.6300328,33.7201782 C15.2985566,34.0440006 15.5779314,34.8458728 15.2568424,35.5116297 C15.0257681,35.995168 14.5466046,36.2745334 14.0454863,36.2745334 C13.8511863,36.2745334 13.6519464,36.2333696 13.4631351,36.1417114 M22.594686,36.3338094 C22.430025,35.6115207 22.8822939,34.8886832 23.6062535,34.7262231 C24.3285665,34.5615677 25.0497817,35.0138214 25.2144427,35.73611 C25.3796526,36.4600453 24.9257371,37.1806874 24.2023264,37.344794 L24.2023264,37.3458917 C24.1029809,37.3672969 24.0036354,37.3804694 23.9015456,37.3804694 C23.2906532,37.3804694 22.7357456,36.9567559 22.594686,36.3338094 M16.9243096,37.348636 C16.2008989,37.1850782 15.7480811,36.4649849 15.9121933,35.739952 C16.0757565,35.0193099 16.7942274,34.5637631 17.5192847,34.7289674 C18.2432443,34.8914275 18.6955132,35.614265 18.53195,36.3360048 C18.3892438,36.9595002 17.8376294,37.3821159 17.2228949,37.3821159 C17.1246472,37.3821159 17.0253017,37.3727854 16.9243096,37.348636 M19.2207819,36.4100998 C19.2196841,35.6702479 19.8206968,35.0665111 20.563318,35.0665111 C21.3042925,35.0665111 21.9047564,35.6675036 21.9075007,36.4090021 C21.9075007,37.152696 21.3059392,37.751493 20.563318,37.7542373 C19.8234412,37.7542373 19.2207819,37.152696 19.2207819,36.4100998" id="Fill-10" fill="#FFFFFF"></path>
                    <g id="Group-14">
                        <mask id="mask-4" fill="white">
                            <use xlink:href="#path-3"></use>
                        </mask>
                        <g id="Clip-13"></g>
                        <path d="M18.917078,2.11709946 C18.9159871,1.22625605 19.6163247,0.503147011 20.4835652,0.501464057 C21.3491693,0.500342088 22.0511432,1.2206462 22.0555067,2.11261158 C22.0555067,3.00233302 21.3546237,3.72656403 20.4873832,3.72824698 C19.6217791,3.72936895 18.917078,3.00794287 18.917078,2.11709946 M24.9866704,4.3251345 C24.1488834,4.09569184 23.6514473,3.21214123 23.8728936,2.34878606 C24.0954308,1.48991877 24.9533989,0.97661794 25.7917313,1.20549962 C26.6284275,1.43494229 27.1269544,2.31568797 26.9055081,3.17792117 C26.7189696,3.90271316 26.085175,4.38011099 25.3913826,4.38011099 C25.2577512,4.38011099 25.1213926,4.35823259 24.9866704,4.3251345 M14.0676221,3.19979957 C13.8423577,2.33924932 14.3387029,1.45401576 15.175399,1.22345113 C16.0120952,0.992886491 16.8727904,1.50057748 17.0986002,2.36224969 C17.3222283,3.22167796 16.8264285,4.10859448 15.9891869,4.33915912 C15.8533738,4.37730606 15.7170153,4.39637954 15.582293,4.39637954 C14.8901369,4.39637954 14.2563423,3.92066467 14.0676221,3.19979957 M29.1794235,6.10345541 C28.4267242,5.65803371 28.1692792,4.67126195 28.6028995,3.89990824 C29.0337925,3.12855454 29.9932114,2.86208689 30.7448198,3.30694761 C31.4947919,3.75124735 31.7522368,4.73970206 31.3207984,5.50937281 C31.0300819,6.02996644 30.5015561,6.3177515 29.9599399,6.3177515 C29.6959497,6.3177515 29.423778,6.24931139 29.1794235,6.10345541 M9.66214961,5.54639779 C9.22525678,4.77504408 9.48052001,3.78715035 10.2288558,3.34116767 C10.9788279,2.89238006 11.9398831,3.15604278 12.3745942,3.92459156 C12.8098507,4.69706724 12.5545875,5.68327801 11.8046154,6.13262661 C11.5580791,6.27960455 11.2859074,6.35084958 11.0175537,6.34804466 C10.4786647,6.34804466 9.9517752,6.06250354 9.66214961,5.54639779 M32.7820167,8.93923213 L32.7820167,8.93923213 C32.1684032,8.31036849 32.165676,7.28993766 32.7781987,6.6582691 C33.389085,6.02716152 34.3823208,6.0243566 34.9959344,6.65434221 C35.6106388,7.28264486 35.6122751,8.30475865 34.9997524,8.93474425 C34.6943092,9.25226149 34.2912333,9.41102011 33.8881574,9.40821518 C33.4894449,9.40821518 33.086369,9.25506641 32.7820167,8.93923213 M5.99246796,8.98298892 C5.3799453,8.35132036 5.37721812,7.33369445 5.98974079,6.69922097 C6.60062715,6.07091831 7.5949538,6.06811339 8.20747646,6.69641604 C8.8227263,7.32808461 8.8227263,8.34907642 8.21183994,8.980184 C7.90312415,9.29601828 7.50277541,9.4547769 7.09969949,9.4547769 C6.69989619,9.4547769 6.29954745,9.2988232 5.99246796,8.98298892 M35.5522773,12.6333152 C35.1170208,11.8653274 35.3706477,10.8751897 36.1206198,10.428085 C36.8705919,9.9798584 37.8300107,10.2423992 38.2652673,11.0137529 L38.2652673,11.0109479 C38.6999784,11.7823016 38.4463514,12.7707564 37.6980156,13.218422 C37.4482068,13.3665219 37.1787622,13.4377669 36.9104086,13.4377669 C36.3704287,13.4377669 35.84463,13.1511039 35.5522773,12.6333152 M3.30784057,13.2762034 C2.5567776,12.8313427 2.2987872,11.842888 2.73295287,11.0720953 C3.1665731,10.2990586 4.12599195,10.0370788 4.87705491,10.4802566 C5.62702701,10.9262393 5.88338111,11.9118891 5.45085175,12.6843647 C5.16122616,13.2032754 4.63270037,13.4921824 4.08944785,13.4921824 C3.82545768,13.4921824 3.55437685,13.4226204 3.30784057,13.2762034 M37.2960306,16.9371883 L37.2976669,16.9371883 C37.0734934,16.0783211 37.5671114,15.1919655 38.4038076,14.9614009 C39.2405037,14.7274703 40.101199,15.2368443 40.3275542,16.0990775 C40.553364,16.9590667 40.0581097,17.8431783 39.2203226,18.0748649 C39.0828732,18.1152558 38.9454238,18.1326463 38.8107015,18.1326463 C38.1196363,18.1326463 37.4858417,17.6580534 37.2960306,16.9371883 M1.80026029,18.1382562 C0.961927848,17.9088135 0.465582678,17.0252629 0.687028985,16.1658346 C0.908475291,15.3030405 1.76807967,14.7908616 2.60586669,15.0214262 C3.44529,15.2491859 3.94272604,16.1344195 3.72018886,16.9949697 C3.53201405,17.7169568 2.89931031,18.1915497 2.20442708,18.1915497 C2.06970482,18.1915497 1.93607342,18.1764031 1.80026029,18.1382562 M37.8938265,21.6034575 L37.8938265,21.5798962 L37.8938265,21.5619447 C37.8927357,20.6699793 38.5930732,19.9479922 39.4608591,19.9457483 C40.3275542,19.9423824 41.0311644,20.6638085 41.0311644,21.5540909 L41.0311644,21.5798962 L41.0311644,21.6034575 L41.0322552,21.6034575 C41.0322552,22.4943009 40.3302813,23.215727 39.4630409,23.215727 C38.5974367,23.215727 37.8938265,22.4943009 37.8938265,21.6034575 M-0.000218173701,21.623653 C-0.00130904221,20.7339315 0.700664841,20.0113835 1.566269,20.0091395 C2.4340549,20.0091395 3.13548335,20.7305656 3.13711965,21.623092 C3.13711965,22.5116915 2.43678207,23.2376054 1.56899617,23.2376054 C0.704482881,23.2376054 0.00141812906,22.5161793 -0.000218173701,21.623653 M38.4185343,28.2045623 C37.5818381,27.9739977 37.0844021,27.0893251 37.3069393,26.2282139 C37.5300219,25.3665417 38.391808,24.8571677 39.2285042,25.0849274 C40.0646549,25.316614 40.5626363,26.2012866 40.3395537,27.0629588 C40.1519243,27.782141 39.5181297,28.2600998 38.8243374,28.2600998 C38.6890697,28.2600998 38.5521657,28.2387824 38.4185343,28.2045623 M0.699028538,27.0848372 L0.699028538,27.0848372 C0.47485506,26.223165 0.97120023,25.3396144 1.80789637,25.1056839 C2.64459252,24.8751192 3.50528777,25.3861761 3.73055212,26.2478483 C3.95472559,27.1083986 3.45838042,27.9936321 2.62222971,28.2236358 C2.48587115,28.2617827 2.34733085,28.2786123 2.21369946,28.2786123 C1.52099796,28.2786123 0.886112487,27.8040194 0.699028538,27.0848372 M36.1446189,32.7418051 C35.3935559,32.2941394 35.1388381,31.3090506 35.5708221,30.5376969 C36.0044423,29.7635383 36.9654974,29.5004365 37.7149241,29.9475412 C38.4638053,30.3935239 38.7212503,31.3802956 38.2865392,32.1516493 C37.9952773,32.6688771 37.4694787,32.9589061 36.9289533,32.9589061 C36.6595088,32.9589061 36.3900643,32.887661 36.1446189,32.7418051 M2.75531567,32.1707228 C2.32060457,31.4010521 2.57532237,30.4114754 3.32529447,29.9671756 C4.07526656,29.51951 5.03468541,29.7814898 5.46939651,30.5539655 C5.90465305,31.3230752 5.64938982,32.310408 4.89832685,32.7580736 C4.65179057,32.9067345 4.38234605,32.9768576 4.11508326,32.9768576 C3.57346705,32.9768576 3.04603213,32.6868286 2.75531567,32.1707228 M32.808743,36.5211577 C32.1951295,35.8900501 32.1951295,34.8701803 32.808743,34.2379508 C33.4185385,33.6090871 34.413956,33.6090871 35.0253878,34.2379508 C35.6390013,34.8690583 35.6390013,35.8872452 35.0253878,36.5183528 C34.7210355,36.8341871 34.3190504,36.9935067 33.9176108,36.9935067 C33.5145349,36.9935067 33.1141862,36.8341871 32.808743,36.5211577 M6.02028511,36.5351823 C5.40667157,35.9063187 5.40667157,34.882522 6.01919424,34.2542193 C6.63062604,33.6225507 7.62277094,33.6225507 8.23692991,34.2514144 C8.85054345,34.880839 8.85054345,35.9012698 8.23802078,36.5340604 C7.93148673,36.8504556 7.53113799,37.0069703 7.12806208,37.0069703 C6.72498616,37.0069703 6.32627372,36.8504556 6.02028511,36.5351823 M28.6388981,39.2879333 C28.204187,38.5165796 28.4589048,37.5286859 29.2099678,37.0810203 C29.9615762,36.6367205 30.9204496,36.9003833 31.3546153,37.671176 C31.7882355,38.4425297 31.5318814,39.4281795 30.7830002,39.8758451 L30.7819093,39.8758451 C30.5348276,40.0205791 30.2653831,40.0918242 29.9970294,40.0918242 C29.4570495,40.0918242 28.9296146,39.8040391 28.6388981,39.2879333 M10.2664908,39.8865038 C9.51651867,39.4416431 9.2590737,38.4531884 9.6937848,37.6812737 C10.127405,36.90992 11.0873693,36.6479402 11.8373414,37.09224 C12.5878589,37.5382226 12.844213,38.5249944 12.4105928,39.2963481 C12.1198764,39.8135758 11.5940777,40.1030438 11.0524615,40.1030438 C10.7851987,40.1030438 10.5146634,40.0346037 10.2664908,39.8865038 M23.9127103,40.8441044 C23.6885369,39.9869201 24.1876092,39.1000035 25.022669,38.8711219 C25.8599106,38.6399962 26.7216967,39.1510531 26.9442339,40.0099204 C27.1700437,40.8715926 26.6709714,41.7557042 25.8359115,41.9862689 C25.6995529,42.0232938 25.5604672,42.0440503 25.4284721,42.0440503 C24.7357706,42.0440503 24.101976,41.5660915 23.9127103,40.8441044 M15.2195792,41.9941226 C14.3817922,41.764119 13.8838107,40.8800074 14.1079842,40.0183352 C14.3294305,39.157224 15.1901258,38.6456061 16.0268219,38.8761707 L16.0268219,38.8733658 C16.8646089,39.1044914 17.3625904,39.988042 17.1384169,40.8497142 C16.9529693,41.5700183 16.3191747,42.0479772 15.6221097,42.0479772 C15.4890237,42.0479772 15.3543015,42.0300257 15.2195792,41.9941226 M18.9568947,41.0914986 C18.9558038,40.1995332 19.6588686,39.4764241 20.5250182,39.4764241 C21.3922587,39.4764241 22.0942325,40.1967283 22.0969597,41.0903766 C22.0969597,41.980659 21.3922587,42.7026461 20.5277454,42.7026461 C19.6599595,42.705451 18.9568947,41.982342 18.9568947,41.0914986" id="Fill-12" fill="#EE7E3C" mask="url(#mask-4)"></path>
                    </g>
                    <path d="M11.7457627,44.4639219 L12.2531087,45.0978617 C12.2531087,45.0978617 14.1842792,44.0284826 16.1024269,44.0818369 C17.6342319,44.123717 19.0906134,44.6125105 20.437929,45.3675013 C22.3908041,46.4649917 24.2329856,47.7437717 26.3063215,48.5871125 C26.8787814,48.8206089 27.4599231,49.0219781 28.050832,49.1826144 C28.6932894,49.3530037 29.3514827,49.4797916 30.0151021,49.496429 C33.5079215,49.5945319 37.5232802,47.6720591 39.4322034,43.6395132 L38.6785097,42.9591036 C38.6785097,42.9591036 36.3300675,46.9859124 31.5642709,46.8103599 C26.7963037,46.6393969 22.9160565,42.8191205 16.9282885,42.7881406 C16.9282885,42.7881406 14.0632758,42.7726507 11.7457627,44.4639219" id="Fill-15" fill="#EE7E3C"></path>
                </g>
            </g>
        </g>
    </g>
</svg>