
<svg width="26px" height="25px" viewBox="0 0 26 25" version="1.1" xmlns="http://www.w3.org/2000/svg" xmlns:xlink="http://www.w3.org/1999/xlink">
    <!-- Generator: Sketch 51.3 (57544) - http://www.bohemiancoding.com/sketch -->
    <desc>Created with Sketch.</desc>
    <defs></defs>
    <g id="Page-1" stroke="none" stroke-width="1" fill="none" fill-rule="evenodd">
        <g id="Documents-SITE" transform="translate(-264.000000, -698.000000)" fill="#000000">
            <g id="Group-7" transform="translate(264.000000, 698.000000)">
                <g id="Group-3">
                    <path d="M13.392027,19.4155314 C13.392027,19.8772679 13.0175528,20.252056 12.5555025,20.252056 C12.0940799,20.252056 11.7192918,19.8772679 11.7192918,19.4155314 C11.7192918,18.9534811 12.0940799,18.5790068 12.5555025,18.5790068 C13.0175528,18.5790068 13.392027,18.9534811 13.392027,19.4155314 Z M16.3853097,19.4155314 C16.3853097,19.8772679 16.0111494,20.252056 15.5487851,20.252056 C15.0870487,20.252056 14.7128884,19.8772679 14.7128884,19.4155314 C14.7128884,18.9534811 15.0870487,18.5790068 15.5487851,18.5790068 C16.0111494,18.5790068 16.3853097,18.9534811 16.3853097,19.4155314 Z M10.3987443,19.4155314 C10.3987443,19.8772679 10.0242701,20.252056 9.56253365,20.252056 C9.1007972,20.252056 8.72600908,19.8772679 8.72600908,19.4155314 C8.72600908,18.9534811 9.1007972,18.5790068 9.56253365,18.5790068 C10.0242701,18.5790068 10.3987443,18.9534811 10.3987443,19.4155314 Z M7.40577554,19.4155314 C7.40577554,19.8772679 7.03098742,20.252056 6.56925096,20.252056 C6.10720061,20.252056 5.73272638,19.8772679 5.73272638,19.4155314 C5.73272638,18.9534811 6.10720061,18.5790068 6.56925096,18.5790068 C7.03098742,18.5790068 7.40577554,18.9534811 7.40577554,19.4155314 Z M19.3789063,19.4155314 C19.3789063,19.8772679 19.0044321,20.252056 18.5423817,20.252056 C18.0806453,20.252056 17.7058572,19.8772679 17.7058572,19.4155314 C17.7058572,18.9534811 18.0806453,18.5790068 18.5423817,18.5790068 C19.0044321,18.5790068 19.3789063,18.9534811 19.3789063,19.4155314 Z M12.5614664,11.7163664 C9.76279732,11.7163664 7.48581823,9.44001507 7.48581823,6.64228765 C7.48581823,3.84361856 9.76279732,1.56695336 12.5614664,1.56695336 C15.3598216,1.56695336 17.635859,3.84361856 17.635859,6.64228765 C17.635859,9.44001507 15.3598216,11.7163664 12.5614664,11.7163664 Z M23.4824282,23.3241258 L1.64050465,23.3241258 L1.76292288,22.5462992 C2.59128624,17.2782347 7.23344834,13.3056061 12.5614664,13.3056061 C17.8885428,13.3056061 22.5310188,17.2782347 23.3590683,22.5462992 L23.4824282,23.3241258 Z M12.577475,0 C11.0127189,0 9.49724393,0.539895788 8.28907016,1.5518865 C6.76982853,2.8247222 5.89814794,4.68673489 5.89814794,6.66112123 C5.89814794,8.51183376 6.66687165,10.2420114 8.06243949,11.5330529 L8.83901052,12.2518677 L7.85903689,12.6511394 C3.57377102,14.3970117 0.604971975,18.3241258 0.111846229,22.9000565 L0.0484398634,23.487664 C0.0336868971,23.6559106 0.0173644663,23.8580576 0.00198371422,24.0862578 C-0.0140248237,24.3245025 0.0672734374,24.5520748 0.230811638,24.727541 C0.394663732,24.9026932 0.616899905,24.9993722 0.855772402,24.9993722 L24.2546047,25 C24.4937911,25 24.7160273,24.9036349 24.8795655,24.7284826 C25.0443593,24.5517609 25.1259714,24.3213636 25.1093351,24.0793521 C25.0958377,23.8794023 25.0795153,23.6788248 25.0622512,23.478875 C24.7643668,18.704564 21.7035971,14.4610459 17.2632682,12.6511394 L16.2823529,12.2518677 L17.0592378,11.5330529 C18.7850209,9.93753531 19.5311444,7.7054429 19.1070751,5.40931634 C18.6101826,2.71705694 16.4691191,0.586038044 13.7803125,0.106723586 C13.3788435,0.0351560048 12.9761189,0 12.577475,0 Z" id="Fill-1"></path>
                </g>
            </g>
        </g>
    </g>
</svg>