
<svg width="25px" height="25px" viewBox="0 0 25 25" version="1.1" xmlns="http://www.w3.org/2000/svg" xmlns:xlink="http://www.w3.org/1999/xlink">
    <!-- Generator: Sketch 51.3 (57544) - http://www.bohemiancoding.com/sketch -->
    <desc>Created with Sketch.</desc>
    <defs></defs>
    <g id="Page-1" stroke="none" stroke-width="1" fill="none" fill-rule="evenodd">
        <g id="Documents-SITE" transform="translate(-533.000000, -567.000000)" fill="#000000">
            <g id="Group-4" transform="translate(533.000000, 567.000000)">
                <g id="analytics-icon">
                    <path d="M23.534375,23.199375 C23.534375,23.35125 23.41125,23.4740625 23.2596875,23.4740625 L20.1240625,23.4740625 C19.9721875,23.4740625 19.849375,23.35125 19.849375,23.199375 L19.849375,1.800625 C19.849375,1.6490625 19.9721875,1.5259375 20.1240625,1.5259375 L23.2596875,1.5259375 C23.41125,1.5259375 23.534375,1.6490625 23.534375,1.800625 L23.534375,23.199375 Z M24.7253125,0 L18.658125,0 C18.5065625,0 18.38375,0.123125 18.38375,0.2746875 L18.38375,24.7253125 C18.38375,24.8771875 18.5065625,25 18.658125,25 L24.7253125,25 C24.8771875,25 25,24.8771875 25,24.7253125 L25,0.2746875 C25,0.123125 24.8771875,0 24.7253125,0 Z M5.1509375,23.199375 C5.1509375,23.35125 5.0278125,23.4740625 4.87625,23.4740625 L1.740625,23.4740625 C1.58875,23.4740625 1.4659375,23.35125 1.4659375,23.199375 L1.4659375,5.963125 C1.4659375,5.81125 1.58875,5.6884375 1.740625,5.6884375 L4.87625,5.6884375 C5.0278125,5.6884375 5.1509375,5.81125 5.1509375,5.963125 L5.1509375,23.199375 Z M6.3,4.163125 L0.2746875,4.163125 C0.123125,4.163125 0,4.28625 0,4.438125 L0,24.7253125 C0,24.8771875 0.123125,25 0.2746875,25 L6.3,25 C6.4515625,25 6.5746875,24.8771875 6.5746875,24.7253125 L6.5746875,4.438125 C6.5746875,4.28625 6.4515625,4.163125 6.3,4.163125 Z M14.321875,23.199375 C14.321875,23.35125 14.19875,23.4740625 14.046875,23.4740625 L10.953125,23.4740625 C10.8015625,23.4740625 10.6784375,23.35125 10.6784375,23.199375 L10.6784375,12.0990625 C10.6784375,11.9471875 10.8015625,11.8240625 10.953125,11.8240625 L14.046875,11.8240625 C14.19875,11.8240625 14.321875,11.9471875 14.321875,12.0990625 L14.321875,23.199375 Z M15.5128125,10.2990625 L9.4875,10.2990625 C9.335625,10.2990625 9.2128125,10.4221875 9.2128125,10.5740625 L9.2128125,24.7253125 C9.2128125,24.8771875 9.335625,25 9.4875,25 L15.5128125,25 C15.664375,25 15.7871875,24.8771875 15.7871875,24.7253125 L15.7871875,10.5740625 C15.7871875,10.4221875 15.664375,10.2990625 15.5128125,10.2990625 Z" id="Fill-1"></path>
                </g>
            </g>
        </g>
    </g>
</svg>