
<svg width="26px" height="25px" viewBox="0 0 26 25" version="1.1" xmlns="http://www.w3.org/2000/svg" xmlns:xlink="http://www.w3.org/1999/xlink">
    <!-- Generator: Sketch 51.3 (57544) - http://www.bohemiancoding.com/sketch -->
    <desc>Created with Sketch.</desc>
    <defs></defs>
    <g id="Page-1" stroke="none" stroke-width="1" fill="none" fill-rule="evenodd">
        <g id="Documents-SITE" transform="translate(-846.000000, -698.000000)" fill="#000000">
            <g id="Group-6" transform="translate(846.000000, 698.000000)">
                <g id="delpoyment-icon">
                    <path d="M23.6823765,22.4532099 C23.6823765,22.0485802 23.3530556,21.7192593 22.9484259,21.7192593 C22.5437963,21.7192593 22.2144753,22.0485802 22.2144753,22.4532099 C22.2144753,22.8578395 22.5437963,23.1871605 22.9484259,23.1871605 C23.3530556,23.1871605 23.6823765,22.8578395 23.6823765,22.4532099 M3.25212963,22.4532099 C3.25212963,22.0485802 2.92280864,21.7192593 2.51817901,21.7192593 C2.11354938,21.7192593 1.7842284,22.0485802 1.7842284,22.4532099 C1.7842284,22.8578395 2.11354938,23.1871605 2.51817901,23.1871605 C2.92280864,23.1871605 3.25212963,22.8578395 3.25212963,22.4532099 M25.2255864,22.4532099 C25.2255864,23.7087654 24.2039815,24.7303704 22.9484259,24.7303704 C21.9271296,24.7303704 21.0610802,24.0547531 20.7731173,23.1269753 L16.260463,23.1269753 C15.8342284,23.1269753 15.488858,22.7812963 15.488858,22.3553704 L15.488858,17.4618519 C15.488858,17.0356173 15.8342284,16.6902469 16.260463,16.6902469 L21.1746605,16.6902469 C22.9234259,16.6902469 24.3456481,15.267716 24.3456481,13.5195679 L24.3456481,13.2880864 C24.3712654,11.635 23.1098457,10.2467284 21.4737346,10.1152469 C21.0728086,10.0831481 20.763858,9.7482716 20.763858,9.34611111 L20.763858,8.85320988 C20.763858,4.82234568 17.4848457,1.54302469 13.4545988,1.54302469 L13.3876235,1.54302469 C9.90614198,1.54302469 6.97435185,3.89950617 6.25737654,7.27358025 C6.18608025,7.60938272 5.90182099,7.85753086 5.55953704,7.88283951 C3.30737654,8.04950617 1.54317901,9.94796296 1.54317901,12.2050617 L1.54317901,12.3701852 C1.54317901,14.752284 3.48145062,16.6902469 5.86385802,16.6902469 L10.1459568,16.6902469 C10.5721914,16.6902469 10.9175617,17.0356173 10.9175617,17.4618519 L10.9175617,22.3553704 C10.9175617,22.7812963 10.5721914,23.1269753 10.1459568,23.1269753 L4.6937963,23.1269753 C4.40552469,24.0547531 3.53947531,24.7303704 2.51817901,24.7303704 C1.26262346,24.7303704 0.241018519,23.7087654 0.241018519,22.4532099 C0.241018519,21.1976543 1.26262346,20.1760494 2.51817901,20.1760494 C3.46601852,20.1760494 4.27959877,20.7584568 4.62219136,21.5837654 L9.37435185,21.5837654 L9.37435185,18.2334568 L5.86385802,18.2334568 C2.63052469,18.2334568 -3.08641975e-05,15.6032099 -3.08641975e-05,12.3701852 L-3.08641975e-05,12.2050617 C-3.08641975e-05,9.33561728 2.10212963,6.89364198 4.88083333,6.41339506 C5.93361111,2.66555556 9.42496914,-0.000185185185 13.3876235,-0.000185185185 L13.4545988,-0.000185185185 C18.281142,-0.000185185185 22.2178704,3.88283951 22.3058333,8.68901235 C24.3965741,9.18808642 25.9234259,11.0908642 25.8885494,13.3001235 L25.888858,13.5195679 C25.888858,16.118642 23.7740432,18.2334568 21.1746605,18.2334568 L17.0320679,18.2334568 L17.0320679,21.5837654 L20.8447222,21.5837654 C21.1873148,20.7584568 22.0005864,20.1760494 22.9484259,20.1760494 C24.2039815,20.1760494 25.2255864,21.1976543 25.2255864,22.4532099 M15.3860802,12.4862346 L13.955216,11.0670988 L13.955216,23.7655556 C13.955216,24.1908642 13.6092284,24.5371605 13.1836111,24.5371605 C12.7583025,24.5371605 12.4120062,24.1908642 12.4120062,23.7655556 L12.4120062,11.0698765 L10.9928704,12.4865432 C10.7021296,12.777284 10.1928704,12.7775926 9.90182099,12.4862346 C9.60089506,12.1853086 9.60089506,11.6958025 9.90182099,11.3951852 L12.6725,8.63037037 C12.9675617,8.36864198 13.4493519,8.38191358 13.731142,8.66432099 L16.4765123,11.3942593 C16.7780556,11.6961111 16.7777469,12.1856173 16.4771296,12.4862346 C16.1765123,12.7871605 15.6870062,12.7871605 15.3860802,12.4862346" id="Fill-1"></path>
                </g>
            </g>
        </g>
    </g>
</svg>