
<svg width="26px" height="25px" viewBox="0 0 26 25" version="1.1" xmlns="http://www.w3.org/2000/svg" xmlns:xlink="http://www.w3.org/1999/xlink">
    <!-- Generator: Sketch 51.3 (57544) - http://www.bohemiancoding.com/sketch -->
    <desc>Created with Sketch.</desc>
    <defs></defs>
    <g id="Page-1" stroke="none" stroke-width="1" fill="none" fill-rule="evenodd">
        <g id="Documents-SITE" transform="translate(-896.000000, -567.000000)" fill="#000000">
            <g id="Group-5" transform="translate(896.000000, 567.000000)">
                <g id="data-router-icon">
                    <path d="M4.29246875,10.7997188 L9.55246875,10.8000312 C9.96746875,10.8003438 10.3040312,10.4637813 10.3043437,10.0487813 L10.3043437,10.0484688 C10.3043437,9.63346875 9.96778125,9.29690625 9.55278125,9.29690625 L4.29246875,9.29628125 C3.87746875,9.29628125 3.54090625,9.63284375 3.54090625,10.0478438 C3.54090625,10.4631563 3.87715625,10.7997188 4.29246875,10.7997188 Z M4.34059375,5.90409375 C4.75340625,5.90409375 5.08903125,5.56784375 5.08934375,5.15471875 C5.08934375,4.74128125 4.75371875,4.40503125 4.34090625,4.40503125 C3.92840625,4.40503125 3.59278125,4.74096875 3.59278125,5.15440625 C3.59278125,5.56784375 3.92809375,5.90409375 4.34059375,5.90409375 Z M23.5165313,16.5703438 C23.5165313,15.7484688 22.8487188,15.0812813 22.0271562,15.0812813 L2.98403125,15.0812813 C2.16278125,15.0812813 1.49496875,15.7484688 1.49496875,16.5703438 L1.49496875,21.9687813 C1.49496875,22.7906563 2.16278125,23.4581563 2.98403125,23.4581563 L22.0271562,23.4581563 C22.8487188,23.4581563 23.5165313,22.7906563 23.5165313,21.9687813 L23.5165313,16.5703438 Z M1.50246875,3.37909375 L1.49621875,14.0022187 C1.85278125,13.7947187 2.24996875,13.6509687 2.67996875,13.6072187 L2.72528125,13.6056562 L4.38903125,13.5919062 L6.35371875,13.5919062 L7.22371875,13.5919062 L8.70965625,13.5919062 L15.8005937,13.5919062 L17.2862187,13.5919062 L20.6355937,13.5919062 L22.2596562,13.6056562 L22.3112188,13.6053437 C22.7499687,13.6469062 23.1552812,13.7931562 23.5177812,14.0047187 L23.5240313,3.61346875 C23.5243437,2.44003125 22.8771562,1.68190625 21.8759062,1.68190625 L3.35653125,1.53534375 C2.26496875,1.53503125 1.50246875,2.29346875 1.50246875,3.37909375 Z M24.9893437,16.3987812 C24.9927812,16.4569062 25.0055937,16.5119062 25.0055937,16.5703437 L25.0055937,21.9687812 C25.0055937,23.6119062 23.6696562,24.9478437 22.0271562,24.9478437 L5.86465625,24.9831562 L4.37778125,24.9909688 L2.98403125,24.9478437 C1.34153125,24.9478437 0.00559375,23.6119062 0.00559375,21.9687812 L0.00559375,16.5703437 C0.00559375,16.5609688 0.00840625,16.5519062 0.00840625,16.5422188 L-3.125e-05,16.5422188 L0.00715625,8.50628125 L0.00715625,6.70784375 L0.00746875,3.33284375 C0.00778125,1.27690625 1.33653125,-0.00028125 3.47496875,3.125e-05 L21.8359062,0.00190625 C23.8505937,0.00190625 25.0059062,1.25534375 25.0055937,3.44096875 L25.0052812,6.72846875 L25.0052812,8.52753125 L24.9980937,16.3978437 L24.9893437,16.3987812 Z M12.2771563,9.29909375 C11.8646562,9.29909375 11.5293438,9.63534375 11.5293438,10.0487813 C11.5290312,10.4619063 11.8646562,10.7984688 12.2768438,10.7984688 C12.6896563,10.7984688 13.0255938,10.4622188 13.0255938,10.0487813 C13.0255938,9.63534375 12.6899688,9.29909375 12.2771563,9.29909375 Z M7.32996875,5.90659375 L17.2615313,5.90753125 C17.6768438,5.90753125 18.0134063,5.57096875 18.0134063,5.15565625 C18.0134063,4.74065625 17.6768438,4.40409375 17.2618438,4.40409375 L7.33028125,4.40315625 C6.91496875,4.40284375 6.57840625,4.73940625 6.57840625,5.15471875 C6.57840625,5.57003125 6.91496875,5.90659375 7.32996875,5.90659375 Z M20.1515313,9.29784375 L14.8915313,9.29721875 C14.4765313,9.29721875 14.1399688,9.63378125 14.1399688,10.0490938 C14.1399688,10.4640937 14.4762188,10.8006562 14.8915313,10.8006562 L20.1515313,10.8012813 C20.5665312,10.8012813 20.9030938,10.4647187 20.9030938,10.0497188 C20.9030938,9.63440625 20.5668438,9.29784375 20.1515313,9.29784375 Z M20.1034062,5.90565625 C20.5155937,5.90565625 20.8512187,5.56940625 20.8512187,5.15596875 C20.8512187,4.74284375 20.5159063,4.40628125 20.1034062,4.40628125 C19.6905938,4.40628125 19.3549688,4.74253125 19.3549688,5.15596875 C19.3549688,5.56940625 19.6905938,5.90565625 20.1034062,5.90565625 Z M9.92684375,17.2259688 C9.51559375,17.2387813 9.20590625,17.5647188 9.20278125,17.9900313 L9.18434375,20.5478438 C9.18153125,20.9731563 9.50059375,21.3203438 9.89778125,21.3234688 L9.90309375,21.3234688 C10.2974687,21.3234688 10.6190313,20.9828438 10.6221562,20.5597188 L10.6402813,18.0019063 C10.6434062,17.5765938 10.3237187,17.2294063 9.92684375,17.2259688 Z M20.6559063,19.3112813 C20.6559063,18.8822188 20.3074688,18.5319063 19.8762187,18.5319063 C19.4468438,18.5319063 19.0968438,18.8822188 19.0968438,19.3112813 C19.0968438,19.7406563 19.4468438,20.0909688 19.8762187,20.0909688 C20.3074688,20.0909688 20.6559063,19.7406563 20.6559063,19.3112813 Z M22.0046563,19.3112813 C22.0046563,20.4844063 21.0499688,21.4394063 19.8762187,21.4394063 C18.7030938,21.4394063 17.7484063,20.4844063 17.7484063,19.3112813 C17.7484063,18.1378438 18.7030938,17.1834688 19.8762187,17.1834688 C21.0499688,17.1834688 22.0046563,18.1378438 22.0046563,19.3112813 Z M3.78153125,17.2259688 C3.37090625,17.2387813 3.06059375,17.5647188 3.05746875,17.9900313 L3.03903125,20.5478438 C3.03590625,20.9731563 3.35528125,21.3203438 3.75215625,21.3234688 L3.75778125,21.3234688 C4.15246875,21.3234688 4.47340625,20.9828438 4.47653125,20.5597188 L4.49465625,18.0019063 C4.49778125,17.5765938 4.17871875,17.2294063 3.78153125,17.2259688 Z M7.56746875,18.0019063 L7.54934375,20.5597188 C7.54621875,20.9828438 7.22528125,21.3234688 6.83059375,21.3234688 L6.82496875,21.3234688 C6.42809375,21.3203438 6.10871875,20.9731563 6.11184375,20.5478438 L6.13028125,17.9900313 C6.13340625,17.5647188 6.47621875,17.2387813 6.85434375,17.2259688 C7.25153125,17.2294063 7.57059375,17.5765938 7.56746875,18.0019063 Z" id="Fill-1"></path>
                </g>
            </g>
        </g>
    </g>
</svg>