
<svg width="30px" height="25px" viewBox="0 0 30 25" version="1.1" xmlns="http://www.w3.org/2000/svg" xmlns:xlink="http://www.w3.org/1999/xlink">
    <!-- Generator: Sketch 51.3 (57544) - http://www.bohemiancoding.com/sketch -->
    <desc>Created with Sketch.</desc>
    <defs></defs>
    <g id="Page-1" stroke="none" stroke-width="1" fill="none" fill-rule="evenodd">
        <g id="Documents-SITE" transform="translate(-566.000000, -698.000000)" fill="#000000">
            <g id="Group-2" transform="translate(566.000000, 698.000000)">
                <g id="embedded-icon">
                    <path d="M9.67540625,12.2656562 C9.67540625,12.7234688 9.30321875,13.0956562 8.84540625,13.0956562 L7.27165625,13.0956562 L7.27134375,14.6690938 C7.27134375,15.1269062 6.89884375,15.4994062 6.44103125,15.4994062 C5.98353125,15.4994062 5.61103125,15.1269062 5.61103125,14.6690938 L5.61134375,13.0953437 L4.03759375,13.0953437 C3.81603125,13.0953437 3.60759375,13.0087813 3.45071875,12.8519062 C3.29384375,12.6953438 3.20759375,12.4869062 3.20759375,12.2650312 C3.20759375,12.0434688 3.29384375,11.8350313 3.45071875,11.6781562 C3.60759375,11.5212812 3.81603125,11.4350312 4.03759375,11.4350312 L5.61134375,11.4350312 L5.61165625,9.86159375 C5.61165625,9.63971875 5.69790625,9.43128125 5.85478125,9.27440625 C6.01228125,9.11753125 6.22040625,9.03128125 6.44165625,9.03128125 C6.89946875,9.03128125 7.27196875,9.40378125 7.27196875,9.86159375 L7.27165625,11.4350312 L8.84540625,11.4353437 C9.30321875,11.4353437 9.67540625,11.8078437 9.67540625,12.2656562 Z M27.7525937,22.0653437 C27.7525937,22.7775312 27.1710313,23.3578437 26.4569688,23.3578437 L23.8544687,23.3578437 L11.1147813,23.3578437 L8.51259375,23.3578437 C7.79821875,23.3578437 7.21665625,22.7775312 7.21665625,22.0653437 L7.21665625,18.6947187 L11.0872812,18.6984687 C12.0775937,18.6984687 12.8832187,17.8934687 12.8832187,16.9040937 L12.8832187,7.48128125 C12.8832187,6.57190625 12.1435313,5.83221875 11.2347813,5.83221875 L7.21728125,5.83221875 L7.21728125,2.60003125 C7.21728125,2.05253125 7.66134375,1.60784375 8.20790625,1.60784375 L11.3132187,1.60784375 L24.9060313,1.60784375 L26.7613437,1.60784375 C27.3079062,1.60784375 27.7519687,2.05253125 27.7519687,2.60003125 L27.7519687,6.30565625 L27.7525937,17.2890937 L27.7525937,22.0653437 Z M1.79571875,17.1390938 C1.66540625,17.1390938 1.55915625,17.0337812 1.55915625,16.9040937 L1.55946875,7.48128125 C1.55946875,7.43190625 1.59946875,7.39159375 1.64821875,7.39159375 L11.2347813,7.39159375 C11.2835312,7.39159375 11.3235312,7.43190625 11.3235312,7.48128125 L11.3238437,16.9040937 C11.3238437,17.0337812 11.2179063,17.1390938 11.0872812,17.1390938 L1.79571875,17.1390938 Z M26.7613438,3.125e-05 L24.9060312,3.125e-05 L11.3132187,3.125e-05 L8.20790625,3.125e-05 C6.77634375,3.125e-05 5.60978125,1.16565625 5.60978125,2.60003125 L5.60978125,5.83221875 L1.64821875,5.83221875 C0.73946875,5.83221875 9.375e-05,6.57190625 9.375e-05,7.48128125 L9.375e-05,16.9040938 C9.375e-05,17.8934688 0.80571875,18.6984688 1.79634375,18.6984688 L5.60978125,18.6947187 L5.60978125,22.0653438 C5.60978125,23.6637812 6.91196875,24.9656563 8.51259375,24.9656563 L18.1097813,24.9553438 L26.4569688,24.9656563 C28.0572812,24.9656563 29.3597813,23.6637812 29.3597813,22.0653438 L29.3597813,2.60003125 C29.3597813,1.16565625 28.1929063,3.125e-05 26.7613438,3.125e-05 Z" id="Fill-1"></path>
                </g>
            </g>
        </g>
    </g>
</svg>