
<svg width="27px" height="25px" viewBox="0 0 27 25" version="1.1" xmlns="http://www.w3.org/2000/svg" xmlns:xlink="http://www.w3.org/1999/xlink">
    <!-- Generator: Sketch 51.3 (57544) - http://www.bohemiancoding.com/sketch -->
    <desc>Created with Sketch.</desc>
    <defs></defs>
    <g id="Page-1" stroke="none" stroke-width="1" fill="none" fill-rule="evenodd">
        <g id="Documents-SITE" transform="translate(-241.000000, -567.000000)" fill="#000000">
            <g id="Group-3" transform="translate(241.000000, 567.000000)">
                <path d="M19.8957237,-1.42108547e-14 C19.4529605,-1.42108547e-14 19.0927632,0.352631579 19.0927632,0.786513158 C19.0927632,1.21973684 19.4529605,1.57269737 19.8957237,1.57269737 L22.4621711,1.57269737 L22.4621711,4.10986842 C22.4621711,4.54375 22.8226974,4.89638158 23.2654605,4.89638158 C23.7072368,4.89638158 24.0671053,4.54375 24.0671053,4.10986842 L24.0671053,1.89407895 C24.0671053,0.849671053 23.2032895,-1.42108547e-14 22.1421053,-1.42108547e-14 L19.8957237,-1.42108547e-14 Z M10.2970395,23.2664474 L1.60460526,23.2664474 L1.60460526,12.2286184 L1.68519737,12.1585526 C2.97401316,11.0467105 7.21052632,7.22269737 8.90032895,3.57664474 C9.11480263,3.05690789 9.62960526,2.70197368 10.2075658,2.68092105 L10.39375,2.68059211 C10.8516447,2.68059211 11.2805921,2.89605263 11.5473684,3.25690789 C11.8167763,3.59638158 11.9055921,4.05559211 11.7802632,4.47861842 C11.3552632,5.86118421 10.5684211,7.78355263 9.22993421,9.10098684 C9.08190789,9.24901316 9.00032895,9.44539474 9.00164474,9.65328947 C9.00230263,9.86282895 9.08684211,10.0601974 9.23914474,10.2095395 C9.38552632,10.3526316 9.58223684,10.4335526 9.79309211,10.4368421 L23.1444079,10.4368421 L23.1463816,10.4368421 C23.8904605,10.4368421 24.5154605,10.9236842 24.6822368,11.5944079 C24.7634868,12.0342105 24.6463816,12.4657895 24.3651316,12.7927632 C24.0898026,13.1121711 23.6891447,13.2950658 23.2654605,13.2950658 L16.5259868,13.2950658 C16.1463816,13.2950658 15.8154605,13.5615132 15.7394737,13.9279605 C15.2157895,16.3358553 14.5023026,18.725 13.6194079,21.0319079 C13.0763158,22.3907895 11.7723684,23.2664474 10.2970395,23.2664474 Z M19.8957237,22.1585526 C19.4529605,22.1585526 19.0927632,22.5115132 19.0927632,22.9447368 C19.0927632,23.3786184 19.4529605,23.7319079 19.8957237,23.7319079 L22.1421053,23.7319079 C23.2032895,23.7319079 24.0671053,22.8819079 24.0671053,21.8371711 L24.0671053,19.6217105 C24.0671053,19.1875 23.7072368,18.8345395 23.2654605,18.8345395 C22.8226974,18.8345395 22.4621711,19.1875 22.4621711,19.6217105 L22.4621711,22.1585526 L19.8957237,22.1585526 Z M10.2203947,1.10789474 C9.01348684,1.11578947 7.92401316,1.82631579 7.44473684,2.91809211 C5.79210526,6.48980263 1.22269737,10.4717105 0.323684211,11.2338816 C0.105921053,11.4125 0,11.6332237 0,11.8657895 L0,24.0532895 C0,24.4868421 0.360197368,24.8391447 0.802960526,24.8391447 L10.2898026,24.8391447 C12.4315789,24.8335526 14.3220395,23.5592105 15.1046053,21.5930921 C15.9174342,19.4898026 16.5947368,17.3095395 17.1174342,15.1151316 L17.1753289,14.8677632 L23.2654605,14.8677632 C24.0828947,14.8677632 24.8476974,14.5555921 25.4217105,13.9884868 C25.9980263,13.4223684 26.3151316,12.6690789 26.3157895,11.8671053 C26.3157895,11.7006579 26.3006579,11.5322368 26.2726974,11.3664474 C25.9894737,9.91809211 24.6921053,8.86315789 23.1888158,8.86315789 L11.5042763,8.86381579 L11.7904605,8.37861842 C12.4388158,7.29375 12.9473684,6.13388158 13.3029605,4.93026316 C13.5776316,4.03881579 13.4046053,3.06447368 12.8401316,2.32171053 C12.2733553,1.56085526 11.3654605,1.10789474 10.4101974,1.10789474 L10.2203947,1.10789474 Z" id="Fill-1"></path>
            </g>
        </g>
    </g>
</svg>