
<svg width="20px" height="19px" viewBox="0 0 20 19" version="1.1" xmlns="http://www.w3.org/2000/svg" xmlns:xlink="http://www.w3.org/1999/xlink">
    <g id="Page-1" stroke="none" stroke-width="1" fill="none" fill-rule="evenodd">
        <g id="Partner-Portal-active-" transform="translate(-1034.000000, -102.000000)" fill="#889DBD" stroke="#889DBD" stroke-width="0.2">
            <g id="Group-18" transform="translate(1035.000000, 102.000000)">
                <path d="M3.43498689,9.82246941 L8.48503059,9.82273164 C8.78476836,9.82273164 9.02786276,9.57976836 9.02786276,9.28003059 C9.02786276,8.98029283 8.78489948,8.73719843 8.48516171,8.73706731 L3.43511801,8.73693614 C3.13524913,8.73680507 2.89215472,8.97989948 2.89215472,9.27963724 C2.89215472,9.579375 3.13524913,9.82246941 3.43498689,9.82246941" id="Fill-1"></path>
                <path d="M3.45932255,12.4717264 L15.1114642,12.4719886 C15.4247072,12.4719886 15.6785533,12.2290253 15.6785533,11.9291565 C15.6785533,11.6294187 15.4248383,11.3864554 15.1115953,11.3863243 L3.45945367,11.3861931 C3.14621066,11.3860621 2.89223339,11.6290253 2.89223339,11.9288942 C2.89223339,12.228632 3.14607955,12.4717264 3.45932255,12.4717264" id="Fill-3"></path>
                <path d="M3.45932255,15.2510271 L13.5540341,15.2512893 C13.8672771,15.2512893 14.1212544,15.008326 14.1212544,14.7085883 C14.1212544,14.4088505 13.8674082,14.1657561 13.5541652,14.1657561 L3.45945367,14.1654939 C3.14621066,14.1654939 2.89223339,14.4084572 2.89223339,14.7081949 C2.89223339,15.0079327 3.14607955,15.2510271 3.45932255,15.2510271" id="Fill-5"></path>
                <g id="Group-9" transform="translate(4.064685, 0.095979)">
                    <path d="M0.117194056,2.42979021 L0.117194056,0.601468531 C0.117194056,0.288618881 0.370777972,0.035034965 0.683496503,0.035034965 C0.996346154,0.035034965 1.24993007,0.288618881 1.24993007,0.601468531 L1.24993007,2.42979021 C1.24993007,2.74263986 0.996346154,2.99622378 0.683496503,2.99622378 C0.370777972,2.99622378 0.117194056,2.74263986 0.117194056,2.42979021" id="Fill-7"></path>
                </g>
                <g id="Group-12" transform="translate(13.505245, 0.095979)">
                    <path d="M0.0739248252,2.42979021 L0.0739248252,0.601468531 C0.0739248252,0.288618881 0.32763986,0.035034965 0.640358392,0.035034965 C0.953208042,0.035034965 1.20679196,0.288618881 1.20679196,0.601468531 L1.20679196,2.42979021 C1.20679196,2.74263986 0.953208042,2.99622378 0.640358392,2.99622378 C0.32763986,2.99622378 0.0739248252,2.74263986 0.0739248252,2.42979021" id="Fill-10"></path>
                </g>
                <g id="Group-15" transform="translate(0.000000, 0.882692)">
                    <path d="M17.7260533,15.7381075 C17.7260533,16.2522247 17.3060795,16.6714117 16.790389,16.6714117 L14.9113243,16.6714117 L5.26608829,16.6714117 L4.02557255,16.6714117 L3.90756556,16.6714117 L2.02863199,16.6714117 C1.51294143,16.6714117 1.09296766,16.2522247 1.09296766,15.7381075 L1.09296766,5.17674388 L4.02557255,5.17674388 L5.26608829,5.17674388 L13.8636844,5.17674388 L17.7260533,5.17674388 L17.7260533,15.7381075 Z M17.0101442,0.0655987762 L16.4214205,0.0655987762 C16.1008348,0.0655987762 15.8409572,0.325476399 15.8409572,0.645930944 C15.8409572,0.966516608 16.1008348,1.22639423 16.4214205,1.22639423 L17.0101442,1.22639423 C17.4053365,1.22639423 17.7255288,1.54671766 17.7255288,1.94177885 L17.7255288,4.01542395 L13.7430551,4.01542395 L5.07583479,4.01542395 L1.09336101,4.01542395 L1.09336101,1.94295892 C1.09336101,1.54724213 1.41434003,1.22639423 1.8099257,1.22639423 L2.46486451,1.22639423 C2.78545017,1.22639423 3.0453278,0.966516608 3.0453278,0.645930944 C3.0453278,0.325476399 2.78545017,0.0655987762 2.46486451,0.0655987762 L1.80874563,0.0655987762 C0.77513549,0.0655987762 -0.0673033217,0.907381993 0.00428758741,2.03841346 L0.00428758741,15.8335621 C-0.0673033217,16.8922159 0.872950175,17.8322072 2.02863199,17.8322072 L9.40944493,17.8249956 L16.790389,17.8322072 C17.9460708,17.8322072 18.8863243,16.8922159 18.8863243,15.7381075 L18.8863243,1.94295892 C18.8863243,0.907381993 18.0438855,0.0655987762 17.0101442,0.0655987762 L17.0101442,0.0655987762 Z" id="Fill-13"></path>
                </g>
                <path d="M11.8623252,0.948251748 L7.02403846,0.948251748 C6.7034528,0.948251748 6.44370629,1.20812937 6.44370629,1.52871503 C6.44370629,1.8493007 6.7034528,2.10917832 7.02403846,2.10917832 L11.8623252,2.10917832 C12.1827797,2.10917832 12.4426573,1.8493007 12.4426573,1.52871503 C12.4426573,1.20812937 12.1827797,0.948251748 11.8623252,0.948251748" id="Fill-16"></path>
            </g>
        </g>
    </g>
</svg>