
<svg width="20px" height="19px" viewBox="0 0 20 19" version="1.1" xmlns="http://www.w3.org/2000/svg" xmlns:xlink="http://www.w3.org/1999/xlink">
    <g id="Page-1" stroke="none" stroke-width="1" fill="none" fill-rule="evenodd">
        <g id="Partner-Portal-active-" transform="translate(-1034.000000, -290.000000)" fill="#222E41" stroke="#222E41" stroke-width="0.2">
            <g id="Group" transform="translate(1035.000000, 290.000000)">
                <g id="Group-6">
                    <g id="Group-3" transform="translate(0.000000, 0.116388)">
                        <path d="M9.00108871,1.00682316 C4.58572293,1.00682316 0.993629032,4.59904666 0.993629032,9.01441244 C0.993629032,13.4297782 4.58572293,17.0220017 9.00108871,17.0220017 C13.4164545,17.0220017 17.008678,13.4297782 17.008678,9.01441244 C17.008678,4.59904666 13.4164545,1.00682316 9.00108871,1.00682316 M9.00108871,18.0155789 C4.03786866,18.0155789 5.1843318e-05,13.9776325 5.1843318e-05,9.01441244 C5.1843318e-05,4.0511924 4.03786866,0.0132459677 9.00108871,0.0132459677 C13.9643088,0.0132459677 18.0022552,4.0511924 18.0022552,9.01441244 C18.0022552,13.9776325 13.9643088,18.0155789 9.00108871,18.0155789" id="Fill-1"></path>
                    </g>
                    <path d="M5.4874856,8.54646169 C5.34426843,8.54646169 5.21038306,8.59467598 5.12043491,8.67892137 C4.89699021,8.88914603 4.88480703,9.2278125 5.09295795,9.44957229 L7.76081509,12.2914934 C7.86618664,12.3964761 8.01756912,12.4588177 8.17271025,12.4588177 L8.22273906,12.4588177 C8.36349366,12.4588177 8.51150634,12.3833857 8.590697,12.2714041 L12.9419067,6.64303427 C13.033799,6.52496112 13.0737183,6.3715049 13.0520737,6.22141849 C13.0331509,6.08610743 12.9683468,5.97257056 12.8694556,5.90115639 C12.6401786,5.73512817 12.2488911,5.78606423 12.0789747,6.00367656 L8.13382776,11.0996155 L5.89108583,8.70613911 C5.79595334,8.60465582 5.64871832,8.54646169 5.4874856,8.54646169" id="Fill-4"></path>
                </g>
            </g>
        </g>
    </g>
</svg>