
<svg width="10px" height="17px" viewBox="0 0 10 17" version="1.1" xmlns="http://www.w3.org/2000/svg" xmlns:xlink="http://www.w3.org/1999/xlink">
    <g id="Page-1" stroke="none" stroke-width="1" fill="none" fill-rule="evenodd">
        <g id="Partner-Portal-active-page-link" transform="translate(-351.000000, -319.000000)" fill="#FF5400" stroke="#FF5400" stroke-width="0.5">
            <g id="arrow" transform="translate(352.000000, 320.000000)">
                <path d="M0.780907895,3.94736842e-05 C0.580776316,3.94736842e-05 0.381039474,0.0781973684 0.228671053,0.234513158 C0.0814342105,0.386092105 -0.000276315789,0.587407895 -0.000276315789,0.802144737 C-0.000276315789,1.01648684 0.0814342105,1.21780263 0.228671053,1.36938158 L6.06406579,7.36819737 C6.09564474,7.40017105 6.09564474,7.45267105 6.06406579,7.48503947 L0.228671053,13.4834605 C0.0814342105,13.6350395 -0.000276315789,13.83675 -0.000276315789,14.0510921 C-0.000276315789,14.2654342 0.0814342105,14.46675 0.228671053,14.6183289 C0.524328947,14.9222763 1.03748684,14.9222763 1.33314474,14.6183289 L7.77722368,7.99385526 C7.92485526,7.84227632 8.00617105,7.64096053 8.00617105,7.42661842 C8.00617105,7.21227632 7.92485526,7.01096053 7.77722368,6.85898684 L1.33314474,0.234513158 C1.18077632,0.0781973684 0.980644737,3.94736842e-05 0.780907895,3.94736842e-05" id="Fill-1"></path>
            </g>
        </g>
    </g>
</svg>