
<svg width="43px" height="52px" viewBox="0 0 43 52" version="1.1" xmlns="http://www.w3.org/2000/svg" xmlns:xlink="http://www.w3.org/1999/xlink">
    <g id="Page-1" stroke="none" stroke-width="1" fill="none" fill-rule="evenodd">
        <g id="Partner-Portal-Desktop-3-long-list" transform="translate(-114.000000, -339.000000)" stroke="#FFFFFF">
            <g id="Group-7" transform="translate(115.000000, 340.000000)">
                <path d="M30.4073041,11.8735915 L37.8150235,11.8735915 C37.8742712,11.8735915 37.9225862,11.9214789 37.9225862,11.9809859 L37.9225862,46.9080986 C37.9225862,46.9725352 37.8703918,47.0246479 37.8058542,47.0246479 L3.02148903,47.0246479 C2.95695141,47.0246479 2.90475705,46.9725352 2.90475705,46.9080986 L2.90475705,3.03626761 C2.90475705,2.97183099 2.95695141,2.92007042 3.02148903,2.92007042 L28.838652,2.92007042 C28.902837,2.92007042 28.9550313,2.97183099 28.9550313,3.03626761 L28.9550313,10.4242958 C28.9560893,11.2232394 29.6078135,11.8735915 30.4073041,11.8735915 L30.4073041,11.8735915 Z M31.8599295,8.97323944 L31.8599295,4.96161972 L35.876779,8.97323944 L31.8599295,8.97323944 Z M1.31600313,0.0207746479 C0.562711599,0.0922535211 -0.00296238245,0.715492958 -0.000151572836,1.46866197 L-0.000151572836,48.4742958 C-0.000151572836,49.2742958 0.651583072,49.925 1.45283699,49.925 L39.3755643,49.925 C40.1761129,49.925 40.8275128,49.2742958 40.8275128,48.4742958 L40.8275128,10.4274648 C40.829953,10.034507 40.6719592,9.65316901 40.3986442,9.38661972 L31.4233307,0.423943662 C31.1531897,0.163028169 30.7962931,0.0193661972 30.4185893,0.0193661972 L3.25460031,0.0193661972 L1.31600313,0.0207746479 Z" id="Fill-1" fill="#152A40"></path>
                <path d="M26.1340321,38.8855282 L7.76267633,38.8700352 L7.65299765,38.869331 L7.63501176,38.8703873 C6.82776254,38.9098239 6.20178292,39.5918662 6.24022335,40.3897535 C6.27690047,41.1658099 6.92051332,41.7732042 7.71436129,41.7732042 L26.1065243,41.7872887 C26.9127155,41.7872887 27.5767829,41.1457394 27.5873629,40.3598239 C27.5944161,39.9703873 27.4470024,39.6024296 27.1743926,39.3263732 C26.9024882,39.0485563 26.5367751,38.8922183 26.1340321,38.8855282" id="Fill-4" stroke-width="0.5" fill="#FF5400"></path>
                <path d="M7.71263323,13.2755282 L21.9528762,13.2741197 C22.7583621,13.2741197 23.4220768,12.6329225 23.4334822,11.843838 C23.4382994,11.4551056 23.2908856,11.0885563 23.0182759,10.8125 C22.7446082,10.5346831 22.378895,10.3783451 21.9796787,10.3730634 L7.7627116,10.3730634 L7.65303292,10.3723592 L7.63504702,10.3734155 C7.24394201,10.3924296 6.88316614,10.5607394 6.61972571,10.8473592 C6.35663793,11.1339789 6.2215674,11.5051056 6.24025862,11.8924296 C6.27693574,12.6677817 6.91984326,13.2755282 7.71263323,13.2755282" id="Fill-6" stroke-width="0.5" fill="#FF5400"></path>
                <path d="M33.1879937,31.7597183 L7.63638715,31.7442254 C7.24492947,31.7628873 6.88415361,31.930493 6.62000784,32.2178169 C6.35621473,32.5044366 6.22184953,32.8755634 6.24018809,33.2625352 C6.2768652,34.0382394 6.92047806,34.6459859 7.71644201,34.6459859 L33.1597806,34.6600704 C33.9659718,34.6600704 34.6303918,34.018169 34.6408389,33.2322535 C34.6473197,32.8438732 34.5006113,32.4766197 34.2265909,32.1980986 C33.9539812,31.9206338 33.588268,31.765 33.1879937,31.7597183" id="Fill-8" stroke-width="0.5" fill="#FF5400"></path>
                <path d="M7.63582288,17.4919366 C6.82751567,17.530669 6.20188871,18.2123592 6.23997649,19.0109507 C6.27700627,19.787007 6.91991379,20.3940493 7.71270376,20.3940493 L33.1599216,20.4081338 C33.9657602,20.4081338 34.6301803,19.7665845 34.6409579,18.9810211 C34.6471082,18.5926408 34.5003997,18.2257394 34.2274373,17.9479225 C33.9555329,17.6704577 33.5901724,17.5137676 33.1874295,17.5070775 L7.76278213,17.4915845 L7.63582288,17.4919366 Z" id="Fill-10" stroke-width="0.5" fill="#FF5400"></path>
                <path d="M30.3666771,24.6332042 L7.63638715,24.6180634 C7.24598746,24.6367254 6.8852116,24.8039789 6.62000784,25.092007 C6.3565674,25.3782746 6.22184953,25.7497535 6.24018809,26.1370775 C6.2768652,26.9124296 6.92047806,27.5198239 7.71432602,27.5194718 L30.3384639,27.5339085 C31.1446552,27.5339085 31.8087226,26.8923592 31.8195444,26.1067958 C31.8263558,25.7173592 31.678942,25.3497535 31.4063323,25.0736972 C31.1337226,24.7951761 30.7680094,24.638838 30.3666771,24.6332042" id="Fill-12" stroke-width="0.5" fill="#FF5400"></path>
            </g>
        </g>
    </g>
</svg>