<svg class="icon" width="60px" height="60px" viewBox="0 0 60 60" version="1.1" xmlns="http://www.w3.org/2000/svg"
                            xmlns:xlink="http://www.w3.org/1999/xlink">
                            <!-- Generator: Sketch 51.3 (57544) - http://www.bohemiancoding.com/sketch -->
                            <desc>Created with Sketch.</desc>
                            <defs>
                                <polygon id="path-1" points="0 0 30 0 30 30 0 30"></polygon>
                            </defs>
                            <g id="Page-1" stroke="none" stroke-width="1" fill="none" fill-rule="evenodd">
                                <g id="Partner-Portal-support" transform="translate(-876.000000, -311.000000)">
                                    <g id="Group-6" transform="translate(876.000000, 311.000000)">
                                        <circle id="Oval-Copy-2" fill="#EFEFEF" cx="30" cy="30" r="30"></circle>
                                        <g id="Group-3" transform="translate(15.000000, 15.000000)">
                                            <mask id="mask-2" fill="white">
                                                <use xlink:href="#path-1"></use>
                                            </mask>
                                            <g id="Clip-2"></g>
                                            <path d="M18.9562522,22.1100473 C17.2171338,22.1052049 15.8089598,20.6953707 15.8061928,18.9562522 C15.8103434,17.218379 17.2182407,15.8104818 18.9562522,15.8061928 L26.8474501,15.8061928 C28.5861535,15.80979 29.9951576,17.2176873 30,18.9562522 C29.9965411,20.6960624 28.5872603,22.1058967 26.8474501,22.1100473 L18.9562522,22.1100473 Z M18.9562522,23.6950386 C20.6960624,23.6983591 22.1058967,25.1076399 22.1100473,26.8474501 C22.1058967,28.5873987 20.6960624,29.9966795 18.9562522,30 C17.2175489,29.9951576 15.8096516,28.5862918 15.8061928,26.8475885 L15.8061928,23.6950386 L18.9562522,23.6950386 Z M22.1100473,11.0425026 C22.1052049,12.7818977 20.695509,14.1903484 18.9562522,14.1938072 C17.2181023,14.1889648 15.8103434,12.7806525 15.8061928,11.0425026 L15.8061928,3.15254988 C15.8096516,1.41384654 17.2175489,0.0049807687 18.9562522,0 C20.6960624,0.00345886715 22.1058967,1.41260134 22.1100473,3.15254988 L22.1100473,11.0425026 Z M23.6950386,11.0425026 C23.6997427,9.30366086 25.1086084,7.89548687 26.8474501,7.89119787 C28.5862918,7.89548687 29.9951576,9.30366086 30,11.0425026 C29.9951576,12.7813443 28.5862918,14.1896566 26.8474501,14.1938072 L23.6950386,14.1938072 L23.6950386,11.0425026 Z M11.0425026,7.89119787 C12.7807908,7.89617864 14.1889648,9.30407593 14.1936689,11.0425026 C14.1889648,12.7809292 12.7807908,14.1889648 11.0425026,14.1938072 L3.15241152,14.1938072 C1.41356983,14.1896566 0.00470405933,12.7813443 0,11.0425026 C0.00470405933,9.30366086 1.41356983,7.89548687 3.15241152,7.89119787 L11.0425026,7.89119787 Z M11.0425026,6.30247101 C9.30449099,6.29776696 7.89659371,4.89042309 7.89119787,3.15254988 C7.89534852,1.41370818 9.30352251,0.0049807687 11.0425026,0 C12.7813443,0.0049807687 14.1896566,1.41370818 14.1936689,3.15254988 L14.1936689,6.30247101 L11.0425026,6.30247101 Z M7.89119787,18.9562522 C7.89604029,17.2181023 9.30421428,15.8104818 11.0425026,15.8061928 C12.7806525,15.8104818 14.1889648,17.2181023 14.1936689,18.9562522 L14.1936689,26.8475885 C14.1896566,28.5864302 12.7813443,29.9951576 11.0425026,30 C9.30352251,29.9951576 7.89534852,28.5864302 7.89119787,26.8475885 L7.89119787,18.9562522 Z M6.30247101,18.9562522 C6.2991505,20.6950939 4.89139157,22.1045131 3.15241152,22.1100473 C1.41260134,22.1058967 0.00345886715,20.6960624 0,18.9562522 C0.00470405933,17.2176873 1.41384654,15.80979 3.15241152,15.8061928 L6.30247101,15.8061928 L6.30247101,18.9562522 Z"
                                                id="Fill-1" fill="#000000" mask="url(#mask-2)"></path>
                                        </g>
                                    </g>
                                </g>
                            </g>
                        </svg>