
<svg width="54px" height="52px" viewBox="0 0 54 52" version="1.1" xmlns="http://www.w3.org/2000/svg" xmlns:xlink="http://www.w3.org/1999/xlink">
    <g id="Page-1" stroke="none" stroke-width="1" fill="none" fill-rule="evenodd">
        <g id="Partner-Portal-Desktop-3-long-list" transform="translate(-570.000000, -519.000000)" stroke="#FFFFFF">
            <g id="Group-6" transform="translate(571.000000, 520.000000)">
                <path d="M11.1040715,46.6919014 L10.778858,46.6919014 L5.59578901,46.6919014 C4.17319901,46.6919014 3.01477925,45.5316901 3.01477925,44.1080986 L3.01477925,12.3102113 L11.1040715,12.3102113 L14.5260056,12.3102113 L38.2413351,12.3102113 L48.8951484,12.3102113 L48.8951484,44.1080986 C48.8951484,45.5316901 47.7367286,46.6919014 46.3144894,46.6919014 L41.1310697,46.6919014 L14.5260056,46.6919014 L11.1040715,46.6919014 Z M3.01618254,5.19753521 C3.01618254,4.1028169 3.90060902,3.21338028 4.98921488,3.21338028 L11.1738854,3.21338028 L40.7360422,3.21338028 L46.9207127,3.21338028 C48.0096694,3.21338028 48.8937451,4.1028169 48.8937451,5.19753521 L48.8937451,9.09542254 L37.9087542,9.09542254 L14.0015242,9.09542254 L3.01618254,9.09542254 L3.01618254,5.19753521 Z M46.9207127,-1.42108547e-14 L40.7360422,-1.42108547e-14 L11.1738854,-1.42108547e-14 L4.98921488,-1.42108547e-14 C2.13772006,-1.42108547e-14 -0.185785123,2.33028169 0.0117286048,5.46161972 L0.0117286048,44.3721831 C-0.185785123,47.303169 2.40785429,49.9056338 5.59578901,49.9056338 L25.9551392,49.8855634 L46.3144894,49.9056338 C49.5020733,49.9056338 52.0957127,47.303169 52.0957127,44.1080986 L52.0957127,5.19753521 C52.0957127,2.33028169 49.7718567,-1.42108547e-14 46.9207127,-1.42108547e-14 L46.9207127,-1.42108547e-14 Z" id="Fill-21" fill="#152A40"></path>
                <path d="M26.3081731,19.3055282 C20.60799,19.3055282 15.9708027,23.9590493 15.9708027,29.6787676 C15.9708027,35.3981338 20.60799,40.0516549 26.3081731,40.0516549 C32.0080053,40.0516549 36.6451926,35.3981338 36.6451926,29.6787676 C36.6451926,23.9590493 32.0080053,19.3055282 26.3081731,19.3055282 M26.3081731,42.5667958 C19.2264464,42.5667958 13.4648692,36.7854577 13.4648692,29.6787676 C13.4648692,22.5717254 19.2264464,16.7903873 26.3081731,16.7903873 C33.3898997,16.7903873 39.1511261,22.5717254 39.1511261,29.6787676 C39.1511261,36.7854577 33.3898997,42.5667958 26.3081731,42.5667958" id="Fill-23" stroke-width="0.5" fill="#FF5300"></path>
                <path d="M24.3659781,35.3166549 L24.3659781,35.3166549 C24.3659781,34.7596127 24.8157341,34.3078521 25.3707371,34.3078521 L25.514224,34.3078521 C26.0695779,34.3078521 26.5193339,34.7596127 26.5193339,35.3166549 C26.5193339,35.8736972 26.0695779,36.3251056 25.514224,36.3251056 L25.3707371,36.3251056 C24.8157341,36.3251056 24.3659781,35.8736972 24.3659781,35.3166549 M23.3812161,26.4508099 L23.3812161,26.4508099 C22.8409476,26.0772183 22.7304382,25.3117254 23.1573906,24.8110211 C23.1759842,24.7898944 23.1945779,24.7680634 23.2135224,24.7465845 C23.5011978,24.4244014 23.8292179,24.1525704 24.1979336,23.9307394 C24.5655968,23.7089085 24.9637817,23.5413028 25.3924882,23.4268662 C25.8208439,23.3127817 26.2625309,23.2553873 26.7179001,23.2553873 C27.2262436,23.2553873 27.7286231,23.3296831 28.2239861,23.4772183 C28.7189983,23.6251056 29.1641935,23.8599648 29.559221,24.1828521 C29.9542484,24.5053873 30.2752521,24.9187676 30.5232844,25.4219366 C30.7706151,25.926162 30.8944559,26.5275704 30.8944559,27.226162 C30.8944559,27.6564437 30.8446389,28.035669 30.7443033,28.3648944 C30.6439678,28.6941197 30.4997792,28.9930634 30.3124394,29.2617254 C30.1247487,29.5307394 29.9037298,29.7726408 29.6497335,29.9874296 C29.3950355,30.2025704 29.1073601,30.4103169 28.7863564,30.6124296 C28.5179763,30.7736972 28.2506487,30.9279225 27.9829702,31.0758099 C27.7149409,31.2236972 27.4707677,31.3881338 27.2500996,31.5694718 C27.0290806,31.7508099 26.8484065,31.9596127 26.7077262,32.1944718 C26.6796603,32.2416549 26.654401,32.2902465 26.6319483,32.3416549 C26.4488183,32.7575 26.0681746,33.0508099 25.6149104,33.0508099 L25.5205389,33.0508099 C24.7981929,33.0508099 24.2709049,32.3532746 24.475786,31.6578521 C24.5143766,31.5272183 24.5589312,31.4004577 24.609099,31.2772183 C24.8231014,30.7529225 25.2651392,30.2965845 25.9345108,29.9067958 C26.1355328,29.785669 26.3832143,29.6483451 26.6775553,29.4937676 C26.9718964,29.3391901 27.2599226,29.154331 27.5412832,28.9391901 C27.822293,28.7244014 28.0598006,28.4726408 28.2541569,28.1832042 C28.4481624,27.8948239 28.5453406,27.5620775 28.5453406,27.1860211 C28.5453406,26.9036268 28.4916645,26.6550352 28.3846633,26.4398944 C28.2773113,26.2254577 28.1369818,26.0437676 27.9629733,25.8958803 C27.7886139,25.747993 27.5844345,25.6374296 27.3504351,25.5634859 C27.1157341,25.4895423 26.8785773,25.4525704 26.6375614,25.4525704 C26.3428695,25.4525704 26.0751911,25.5025704 25.834526,25.6036268 C25.5935102,25.704331 25.3752979,25.8321479 25.1816432,25.9867254 C25.1816432,25.9867254 25.0227201,26.0927113 24.8174882,26.3039789 C24.4371954,26.6965845 23.8302704,26.7617254 23.3812161,26.4508099" id="Fill-25" stroke-width="0.5" fill="#FF5300"></path>
            </g>
        </g>
    </g>
</svg>