
<svg width="50px" height="52px" viewBox="0 0 50 52" version="1.1" xmlns="http://www.w3.org/2000/svg" xmlns:xlink="http://www.w3.org/1999/xlink">
    <g id="Page-1" stroke="none" stroke-width="1" fill="none" fill-rule="evenodd">
        <g id="Partner-Portal-Desktop-3-long-list" transform="translate(-110.000000, -519.000000)">
            <g id="Group-5" transform="translate(111.000000, 520.000000)">
                <g id="Group-16" fill="#152A40" stroke="#FFFFFF">
                    <path d="M41.4496624,6.90964789 C41.4496624,5.28711268 41.9072828,3.83887324 42.1462701,3.19450704 C42.0244953,3.05859155 41.7921758,3.01 41.6468884,2.98922535 L6.31888035,2.99274648 C4.54419786,2.99274648 3.10044786,4.32584507 3.10044786,5.96457746 C3.10044786,7.66070423 4.60420789,9.14873239 6.31888035,9.14873239 L41.6325,9.14873239 C41.5110762,8.4765493 41.4496624,7.72514085 41.4496624,6.90964789 L41.4496624,6.90964789 Z M6.31888035,12.0455634 C5.20009693,12.0455634 4.07218917,11.7156338 3.10044786,11.1114085 L3.10150067,42.1916901 C3.13729612,42.8209155 3.28749666,43.9434507 3.4485762,44.2948592 C4.52875668,46.666338 6.06269719,47.0466197 6.50733289,47.1061268 L8.35150067,47.1033099 L8.35150067,12.0455634 L6.31888035,12.0455634 Z M44.7547761,12.3860563 C44.7547761,12.1409859 44.656865,12.0455634 44.405244,12.0455634 L43.7774198,12.0497887 C43.737764,12.056831 43.6896858,12.0624648 43.4798262,12.0430986 L11.2681283,12.0455634 L11.2681283,47.1033099 L44.4055949,47.1033099 C44.6382654,47.1033099 44.7547761,46.750493 44.7547761,46.553662 L44.7547761,12.3860563 Z M44.6242279,9.1543662 C44.4985929,8.7015493 44.3676939,7.97338028 44.3676939,6.90964789 C44.3676939,5.43077465 44.9249799,4.08887324 45.0056952,3.90084507 C45.0807955,3.72901408 45.1197493,3.53288732 45.1197493,3.33323944 C45.1197493,1.61211268 43.8342714,0.312464789 41.9290408,0.101549296 L6.31888035,0.0945070423 C2.93515709,0.0945070423 0.182416444,2.72760563 0.182416444,5.96457746 L0.184522059,42.269507 C0.213649733,42.7776056 0.344197861,44.5117606 0.791290107,45.4902817 C2.74214238,49.7769014 6.17569853,49.9927465 6.33923463,50.0001408 L44.4055949,50.0001408 C46.2072995,50.0001408 47.6728075,48.4540141 47.6728075,46.553662 L47.6728075,12.3860563 C47.6728075,10.6219718 46.3708356,9.25788732 44.6242279,9.1543662 L44.6242279,9.1543662 Z" id="Fill-14"></path>
                </g>
                <path d="M39.2714037,21.474507 L39.1180448,21.1311972 C38.925732,20.7026761 38.3663402,20.5980986 38.0336531,20.9280282 L35.0005147,23.9357746 C34.5909726,24.3414085 33.8898028,24.3146479 33.4827172,23.9076056 C33.0770354,23.4991549 33.0500134,22.7956338 33.4549933,22.3850704 L36.4523362,19.3414085 C36.7811631,19.0072535 36.6769352,18.446338 36.2498463,18.2540845 L35.9073329,18.0991549 C33.0994953,16.8329577 29.7266511,17.2674648 27.5308456,19.4319014 C26.1081517,20.8350704 25.3311798,22.7146479 25.3462701,24.7132394 C25.3515341,25.3505634 25.4368115,25.980493 25.6006985,26.5907042 L16.0615608,36.3139437 C15.3670588,37.0192254 14.9880481,37.949507 14.9953123,38.9333099 C15.0017346,39.8695775 15.366357,40.7512676 16.0117279,41.4371831 L16.0120789,41.4375352 C16.695,42.0843662 17.5740943,42.4502113 18.5072326,42.4569976 C19.4877473,42.4639437 20.4152707,42.0840141 21.1178443,41.3871831 L30.8082353,31.8160563 C31.416758,31.980493 32.0442313,32.0657042 32.6794251,32.0709859 C34.670986,32.0857746 36.5446324,31.3069014 37.9427607,29.8790845 C40.1006651,27.6759155 40.533369,24.2917606 39.2714037,21.474507" id="Fill-17" stroke="#FFFFFF" fill="#FF5300"></path>
                <path d="M32.7026571,29.6113028 C32.1243148,29.6063732 31.5498329,29.4982746 31.0894051,29.3201056 L30.2562834,28.8965141 L19.4158757,39.6067254 C19.1828543,39.8377113 18.8747326,39.9634155 18.5490642,39.9620188 C18.2609459,39.9591901 18.003008,39.8444014 17.7822694,39.6605986 C17.5990809,39.4391197 17.4846758,39.1799648 17.4821931,38.8912324 C17.4801136,38.5648239 17.6053977,38.2553169 17.8363135,38.0215141 L28.5103777,27.1444014 L28.0885528,26.3084859 C27.9106283,25.8472183 27.8025401,25.2708099 27.7979779,24.6901761 C27.7895555,23.4141197 28.300869,22.1591901 29.2006684,21.2472183 C30.1004679,20.3324296 31.3003175,19.8232746 32.5475434,19.7954577 L31.7074031,20.6486268 C30.3468249,22.0303169 30.3970087,24.2933451 31.7737299,25.6581338 C33.1343082,27.0401761 35.3536263,27.0539085 36.7310495,25.6884155 L37.5806651,24.846162 C37.5532921,26.0975704 37.0458389,27.3007394 36.1344586,28.2046127 C35.2248329,29.1063732 33.9740976,29.6197535 32.7026571,29.6113028" id="Fill-19" fill="#FFFFFF"></path>
            </g>
        </g>
    </g>
</svg>