<svg class="arrow-icon" width="9px" height="15px" viewBox="0 0 9 15" version="1.1" xmlns="http://www.w3.org/2000/svg" xmlns:xlink="http://www.w3.org/1999/xlink">
          <!-- Generator: Sketch 51.3 (57544) - http://www.bohemiancoding.com/sketch -->
          <desc>Created with Sketch.</desc>
          <defs></defs>
          <g id="Page-1" stroke="none" stroke-width="1" fill="none" fill-rule="evenodd">
              <g id="Partner-Portal-Log-in" transform="translate(-689.000000, -337.000000)" fill="#FF8143" stroke="#FF8143" stroke-width="0.855">
                  <g id="Group-6" transform="translate(582.000000, 329.000000)">
                      <g id="Group">
                          <g id="Group-2">
                              <g id="Group-8" transform="translate(108.000000, 9.000000)">
                                  <path d="M0.67336506,0 C0.500714259,0 0.328602149,0.0680749212 0.19716129,0.204504907 C0.0700299663,0.337012882 0,0.512662987 0,0.699798985 C0,0.886934982 0.0700299663,1.06258509 0.19716129,1.19509306 L5.22935306,6.42929812 C5.25655701,6.45731249 5.25655701,6.50297591 5.22935306,6.53127043 L0.19716129,11.7654755 C0.0700299663,11.8979835 0,12.0736336 0,12.2607696 C0,12.4479056 0.0700299663,12.6235557 0.19716129,12.7557835 C0.451962628,13.0207994 0.894767492,13.0207994 1.14956883,12.7557835 L6.706716,6.97529821 C6.83411667,6.84307038 6.90414663,6.66742027 6.90414663,6.48028427 C6.90414663,6.29314827 6.83411667,6.11749817 6.706716,5.98499019 L1.14956883,0.204504907 C1.01812797,0.0680749212 0.845746516,0 0.67336506,0" id="Fill-1"></path>
                              </g>
                          </g>
                      </g>
                  </g>
              </g>
          </g>
        </svg>