
<svg width="9px" height="15px" viewBox="0 0 9 15" version="1.1" xmlns="http://www.w3.org/2000/svg" xmlns:xlink="http://www.w3.org/1999/xlink">
    <!-- Generator: Sketch 51.3 (57544) - http://www.bohemiancoding.com/sketch -->
    <desc>Created with Sketch.</desc>
    <defs></defs>
    <g id="Page-1" stroke="none" stroke-width="1" fill="none" fill-rule="evenodd">
        <g id="Partner-Portal-Mid-HOME" transform="translate(-482.000000, -377.000000)" fill="#000000" stroke="#000000">
            <g id="Group-7" transform="translate(200.000000, 321.000000)">
                <g id="Group-4" transform="translate(0.000000, 1.000000)">
                    <g id="Group-3" transform="translate(102.000000, 31.000000)">
                        <g id="Group-8" transform="translate(181.000000, 25.000000)">
                            <path d="M0.682713689,0 C0.507665899,0 0.33316428,0.0683137806 0.199898568,0.205222469 C0.0710022237,0.338195383 0,0.514461805 0,0.70225442 C0,0.890047035 0.0710022237,1.06631346 0.199898568,1.19928637 L5.30195451,6.45185706 C5.32953614,6.47996972 5.32953614,6.52579337 5.30195451,6.55418717 L0.199898568,11.8067579 C0.0710022237,11.9397308 0,12.1159972 0,12.3037898 C0,12.4915824 0.0710022237,12.6678488 0.199898568,12.8005406 C0.458237428,13.0664865 0.90718995,13.0664865 1.16552881,12.8005406 L6.79982835,6.99977294 C6.92899778,6.86708115 7,6.69081473 7,6.50302211 C7,6.3152295 6.92899778,6.13896308 6.79982835,6.00599016 L1.16552881,0.205222469 C1.0322631,0.0683137806 0.857488394,0 0.682713689,0" id="Fill-1"></path>
                        </g>
                    </g>
                </g>
            </g>
        </g>
    </g>
</svg>