<svg class="icon" width="60px" height="60px" viewBox="0 0 60 60" version="1.1" xmlns="http://www.w3.org/2000/svg"
                            xmlns:xlink="http://www.w3.org/1999/xlink">
                            <!-- Generator: Sketch 51.3 (57544) - http://www.bohemiancoding.com/sketch -->
                            <desc>Created with Sketch.</desc>
                            <defs></defs>
                            <g id="Page-1" stroke="none" stroke-width="1" fill="none" fill-rule="evenodd">
                                <g id="Partner-Portal-support" transform="translate(-492.000000, -311.000000)">
                                    <g id="Group-4" transform="translate(492.000000, 311.000000)">
                                        <circle id="Oval-Copy-2" fill="#EFEFEF" cx="30" cy="30" r="30"></circle>
                                        <g id="Group" transform="translate(15.000000, 15.000000)" fill="#000000">
                                            <path d="M21.0717,13.6552125 C20.79195,13.9304625 20.464575,14.1543375 20.158575,14.2897125 L19.556325,14.4869625 L19.47645,22.5595875 C19.4757,22.7819625 19.387575,22.9900875 19.23045,23.1453375 C19.091325,23.2822125 18.912825,23.3508375 18.71895,23.3692125 C18.5247,23.3508375 18.3462,23.2822125 18.207075,23.1453375 C18.04995,22.9900875 17.9622,22.7819625 17.961075,22.5595875 L17.8812,14.4869625 L17.278575,14.2897125 C16.97295,14.1543375 16.645575,13.9304625 16.365825,13.6552125 C15.751575,13.0492125 15.396825,12.2035875 15.39195,11.3358375 C15.386325,10.4665875 15.718575,9.6475875 16.30395,9.0359625 L16.30845,9.8467125 C16.316325,11.1603375 17.422575,12.2185875 18.7362,12.2107125 C20.04945,12.2185875 21.120825,11.1603375 21.1287,9.8467125 L21.133575,9.0359625 C21.71895,9.6475875 22.050825,10.4665875 22.045575,11.3358375 C22.0407,12.2035875 21.68595,13.0492125 21.0717,13.6552125 Z M20.332575,6.6127125 L20.094825,6.5223375 C19.797825,6.4094625 19.479075,6.6277125 19.477575,6.9449625 L19.460325,9.8384625 C19.458075,10.2288375 19.10895,10.5528375 18.71895,10.5532125 C18.328575,10.5528375 17.97945,10.2288375 17.9772,9.8384625 L17.95995,6.9449625 C17.958075,6.6277125 17.6397,6.4094625 17.3427,6.5223375 L17.104575,6.6127125 C15.152325,7.3540875 13.741575,9.1799625 13.7232,11.2687125 C13.711575,12.6220875 14.2377,13.8940875 15.200325,14.8424625 C15.507825,15.1447125 15.849825,15.4049625 16.220325,15.6183375 L16.2927,22.5944625 C16.296825,23.2649625 16.5597,23.8915875 17.034075,24.3584625 C17.484825,24.8032125 18.081075,25.0495875 18.718575,25.0683375 L18.71895,25.0683375 C19.35645,25.0495875 19.953075,24.8032125 20.40345,24.3584625 C20.87745,23.8915875 21.1407,23.2649625 21.14445,22.5944625 L21.2172,15.6183375 C21.5877,15.4049625 21.930075,15.1447125 22.236825,14.8424625 C23.199825,13.8940875 23.72595,12.6220875 23.714325,11.2687125 C23.69595,9.1799625 22.2852,7.3540875 20.332575,6.6127125 Z M26.463825,-3.75e-05 L10.7097,-3.75e-05 C8.850825,-3.75e-05 7.257825,1.4984625 7.257825,3.4387125 L7.257825,8.7723375 L0.885075,8.7723375 C0.354075,8.7723375 7.49999999e-05,9.1244625 7.49999999e-05,9.6532125 L7.49999999e-05,25.4354625 C7.49999999e-05,27.9037125 2.035575,29.9317125 4.51395,29.9317125 L26.5527,29.9317125 L26.6412,29.9317125 C28.4112,29.8439625 29.8272,28.3447125 29.8272,26.5814625 L29.8272,3.4387125 C29.8272,1.4984625 28.3227,-3.75e-05 26.463825,-3.75e-05 Z M1.770075,25.4354625 L1.770075,10.5352125 L7.257825,10.5352125 L7.257825,25.4354625 C7.257825,26.9339625 6.01845,28.1684625 4.51395,28.1684625 C3.009075,28.2569625 1.770075,27.0224625 1.770075,25.4354625 Z M28.0572,26.5814625 C28.0572,27.4634625 27.3492,28.2569625 26.3757,28.2569625 L8.054325,28.2569625 C8.673825,27.4634625 9.027825,26.5814625 9.027825,25.5232125 L9.027825,9.6532125 L9.027825,3.4387125 C9.027825,2.5567125 9.735825,1.7632125 10.7097,1.7632125 L26.3757,1.7632125 C27.2607,1.7632125 28.0572,2.4689625 28.0572,3.4387125 L28.0572,26.5814625 Z"
                                                id="Fill-1"></path>
                                        </g>
                                    </g>
                                </g>
                            </g>
                        </svg>