<svg class="icon" width="60px" height="60px" viewBox="0 0 60 60" version="1.1" xmlns="http://www.w3.org/2000/svg"
            xmlns:xlink="http://www.w3.org/1999/xlink">
            <!-- Generator: Sketch 51.3 (57544) - http://www.bohemiancoding.com/sketch -->
            <desc>Created with Sketch.</desc>
            <defs></defs>
            <g id="Page-1" stroke="none" stroke-width="1" fill="none" fill-rule="evenodd">
                <g id="Partner-Portal-support" transform="translate(-106.000000, -312.000000)">
                    <g id="Group-5" transform="translate(106.000000, 312.000000)">
                        <circle id="Oval-Copy-2" fill="#EFEFEF" cx="30" cy="30" r="30"></circle>
                        <g id="Group-3" transform="translate(15.000000, 15.000000)" fill="#000000">
                            <path d="M15.999075,23.1950625 C15.999075,23.7466875 15.551325,24.1944375 14.9997,24.1944375 C14.44845,24.1944375 14.0007,23.7466875 14.0007,23.1950625 C14.0007,22.6430625 14.44845,22.1956875 14.9997,22.1956875 C15.551325,22.1956875 15.999075,22.6430625 15.999075,23.1950625 Z M19.575075,23.1950625 C19.575075,23.7466875 19.1277,24.1944375 18.5757,24.1944375 C18.024075,24.1944375 17.577075,23.7466875 17.577075,23.1950625 C17.577075,22.6430625 18.024075,22.1956875 18.5757,22.1956875 C19.1277,22.1956875 19.575075,22.6430625 19.575075,23.1950625 Z M12.423075,23.1950625 C12.423075,23.7466875 11.9757,24.1944375 11.424075,24.1944375 C10.87245,24.1944375 10.4247,23.7466875 10.4247,23.1950625 C10.4247,22.6430625 10.87245,22.1956875 11.424075,22.1956875 C11.9757,22.1956875 12.423075,22.6430625 12.423075,23.1950625 Z M8.84745,23.1950625 C8.84745,23.7466875 8.3997,24.1944375 7.848075,24.1944375 C7.296075,24.1944375 6.8487,23.7466875 6.8487,23.1950625 C6.8487,22.6430625 7.296075,22.1956875 7.848075,22.1956875 C8.3997,22.1956875 8.84745,22.6430625 8.84745,23.1950625 Z M23.15145,23.1950625 C23.15145,23.7466875 22.704075,24.1944375 22.1517,24.1944375 C21.60045,24.1944375 21.1527,23.7466875 21.1527,23.1950625 C21.1527,22.6430625 21.60045,22.1956875 22.1517,22.1956875 C22.704075,22.1956875 23.15145,22.6430625 23.15145,23.1950625 Z M15.006825,13.9970625 C11.663325,13.9970625 8.943075,11.2779375 8.943075,7.9355625 C8.943075,4.5916875 11.663325,1.8718125 15.006825,1.8718125 C18.34995,1.8718125 21.069075,4.5916875 21.069075,7.9355625 C21.069075,11.2779375 18.34995,13.9970625 15.006825,13.9970625 Z M28.05345,27.8645625 L1.959825,27.8645625 L2.106075,26.9353125 C3.0957,20.6420625 8.641575,15.8960625 15.006825,15.8960625 C21.37095,15.8960625 26.916825,20.6420625 27.906075,26.9353125 L28.05345,27.8645625 Z M15.02595,-0.0001875 C13.156575,-0.0001875 11.346075,0.6448125 9.9027,1.8538125 C8.0877,3.3744375 7.046325,5.5989375 7.046325,7.9576875 C7.046325,10.1686875 7.9647,12.2356875 9.63195,13.7780625 L10.559325,14.6368125 L9.38895,15.1138125 C4.26945,17.1995625 0.7227,21.8911875 0.133575,27.3579375 L0.057825,28.0599375 C0.0402,28.2609375 0.0207,28.5024375 0.002325,28.7750625 C-0.0168,29.0596875 0.080325,29.3315625 0.2757,29.5411875 C0.47145,29.7504375 0.73695,29.8659375 1.022325,29.8659375 L28.976325,29.8666875 C29.262075,29.8666875 29.527575,29.7515625 29.72295,29.5423125 C29.919825,29.3311875 30.017325,29.0559375 29.99745,28.7671875 C29.981325,28.5279375 29.961825,28.2883125 29.9412,28.0494375 C29.585325,22.3456875 25.928325,17.2760625 20.623575,15.1138125 L19.452075,14.6368125 L20.3802,13.7780625 C22.441575,11.8719375 23.333325,9.2053125 22.8267,6.4625625 C22.233075,3.2458125 19.674825,0.6999375 16.46295,0.1273125 C15.983325,0.0418125 15.5022,-0.0001875 15.02595,-0.0001875 Z"
                                id="Fill-1"></path>
                        </g>
                    </g>
                </g>
            </g>
</svg>