<svg width="22" height="21" viewBox="0 0 22 21" fill="none" xmlns="http://www.w3.org/2000/svg">
<path fill-rule="evenodd" clip-rule="evenodd" d="M15.5101 6.34697C17.2061 7.6266 18.308 9.53323 18.5642 11.6344C20.3491 12.3231 21.6208 14.052 21.62 16.0763C21.62 18.7028 19.4827 20.8401 16.8562 20.8401C15.7239 20.8401 14.6829 20.4413 13.8645 19.7783C12.8964 20.1891 11.8706 20.4037 10.8096 20.4037C9.74856 20.4037 8.72357 20.1875 7.75705 19.7767C6.93866 20.4405 5.89766 20.8401 4.76377 20.8401C2.13725 20.8401 0 18.7028 0 16.0763C0 14.0512 1.27242 12.3223 3.05733 11.6336C3.31358 9.53323 4.41384 7.6266 6.11067 6.34617C6.07223 6.10354 6.0466 5.8569 6.0466 5.60386C6.0466 2.97734 8.18386 0.840088 10.8104 0.840088C13.4369 0.840088 15.5741 2.97734 15.5741 5.60386C15.5741 5.8569 15.5485 6.10434 15.5101 6.34697ZM14.7734 5.60386C14.7734 3.41856 12.9957 1.64086 10.8104 1.64086C8.62508 1.64086 6.84737 3.41776 6.84737 5.60386C6.84737 6.31655 7.05077 6.97638 7.38149 7.55453C8.16143 6.44387 9.42905 5.77282 10.8104 5.77282C12.1925 5.77282 13.4593 6.44307 14.2393 7.55453C14.5692 6.97638 14.7734 6.31655 14.7734 5.60386ZM10.8104 9.56686C11.9715 9.56686 13.0069 9.05678 13.7324 8.25841C13.1222 7.21741 12.0243 6.57359 10.8104 6.57359C9.59801 6.57359 8.49856 7.21821 7.88917 8.25921C8.61467 9.05678 9.65006 9.56686 10.8104 9.56686ZM1.84177 18.7309C2.56726 19.5284 3.60266 20.0393 4.76377 20.0393C5.92489 20.0393 6.96028 19.5292 7.68578 18.7309C7.07559 17.6907 5.97614 17.046 4.76377 17.046C3.55301 17.046 2.45195 17.6907 1.84177 18.7309ZM1.33568 18.0286C2.11643 16.9171 3.38485 16.2453 4.76377 16.2453C6.1443 16.2453 7.41191 16.9163 8.19186 18.027C8.52258 17.4488 8.72678 16.789 8.72678 16.0763C8.72678 13.891 6.94907 12.1133 4.76377 12.1133C2.57848 12.1133 0.800769 13.891 0.800769 16.0763C0.800769 16.7898 1.00496 17.4496 1.33568 18.0286ZM9.52835 16.0763C9.52835 17.2534 9.09673 18.3313 8.38565 19.1633C9.94154 19.7342 11.6768 19.7342 13.2351 19.1625C12.5248 18.3305 12.0932 17.2534 12.0932 16.0763C12.0932 13.4498 14.2305 11.3125 16.857 11.3125C17.1517 11.3125 17.4391 11.343 17.7186 11.3942C17.4367 9.75344 16.5783 8.26722 15.2947 7.19739C14.6373 9.04156 12.8788 10.3676 10.8112 10.3676C8.74439 10.3676 6.98591 9.04236 6.32767 7.19899C5.04324 8.26882 4.18482 9.75505 3.90295 11.395C4.18241 11.343 4.46989 11.3125 4.76457 11.3125C7.39109 11.3125 9.52835 13.4498 9.52835 16.0763ZM13.935 18.7309C14.6605 19.5284 15.6959 20.0393 16.857 20.0393C18.0173 20.0393 19.0535 19.5292 19.779 18.7317C19.1688 17.6907 18.0693 17.046 16.857 17.046C15.6446 17.046 14.5452 17.6899 13.935 18.7309ZM16.8562 16.2453C18.2367 16.2453 19.5051 16.9163 20.2851 18.0278C20.6158 17.4488 20.82 16.789 20.8184 16.0771C20.8184 13.8918 19.0407 12.1141 16.8554 12.1141C14.6701 12.1141 12.8924 13.8918 12.8924 16.0771C12.8924 16.7898 13.0966 17.4496 13.4273 18.0278C14.208 16.9163 15.4757 16.2453 16.8562 16.2453ZM12.5858 3.86536C12.5858 4.8447 11.7898 5.64067 10.8105 5.64067C9.83112 5.64067 9.03516 4.8447 9.03516 3.86536C9.03516 2.88602 9.83112 2.09006 10.8105 2.09006C11.7898 2.09006 12.5858 2.88602 12.5858 3.86536ZM11.785 3.86536C11.785 3.32805 11.3478 2.89083 10.8105 2.89083C10.2731 2.89083 9.83593 3.32805 9.83593 3.86536C9.83593 4.40268 10.2731 4.8399 10.8105 4.8399C11.3478 4.8399 11.785 4.40268 11.785 3.86536ZM16.8568 12.5625C15.8775 12.5625 15.0815 13.3585 15.0815 14.3378C15.0815 15.3172 15.8783 16.1131 16.8568 16.1131C17.8354 16.1131 18.6322 15.3172 18.6322 14.3378C18.6322 13.3585 17.8354 12.5625 16.8568 12.5625ZM16.8568 15.3124C16.3195 15.3124 15.8823 14.8752 15.8823 14.3378C15.8823 13.8005 16.3195 13.3633 16.8568 13.3633C17.3942 13.3633 17.8314 13.8005 17.8314 14.3378C17.8314 14.8752 17.3942 15.3124 16.8568 15.3124ZM2.98853 14.3378C2.98853 13.3585 3.78529 12.5625 4.76383 12.5625C5.74317 12.5625 6.53913 13.3585 6.53913 14.3378C6.53913 15.3172 5.74317 16.1131 4.76383 16.1131C3.78529 16.1131 2.98853 15.3172 2.98853 14.3378ZM3.78929 14.3378C3.78929 14.8752 4.22651 15.3124 4.76383 15.3124C5.30195 15.3124 5.73837 14.8752 5.73837 14.3378C5.73837 13.8005 5.30115 13.3633 4.76383 13.3633C4.22651 13.3633 3.78929 13.8005 3.78929 14.3378Z" fill="#FF5300"/>
</svg>
