<svg width="18" height="18" viewBox="0 0 18 18" fill="none" xmlns="http://www.w3.org/2000/svg">
<path fill-rule="evenodd" clip-rule="evenodd" d="M17.6063 18H0.450012C0.168762 18 0 17.8313 0 17.6062V0.449951C0 0.168701 0.168762 0 0.450012 0H17.6063C17.8312 0 18 0.168701 18 0.449951V17.6062C18 17.8313 17.8312 18 17.6063 18ZM0.84375 17.1562H17.1562V0.84375H0.84375V17.1562ZM6.91876 7.3125H2.70001C2.41876 7.3125 2.25 7.1438 2.25 6.9187V2.69995C2.25 2.4187 2.41876 2.25 2.70001 2.25H6.91876C7.14374 2.25 7.3125 2.4187 7.3125 2.69995V6.9187C7.3125 7.1438 7.14374 7.3125 6.91876 7.3125ZM3.09375 6.46875H6.46875V3.09375H3.09375V6.46875ZM9.00031 3.09375H15.3565C15.5815 3.09375 15.7503 2.9812 15.7503 2.69995C15.7503 2.4187 15.5815 2.25 15.3565 2.25H9.00031C8.7753 2.25 8.55029 2.36255 8.55029 2.6438C8.55029 2.92505 8.7753 3.09375 9.00031 3.09375ZM15.3565 5.23132H9.00031C8.7753 5.23132 8.55029 5.0625 8.55029 4.78125C8.55029 4.5 8.71906 4.3313 9.00031 4.3313H15.3565C15.5815 4.3313 15.8065 4.5 15.8065 4.78125C15.8065 5.0625 15.5815 5.23132 15.3565 5.23132ZM9.00031 7.3125H15.3565C15.5815 7.3125 15.8065 7.14368 15.8065 6.86243C15.8065 6.58118 15.5815 6.41248 15.3565 6.41248H9.00031C8.71906 6.41248 8.55029 6.58118 8.55029 6.86243C8.55029 7.14368 8.7753 7.3125 9.00031 7.3125ZM15.3563 9.45007H2.70001C2.41876 9.45007 2.25 9.2251 2.25 9C2.25 8.77502 2.41876 8.55005 2.70001 8.55005H15.3563C15.5812 8.55005 15.8062 8.71875 15.8062 9C15.8062 9.28125 15.5812 9.45007 15.3563 9.45007ZM2.70001 11.5312H15.3563C15.5812 11.5312 15.8062 11.4187 15.8062 11.1375C15.8062 10.8562 15.5812 10.6875 15.3563 10.6875H2.70001C2.41876 10.6875 2.25 10.8 2.25 11.0813C2.25 11.3625 2.47501 11.5312 2.70001 11.5312ZM15.3563 13.6688H2.70001C2.47501 13.6688 2.25 13.5 2.25 13.2188C2.25 12.9375 2.41876 12.7688 2.70001 12.7688H15.3563C15.5812 12.7688 15.8062 12.9375 15.8062 13.2188C15.8062 13.5 15.5812 13.6688 15.3563 13.6688ZM2.70001 15.75H15.3563C15.5812 15.75 15.8062 15.6375 15.8062 15.3562C15.8062 15.075 15.5812 14.9062 15.3563 14.9062H2.70001C2.41876 14.9062 2.25 15.1312 2.25 15.3562C2.25 15.5813 2.41876 15.75 2.70001 15.75Z" fill="#32AC4C"/>
</svg>
