<svg width="22" height="19" viewBox="0 0 22 19" fill="none" xmlns="http://www.w3.org/2000/svg">
<path fill-rule="evenodd" clip-rule="evenodd" d="M1.09571 8.95489L1.09705 8.9261L1.09603 8.90328L1.10898 8.76838C1.25824 7.21403 2.35534 5.93375 3.8163 5.51564L4.31697 5.37235L4.27351 4.85341C4.26495 4.75125 4.26058 4.64783 4.26058 4.54329C4.26058 2.4601 6.01608 0.733717 8.22884 0.733717C9.50027 0.733717 10.6264 1.3066 11.351 2.19178L11.6904 2.60639L12.1557 2.34074C12.6311 2.0693 13.1887 1.91212 13.7879 1.91212C15.533 1.91212 16.9104 3.23675 16.9612 4.83525L16.9773 5.34258L17.4759 5.43771C19.0976 5.7471 20.3505 7.09934 20.5108 8.76838L20.5237 8.90338L20.5227 8.92625L20.524 8.95504C20.5268 9.01405 20.5282 9.07345 20.5282 9.13322C20.5282 10.954 19.2347 12.4728 17.5165 12.8206V10.59C17.5165 10.4999 17.486 10.4167 17.4249 10.3557C17.3639 10.2947 17.2807 10.2643 17.1907 10.2643H16.4132C16.2866 9.80458 16.1058 9.36306 15.8704 8.95609L16.4289 8.39761C16.5581 8.26837 16.5581 8.06929 16.4289 7.94006L14.5578 6.06897C14.4285 5.93973 14.2295 5.93973 14.1002 6.06897L13.5417 6.62747C13.1348 6.39217 12.6932 6.21123 12.2335 6.0846V5.30717C12.2335 5.21716 12.2031 5.13391 12.1421 5.07289C12.0811 5.01185 11.9978 4.98135 11.9077 4.98135H9.26633C9.17632 4.98135 9.09306 5.0118 9.03204 5.07279C8.97101 5.13379 8.94051 5.21706 8.94051 5.30717V6.08459C8.48079 6.21123 8.03927 6.39203 7.6323 6.62746L7.07381 6.06897C6.94458 5.93973 6.74549 5.93973 6.61626 6.06897L4.74517 7.94006C4.61594 8.06929 4.61594 8.26838 4.74517 8.39761L5.30367 8.95611C5.06837 9.36306 4.88744 9.8046 4.7608 10.2643H3.98353C3.89352 10.2643 3.81027 10.2948 3.74925 10.3557C3.68822 10.4167 3.65771 10.5 3.65771 10.5901V12.7014C2.16626 12.2016 1.09157 10.7929 1.09157 9.13322C1.09157 9.07339 1.09296 9.01394 1.09571 8.95489ZM3.68586 13.3725C1.88913 12.8785 0.552744 11.2729 0.462616 9.34161C0.459393 9.27255 0.457764 9.20307 0.457764 9.13322C0.457764 9.06357 0.459384 8.99429 0.462588 8.92543C0.459383 8.85329 0.457764 8.78074 0.457764 8.7078H0.478083C0.652679 6.88956 1.93484 5.39485 3.64191 4.9063C3.63189 4.78657 3.62678 4.66551 3.62678 4.54329C3.62678 2.08928 5.68719 0.0999146 8.22884 0.0999146C9.69365 0.0999146 10.9986 0.760672 11.8414 1.79032C12.4111 1.46512 13.0767 1.27832 13.7879 1.27832C15.8518 1.27832 17.5323 2.85167 17.5947 4.81513C19.4904 5.17681 20.9542 6.75589 21.1417 8.7078H21.162C21.162 8.7808 21.1604 8.85341 21.1572 8.92561C21.1604 8.99441 21.162 9.06362 21.162 9.13322C21.162 9.20307 21.1603 9.27255 21.1571 9.34161C21.0584 11.4578 19.4634 13.1829 17.4061 13.483C17.3473 13.5325 17.2717 13.5572 17.1907 13.5572H16.4134C16.2868 14.0169 16.1058 14.4584 15.8705 14.8654L16.429 15.4239C16.5583 15.5531 16.5583 15.7522 16.429 15.8814L14.5579 17.7525C14.4287 17.8817 14.2296 17.8817 14.1004 17.7525L13.5419 17.194C13.1349 17.4294 12.6934 17.6102 12.2337 17.7369V18.5143C12.2337 18.6044 12.2032 18.6877 12.1422 18.7487C12.0811 18.8097 11.9979 18.8401 11.9079 18.8401H9.26648C9.17637 18.8401 9.09311 18.8096 9.0321 18.7486C8.97111 18.6876 8.94067 18.6043 8.94067 18.5143V17.737C8.48096 17.6104 8.03942 17.4295 7.63247 17.1942L7.07397 17.7527C6.94474 17.8819 6.74565 17.8819 6.61642 17.7527L4.74533 15.8816C4.61609 15.7523 4.6161 15.5533 4.74533 15.424L5.30382 14.8655C5.06839 14.4586 4.88759 14.017 4.76096 13.5573H3.98353C3.89342 13.5573 3.81015 13.5268 3.74915 13.4658C3.722 13.4386 3.70091 13.4071 3.68586 13.3725ZM10.5872 13.9747C11.7271 13.9747 12.6511 13.0506 12.6511 11.9107C12.6511 10.7709 11.7271 9.84678 10.5872 9.84678C9.44727 9.84678 8.52321 10.7709 8.52321 11.9107C8.52321 13.0506 9.44727 13.9747 10.5872 13.9747ZM10.5872 14.6085C12.0771 14.6085 13.2849 13.4007 13.2849 11.9107C13.2849 10.4208 12.0771 9.21298 10.5872 9.21298C9.09723 9.21298 7.8894 10.4208 7.8894 11.9107C7.8894 13.4007 9.09723 14.6085 10.5872 14.6085ZM9.57014 5.63291L9.57001 6.34152C9.57 6.49752 9.47283 6.63181 9.31061 6.66495C8.75196 6.79404 8.23581 7.00882 7.7403 7.30993C7.60441 7.40835 7.43855 7.37074 7.34264 7.27483L6.84507 6.77726L5.45227 8.17006L5.95215 8.68912C6.0611 8.79892 6.0489 8.96295 5.99307 9.07443L5.99064 9.07927L5.98774 9.08383C5.68693 9.55652 5.47115 10.0949 5.34146 10.6564C5.30816 10.8184 5.17419 10.9157 5.01804 10.9157H4.30927V12.9276L5.01788 12.9277C5.17388 12.9278 5.30817 13.0249 5.34132 13.1871C5.4704 13.7458 5.68519 14.262 5.98629 14.7575C6.08471 14.8933 6.0471 15.0592 5.9512 15.1551L5.45362 15.6527L6.84642 17.0455L7.36549 16.5456C7.47529 16.4367 7.63932 16.4489 7.75079 16.5047L7.75563 16.5071L7.7602 16.51C8.23288 16.8108 8.77131 17.0266 9.33272 17.1563C9.49476 17.1896 9.59206 17.3236 9.59206 17.4797V18.1885H11.604L11.6041 17.4799C11.6041 17.3239 11.7013 17.1896 11.8635 17.1564C12.4221 17.0274 12.9383 16.8126 13.4338 16.5115C13.5697 16.413 13.7356 16.4507 13.8315 16.5466L14.3291 17.0441L15.7219 15.6513L15.222 15.1323C15.113 15.0225 15.1252 14.8584 15.1811 14.747L15.1835 14.7421L15.1864 14.7376C15.4872 14.2649 15.703 13.7264 15.8327 13.165C15.866 13.003 15.9999 12.9057 16.1561 12.9057H16.8649V10.8938L16.1562 10.8936C16.0002 10.8936 15.8659 10.7965 15.8328 10.6342C15.7037 10.0756 15.4889 9.55944 15.1878 9.06394C15.0894 8.92805 15.127 8.76219 15.2229 8.66628L15.7205 8.1687L14.3264 6.77459L13.7859 7.27652C13.6761 7.38468 13.5126 7.37241 13.4014 7.3167L13.3965 7.31428L13.392 7.31137C12.9193 7.01057 12.3808 6.79478 11.8194 6.66509C11.6574 6.63179 11.5601 6.49782 11.5601 6.34167V5.63291H9.57014Z" fill="#FF5300"/>
</svg>
