<svg width="21" height="21" viewBox="0 0 21 21" fill="none" xmlns="http://www.w3.org/2000/svg">
<path d="M20.4375 17.96L17.4074 14.9307C17.0702 14.5933 16.4821 14.5933 16.1446 14.9307L14.8697 13.6561C15.3086 13.1387 15.6119 12.5332 15.7654 11.8817H19.0177C19.4865 11.8742 19.4873 11.1754 19.0177 11.1676H18.6605V0.456938C18.6605 0.259461 18.5005 0.0999146 18.3034 0.0999146H16.1608C15.9637 0.0999146 15.8036 0.259461 15.8036 0.456938V10.0586C15.6873 9.46413 15.4422 8.90578 15.0894 8.4117V3.313C15.0894 3.11553 14.9293 2.95598 14.7323 2.95598H12.5896C12.3926 2.95598 12.2325 3.11553 12.2325 3.313V6.66041C11.9958 6.62535 11.7572 6.60829 11.5183 6.61259V1.88479C11.5183 1.68731 11.3582 1.52777 11.1612 1.52777H9.01849C8.82144 1.52777 8.66138 1.68731 8.66138 1.88479V7.77833C8.37633 8.03111 8.1442 8.34002 7.94715 8.65591V4.38387C7.94715 4.18639 7.78709 4.02685 7.59004 4.02685H5.44736C5.25032 4.02685 5.09025 4.18639 5.09025 4.38387V11.1673H4.37603V6.16899C4.37603 5.97151 4.21596 5.81196 4.01891 5.81196H1.87623C1.67919 5.81196 1.51912 5.97151 1.51912 6.16899V11.1673H1.16201C0.693477 11.1748 0.692007 11.8736 1.16201 11.8814H7.43291C8.106 14.9511 12.0044 16.2211 14.3638 14.1599L15.6393 15.4352C15.2929 15.7675 15.2929 16.3649 15.6393 16.6972L18.6694 19.7265C19.8611 20.8621 21.5734 19.1564 20.437 17.9595L20.4375 17.96ZM16.5181 0.81388H17.9466V11.1676H16.5181V0.81388ZM12.947 3.67007H14.3755V7.63237C13.9452 7.26531 13.4594 6.99834 12.947 6.82938V3.67007ZM9.37589 2.24197H10.8043V6.68375C10.3055 6.77731 9.82198 6.963 9.37589 7.23393V2.24197ZM2.23363 11.1676V6.52625H3.66208V11.1676H2.23363ZM5.80476 11.1676V4.74114H7.23321V11.1676H5.80476ZM9.07408 13.4157C6.8217 11.1872 8.46442 7.29775 11.5992 7.32305C13.4715 7.26487 15.2289 8.97682 15.1703 10.8915C15.1965 14.0365 11.2853 15.6552 9.07371 13.4157H9.07408ZM19.9324 19.2223C19.7305 19.4244 19.3774 19.4244 19.1749 19.2223L16.1449 16.1931C16.0752 16.1234 16.0752 16.0102 16.1449 15.9406L16.6498 15.4358C16.7194 15.3662 16.8326 15.3662 16.9026 15.4358L19.9327 18.4651C20.1412 18.6739 20.1412 19.0135 19.9327 19.2223L19.9324 19.2223ZM13.5117 9.89157C13.1834 9.29994 12.6139 8.89334 11.9493 8.77587C11.755 8.7416 11.6254 8.55671 11.6596 8.36241C11.6939 8.16811 11.8779 8.03759 12.0735 8.07281C12.9513 8.22773 13.7033 8.76437 14.1365 9.54489C14.3611 9.9534 13.7419 10.2992 13.5118 9.89155L13.5117 9.89157Z" fill="#FF5300"/>
</svg>
