<svg width="16" height="11" viewBox="0 0 16 11" fill="none" xmlns="http://www.w3.org/2000/svg">
<path fill-rule="evenodd" clip-rule="evenodd" d="M14.4 5.5C14.4 6.12998 13.987 6.94239 12.8089 7.67874C12.1874 8.06716 11.4096 8.39102 10.5189 8.60742C11.4225 7.87404 12 6.75446 12 5.5C12 4.24554 11.4225 3.12596 10.5189 2.39258C11.4096 2.60898 12.1874 2.93284 12.8089 3.32126C13.987 4.05761 14.4 4.87002 14.4 5.5ZM5.48107 2.39258C4.57747 3.12596 4 4.24554 4 5.5C4 6.75446 4.57747 7.87404 5.48107 8.60742C4.59041 8.39102 3.81263 8.06716 3.19114 7.67874C2.01299 6.94239 1.6 6.12998 1.6 5.5C1.6 4.87002 2.01299 4.05761 3.19114 3.32126C3.81263 2.93284 4.59041 2.60898 5.48107 2.39258ZM16 5.5C16 8.26142 12.4183 10.5 8 10.5C3.58172 10.5 0 8.26142 0 5.5C0 2.73858 3.58172 0.5 8 0.5C12.4183 0.5 16 2.73858 16 5.5ZM10.4 5.5C10.4 6.82548 9.32548 7.9 8 7.9C6.67452 7.9 5.6 6.82548 5.6 5.5C5.6 4.17452 6.67452 3.1 8 3.1C9.32548 3.1 10.4 4.17452 10.4 5.5Z" fill="#A1A1A1"/>
</svg>
