<svg width="22" height="13" viewBox="0 0 22 13" fill="none" xmlns="http://www.w3.org/2000/svg">
<path d="M13.4 0.000157497C13.0897 0.0322958 12.879 0.265665 12.7758 0.436819L7.95426 12.0243C7.78943 12.3575 7.96252 12.8114 8.30878 12.9536C8.65497 13.0959 9.10206 12.8969 9.22422 12.5462L14.0458 0.958683C14.2336 0.540745 13.8621 -0.010687 13.4 0.000157497ZM6.12465 1.71485C5.99629 1.72688 5.87166 1.77548 5.76947 1.85331L0.259124 5.94301C-0.0863747 6.19535 -0.0863747 6.78768 0.259124 7.04001L5.76947 11.1297C6.05932 11.3466 6.52353 11.2801 6.73929 10.9907C6.95502 10.7013 6.88236 10.2428 6.58742 10.0327L1.81969 6.49683L6.58742 2.95029C6.83328 2.77845 6.94056 2.43582 6.83593 2.15653C6.73134 1.87723 6.42431 1.68658 6.12465 1.71485ZM15.7893 1.71485C15.5042 1.72487 15.2366 1.92895 15.1543 2.19919C15.0718 2.46943 15.1808 2.78591 15.4126 2.95029L20.1803 6.49683L15.4126 10.0327C15.1176 10.2428 15.045 10.7013 15.2607 10.9907C15.4765 11.2801 15.9407 11.3466 16.2305 11.1297L21.7409 7.04001C22.0864 6.78768 22.0864 6.19535 21.7409 5.94301L16.2305 1.85331C16.1052 1.7591 15.9465 1.70931 15.7893 1.71485Z" fill="#0074FF"/>
</svg>
