<svg id="Capa_1" data-name="Capa 1" xmlns="http://www.w3.org/2000/svg" viewBox="0 0 18 18"><defs><style>.cls-1{fill:#0074ff;}</style></defs><path class="cls-1" d="M17.44,5.45a.17.17,0,0,0,0-.1,14.06,14.06,0,0,0,.49-5,.36.36,0,0,0-.34-.33C15.46-.11,11.46,0,9,2.57h0v0A8.49,8.49,0,0,0,8,3.7C3.48,5.5,2.48,8.27,2.38,8.58a.37.37,0,0,0,.05.31.37.37,0,0,0,.27.16l2.54.2c-.2.53-.4,1.06-.56,1.59a.34.34,0,0,0,.09.36l1.76,1.72a.4.4,0,0,0,.26.1l.1,0c.56-.16,1.11-.35,1.66-.55l.2,2.49a.37.37,0,0,0,.16.27.42.42,0,0,0,.21.06h.11c.32-.1,3.16-1.08,5-5.52h0a9,9,0,0,0,1.12-.86A7.71,7.71,0,0,0,17.44,5.45Zm-.52-.86L13.3,1.06A13.92,13.92,0,0,1,17.25.75,13.65,13.65,0,0,1,16.92,4.59ZM12.48,1.28l4.21,4.1a6.94,6.94,0,0,1-1.83,3,16,16,0,0,1-4.09,2.41,28.74,28.74,0,0,1-3.88,1.5L5.45,10.84A26.36,26.36,0,0,1,7,7.07a16.6,16.6,0,0,1,2.48-4A7.34,7.34,0,0,1,12.48,1.28ZM6.32,6.76c-.29.58-.55,1.18-.8,1.78L3.26,8.37A8.5,8.5,0,0,1,7.35,4.8C7,5.47,6.62,6.14,6.32,6.76Zm4.77,4.64c.64-.29,1.34-.63,2-1a8.42,8.42,0,0,1-3.68,4l-.18-2.21C9.88,11.94,10.49,11.69,11.09,11.4Z"/><path class="cls-1" d="M12.07,7.45A1.73,1.73,0,0,0,13.28,7a1.67,1.67,0,0,0,.5-1.18,1.63,1.63,0,0,0-.5-1.18,1.73,1.73,0,0,0-2.41,0,1.6,1.6,0,0,0-.51,1.18A1.64,1.64,0,0,0,10.87,7,1.72,1.72,0,0,0,12.07,7.45Zm-1-1.66a1,1,0,0,1,.28-.67,1,1,0,0,1,.69-.28,1,1,0,0,1,.69.28.93.93,0,0,1,0,1.33,1,1,0,0,1-1.38,0A.92.92,0,0,1,11.1,5.79Z"/><path class="cls-1" d="M4.92,13.39a.36.36,0,0,0-.11-.25.37.37,0,0,0-.52,0l-4,4.06a.33.33,0,0,0-.1.26.36.36,0,0,0,.11.26.39.39,0,0,0,.25.1.39.39,0,0,0,.27-.11l4-4.07A.4.4,0,0,0,4.92,13.39Z"/><path class="cls-1" d="M5.69,14.53,3.09,17.4a.31.31,0,0,0-.09.26.33.33,0,0,0,.12.25.36.36,0,0,0,.24.09.36.36,0,0,0,.28-.12L6.23,15a.35.35,0,0,0,.1-.26.37.37,0,0,0-.64-.22Z"/><path class="cls-1" d="M.64,15.13l2.6-2.87A.35.35,0,0,0,3.33,12a.37.37,0,0,0-.12-.25.38.38,0,0,0-.52,0L.09,14.65a.39.39,0,0,0-.09.26.37.37,0,0,0,.12.25.38.38,0,0,0,.25.09A.36.36,0,0,0,.64,15.13Z"/></svg>