<svg width="21" height="21" viewBox="0 0 21 21" fill="none" xmlns="http://www.w3.org/2000/svg">
<path d="M10.81 3.64848C7.26152 3.64848 4.35844 6.55157 4.35844 10.1C4.35844 13.6485 7.26152 16.5516 10.81 16.5516C14.3585 16.5516 17.2616 13.6485 17.2616 10.1C17.2616 6.55157 14.3585 3.64848 10.81 3.64848ZM6.87454 14.3581C7.68099 12.9063 9.16496 12.0355 10.81 12.0355C12.455 12.0355 13.9712 12.9387 14.7454 14.3581C13.7131 15.3256 12.3261 15.9064 10.81 15.9064C9.29388 15.9064 7.90691 15.3256 6.87454 14.3581ZM15.2293 13.8741C14.5518 12.7774 13.5196 12.0031 12.3262 11.6161C13.1649 11.0999 13.7456 10.1967 13.7456 9.13217C13.7456 7.51929 12.4554 6.22909 10.8425 6.22909C9.22965 6.22909 7.93946 7.51929 7.93946 9.13217C7.93946 10.1967 8.48781 11.0999 9.32642 11.6161C8.13294 11.9709 7.10058 12.7774 6.42334 13.8741C5.51989 12.8419 5.00371 11.5515 5.00371 10.0999C5.00371 6.90633 7.61653 4.29351 10.8101 4.29351C14.0037 4.29351 16.6165 6.90633 16.6165 10.0999C16.6165 11.5515 16.1003 12.8419 15.2293 13.8741ZM10.8101 11.3902C9.552 11.3902 8.55207 10.3902 8.55207 9.13217C8.55207 7.87412 9.552 6.87419 10.8101 6.87419C12.0681 6.87419 13.068 7.87412 13.068 9.13217C13.068 10.3902 12.0681 11.3902 10.8101 11.3902ZM20.4874 7.84192H19.2293C19.0358 7.10005 18.7456 6.39038 18.3583 5.74528L19.2615 4.84206C19.3905 4.71313 19.3905 4.51939 19.2615 4.39047L16.5195 1.64844C16.3906 1.5195 16.1968 1.5195 16.0679 1.64844L15.1647 2.55166C14.5196 2.16463 13.8099 1.87413 13.0681 1.68064V0.422585C13.0681 0.229072 12.9391 0.0999146 12.7454 0.0999146H8.8745C8.68099 0.0999146 8.55184 0.228848 8.55184 0.422585V1.68064C7.80996 1.87415 7.10029 2.16441 6.45519 2.55166L5.55198 1.64844C5.42304 1.5195 5.22931 1.5195 5.10038 1.64844L2.35835 4.39047C2.22942 4.5194 2.22942 4.71314 2.35835 4.84206L3.26157 5.74528C2.87455 6.39038 2.58404 7.10011 2.39055 7.84192H1.13273C0.939217 7.84192 0.810059 7.97085 0.810059 8.16459V12.0355C0.810059 12.229 0.938992 12.3581 1.13273 12.3581H2.39078C2.58429 13.1 2.87456 13.8097 3.2618 14.4548L2.35858 15.358C2.22965 15.4869 2.22965 15.6807 2.35858 15.8096L5.10061 18.5516C5.22954 18.6806 5.42328 18.6806 5.55221 18.5516L6.45542 17.6484C7.10052 18.0354 7.81025 18.3259 8.55207 18.5194V19.7772C8.55207 19.9708 8.681 20.0999 8.87474 20.0999H12.7456C12.9391 20.0999 13.0683 19.971 13.0683 19.7772V18.5192C13.8102 18.3257 14.5198 18.0354 15.1649 17.6482L16.0681 18.5514C16.1971 18.6803 16.3908 18.6803 16.5197 18.5514L19.2618 15.8094C19.3907 15.6804 19.3907 15.4867 19.2618 15.3578L18.3585 14.4545C18.7456 13.8095 19.0361 13.0997 19.2296 12.3579H20.4874C20.6809 12.3579 20.8101 12.229 20.8101 12.0352V8.16436C20.8101 7.97085 20.6809 7.84192 20.4874 7.84192ZM20.1647 11.7128H18.9712C18.8099 11.7128 18.681 11.8096 18.6486 11.9709C18.4551 12.8095 18.1324 13.616 17.6808 14.3257C17.6162 14.4546 17.6162 14.6159 17.713 14.7127L18.5518 15.5837L16.2938 17.8417L15.4551 17.003C15.3584 16.9063 15.197 16.8741 15.0681 16.9709C14.3262 17.4225 13.552 17.7451 12.7134 17.9386C12.552 17.9708 12.4553 18.1 12.4553 18.2613L12.455 19.4546H9.19706V18.2611C9.19706 18.0998 9.1003 17.9708 8.93897 17.9384C8.10032 17.7449 7.29388 17.4222 6.58421 16.9706C6.45527 16.906 6.29394 16.906 6.19718 17.0028L5.32616 17.8416L3.06818 15.5836L3.90682 14.745C4.00358 14.6482 4.03576 14.4869 3.939 14.358C3.4874 13.6161 3.16475 12.8418 2.97121 12.0032C2.93903 11.8419 2.80987 11.7451 2.64854 11.7451L1.45529 11.7449V8.48691H2.64877C2.8101 8.48691 2.93904 8.39015 2.97144 8.22882C3.16495 7.39017 3.48761 6.58373 3.93923 5.87406C4.00381 5.74512 4.00381 5.58379 3.90705 5.48703L3.06824 4.61602L5.32622 2.35803L6.16487 3.19667C6.26162 3.29343 6.42296 3.32561 6.55189 3.22885C7.29376 2.77725 8.06801 2.4546 8.90665 2.26106C9.06799 2.22888 9.16474 2.09972 9.16474 1.93839L9.16497 0.745138H12.3907V1.93862C12.3907 2.09995 12.4875 2.22889 12.6488 2.26129C13.4875 2.4548 14.2939 2.77747 15.0036 3.22908C15.1325 3.29366 15.2939 3.29366 15.3906 3.1969L16.2938 2.35809L18.5518 4.61607L17.7132 5.45472C17.6164 5.55147 17.5843 5.71281 17.681 5.84174C18.1326 6.58361 18.4553 7.35786 18.6488 8.1965C18.681 8.35784 18.8101 8.45459 18.9715 8.45459L20.1647 8.45482V11.7128Z" fill="#FF5300"/>
</svg>
