<svg width="21" height="21" viewBox="0 0 21 21" fill="none" xmlns="http://www.w3.org/2000/svg">
<path d="M14.1442 8.57139C13.9586 8.42967 13.923 8.16456 14.0647 7.97911C14.2064 7.79351 14.4715 7.75789 14.657 7.89961L17.102 9.77193C17.2876 9.91365 17.3232 10.1788 17.1815 10.3642C17.1566 10.3966 17.1274 10.4247 17.0963 10.4482L14.6768 12.3008C14.4912 12.4426 14.2262 12.407 14.0845 12.2213C13.9428 12.0357 13.9784 11.7708 14.164 11.6291L16.1507 10.1075L14.1442 8.57081L14.1442 8.57139ZM10.8101 0.0999146C13.5716 0.0999146 16.0712 1.21918 17.8814 3.02856C19.6909 4.83809 20.8101 7.33826 20.8101 10.0999C20.8101 12.8614 19.6908 15.3618 17.8814 17.1713C16.0719 18.9808 13.5717 20.0999 10.8101 20.0999C8.04855 20.0999 5.54816 18.9806 3.7387 17.1713C1.92917 15.3617 0.810059 12.8616 0.810059 10.0999C0.810059 7.33841 1.92932 4.83877 3.7387 3.02856C5.54823 1.21903 8.0484 0.0999146 10.8101 0.0999146ZM17.2818 3.62795C15.6255 1.97168 13.3375 0.947138 10.8101 0.947138C8.28257 0.947138 5.9938 1.97168 4.33832 3.62795C2.68205 5.28423 1.65751 7.5722 1.65751 10.0997C1.65751 12.6272 2.68205 14.9159 4.33832 16.5714C5.9946 18.2277 8.28333 19.2522 10.8101 19.2522C13.3376 19.2522 15.6263 18.2277 17.2818 16.5714C18.9381 14.9151 19.9626 12.6264 19.9626 10.0997C19.9626 7.57296 18.9381 5.28419 17.2818 3.62795ZM11.5686 6.33997C11.6391 6.11816 11.8762 5.99491 12.098 6.0654C12.3199 6.1359 12.4431 6.37308 12.3726 6.59489L10.0503 13.8614C9.9798 14.0833 9.74262 14.2065 9.52081 14.136C9.299 14.0655 9.17575 13.8283 9.24624 13.6065L11.5686 6.33997ZM6.9619 7.90035C7.1475 7.75863 7.41246 7.79424 7.55418 7.97985C7.69589 8.16546 7.66028 8.43042 7.47467 8.57213L5.46816 10.1089L7.45489 11.6304C7.64049 11.7721 7.67611 12.0372 7.53439 12.2227C7.39267 12.4083 7.12756 12.4439 6.94211 12.3022L4.52256 10.4495C4.49138 10.426 4.46286 10.3981 4.43744 10.3655C4.29572 10.1799 4.33133 9.91497 4.51694 9.77326L6.96192 7.90093L6.9619 7.90035Z" fill="#FF5300"/>
</svg>
